SplineFontDB: 3.2
FontName: cclgcbi
FullName: Concrete LGC Bold Italic
FamilyName: Concrete LGC 
Weight: Bold
Copyright: Copyright (c) 2022, Nikola Lecic, Andrey Panov, Claudio Beccari, Luis Rivera
UComments: "2022-12-23: Created with FontForge (http://fontforge.org)"
Version: 001.000
ItalicAngle: 0
UnderlinePosition: -100
UnderlineWidth: 50
Ascent: 800
Descent: 200
InvalidEm: 0
LayerCount: 2
Layer: 0 0 "Atr+AOEA-s" 1
Layer: 1 0 "Fore" 0
XUID: [1021 435 22966 22468]
StyleMap: 0x0000
FSType: 0
OS2Version: 0
OS2_WeightWidthSlopeOnly: 0
OS2_UseTypoMetrics: 1
CreationTime: 1671821344
ModificationTime: 1671825418
OS2TypoAscent: 0
OS2TypoAOffset: 1
OS2TypoDescent: 0
OS2TypoDOffset: 1
OS2TypoLinegap: 90
OS2WinAscent: 0
OS2WinAOffset: 1
OS2WinDescent: 0
OS2WinDOffset: 1
HheadAscent: 0
HheadAOffset: 1
HheadDescent: 0
HheadDOffset: 1
MarkAttachClasses: 1
DEI: 91125
Encoding: UnicodeFull
Compacted: 1
UnicodeInterp: none
NameList: Adobe Glyph List
DisplaySize: -24
AntiAlias: 1
FitToEm: 0
WinInfo: 1024 32 10
OnlyBitmaps: 1
BeginPrivate: 0
EndPrivate
BeginChars: 1114654 2128

StartChar: endash
Encoding: 8211 8211 0
Width: 628
Flags: MW
HStem: 256 37<76 668 69 675>
LayerCount: 2
Fore
SplineSet
73 278 m 2
 76 293 l 1
 675 293 l 1
 675 291 l 2
 675 290 673 281 671 272 c 2
 668 256 l 1
 69 256 l 1
 69 260 l 2
 70 262 71 270 73 278 c 2
EndSplineSet
EndChar

StartChar: uni0020032F
Encoding: 1114112 -1 1
Width: 428
Flags: MW
HStem: -107 62<173.5 219 173.5 230>
VStem: 336 32
LayerCount: 2
Fore
SplineSet
74 -85 m 0
 109 -61 150 -45 197 -45 c 0
 241 -45 265 -50 292 -67 c 0
 340 -94 368 -144 368 -200 c 0
 368 -223 365 -229 354 -236 c 0
 341 -245 338 -236 336 -224 c 0
 324 -156 269 -107 191 -107 c 0
 116 -107 38 -154 -5 -225 c 0
 -12 -237 -14 -239 -20 -239 c 0
 -32 -239 -35 -223 -31 -210 c 0
 -12 -158 29 -114 74 -85 c 0
EndSplineSet
EndChar

StartChar: u10144
Encoding: 65860 65860 2
Width: 1028
Flags: MW
HStem: 0 122<465 522.5 465 758> 560 126<659 926>
VStem: 807 126<0.5 2 0 3>
LayerCount: 2
Fore
SplineSet
94 2 m 2
 95 3 239 683 240 684 c 0
 240 686 261 686 659 686 c 2
 1079 686 l 1
 1078 682 934 3 933 2 c 2
 933 0 l 1
 870 0 l 2
 835 0 807 0 807 1 c 0
 807 5 924 553 926 560 c 1
 339 560 l 1
 300 373 260 187 220 1 c 1
 157 0 l 1
 94 0 l 1
 94 2 l 2
269 0 m 2
 266 3 263 5 263 11 c 0
 263 19 578 479 578 479 c 2
 582 486 589 491 596 494 c 0
 601 496 603 496 619 496 c 0
 637 496 640 495 646 490 c 0
 648 488 651 485 652 482 c 0
 653 480 680 373 712 246 c 2
 770 14 l 2
 768 7 763 3 758 0 c 2
 269 0 l 2
585 123 m 0
 585 128 534 324 534 324 c 2
 534 326 518 304 465 225 c 0
 427 169 396 123 396 123 c 2
 396 122 439 122 491 122 c 0
 554 122 585 122 585 123 c 0
EndSplineSet
EndChar

StartChar: u10145
Encoding: 65861 65861 3
Width: 1028
Flags: MW
HStem: 0 48<488 497 488 488 744 744 744 752> 225 48<487 646> 448 48<388.5 394 388 395 388 419 646.5 650.5> 560 126<659 926>
VStem: 334 116<48.5 49> 807 126<0.5 2 0 3>
LayerCount: 2
Fore
SplineSet
94 2 m 2
 95 3 239 683 240 684 c 0
 240 686 261 686 659 686 c 2
 1079 686 l 1
 1078 682 934 3 933 2 c 2
 933 0 l 1
 870 0 l 2
 835 0 807 0 807 1 c 0
 807 5 924 553 926 560 c 1
 339 560 l 1
 300 373 260 187 220 1 c 1
 157 0 l 1
 94 0 l 1
 94 2 l 2
488 0 m 2
 467 2 427 2 387 2 c 0
 345 2 308 1 276 0 c 1
 276 1 278 11 281 24 c 2
 286 48 l 1
 310 48 l 2
 323 48 334 48 334 49 c 2
 334 49 353 139 376 249 c 2
 419 448 l 1
 395 448 l 2
 382 448 371 448 371 449 c 0
 371 450 380 492 381 494 c 0
 381 496 382 496 394 496 c 0
 412 495 454 494 493 494 c 0
 532 494 575 495 601 496 c 0
 603 496 592 449 592 449 c 2
 592 448 579 448 563 448 c 2
 535 448 l 1
 516 362 l 2
 506 315 498 276 498 275 c 0
 498 273 502 273 572 273 c 2
 646 273 l 1
 658 332 670 390 683 448 c 1
 654 448 l 2
 639 448 626 448 626 449 c 0
 626 451 636 495 636 496 c 1
 665 496 712 494 750 494 c 0
 788 494 828 495 856 496 c 0
 857 496 847 449 847 448 c 1
 799 448 l 1
 756 249 l 2
 733 140 714 50 714 49 c 0
 714 48 720 48 738 48 c 2
 762 48 l 1
 759 32 755 16 752 0 c 1
 744 0 l 2
 724 2 687 2 647 2 c 0
 606 2 565 1 531 0 c 1
 531 1 533 11 536 24 c 2
 541 48 l 1
 569 48 l 2
 585 48 598 48 598 49 c 2
 635 224 l 2
 635 225 607 225 561 225 c 2
 487 225 l 1
 487 222 l 2
 485 220 478 178 450 49 c 0
 450 48 463 48 478 48 c 2
 507 48 l 1
 504 32 500 16 497 0 c 1
 488 0 l 2
EndSplineSet
EndChar

StartChar: u10146
Encoding: 65862 65862 4
Width: 1028
Flags: MW
HStem: 0 48<476 476> 448 48<396.5 401 395.5 408 395.5 438> 560 126<659 926>
VStem: 807 126<0.5 2 0 3>
LayerCount: 2
Fore
SplineSet
94 2 m 2
 95 3 239 683 240 684 c 0
 240 686 261 686 659 686 c 2
 1079 686 l 1
 1078 682 934 3 933 2 c 2
 933 0 l 1
 870 0 l 2
 835 0 807 0 807 1 c 0
 807 5 924 553 926 560 c 1
 339 560 l 1
 300 373 260 187 220 1 c 1
 157 0 l 1
 94 0 l 1
 94 2 l 2
468 0 m 2
 448 2 413 2 379 2 c 0
 343 2 312 1 284 0 c 1
 284 1 286 11 289 24 c 2
 294 48 l 1
 306 48 l 2
 339 48 369 51 379 55 c 0
 384 57 384 58 445 134 c 2
 507 211 l 1
 438 448 l 1
 408 448 l 2
 385 448 377 448 377 449 c 0
 377 451 386 493 387 495 c 0
 387 496 390 496 401 496 c 0
 422 495 466 494 507 494 c 0
 549 494 595 495 622 496 c 0
 623 496 620 485 618 472 c 2
 613 448 l 1
 596 448 l 2
 587 448 579 448 579 447 c 0
 579 445 610 341 610 341 c 2
 611 341 629 363 650 390 c 0
 673 418 688 438 688 440 c 0
 688 443 665 448 654 448 c 2
 647 448 l 1
 647 451 l 2
 648 452 657 495 657 496 c 1
 682 496 719 494 753 494 c 0
 786 494 824 495 848 496 c 0
 849 496 847 485 844 472 c 2
 839 448 l 1
 812 448 l 2
 777 447 757 444 750 439 c 0
 747 438 628 289 626 286 c 2
 626 286 641 232 660 167 c 2
 694 48 l 1
 725 48 l 2
 754 48 756 48 756 46 c 0
 755 45 746 1 746 0 c 1
 745 0 734 1 721 1 c 0
 705 2 667 2 629 2 c 0
 591 2 552 2 536 1 c 0
 522 1 510 0 510 0 c 1
 510 1 518 42 520 46 c 0
 520 48 522 48 537 48 c 0
 550 48 554 48 554 49 c 2
 522 156 l 1
 511 156 444 58 444 58 c 2
 444 54 461 49 477 48 c 2
 486 48 l 1
 483 32 479 16 476 0 c 1
 468 0 l 2
EndSplineSet
EndChar

StartChar: u10147
Encoding: 65863 65863 5
Width: 1028
Flags: MW
HStem: 0 48<274 294 419 422 748 748 748 757> 448 48<383.5 462 399 414 804 804 804 852> 560 126<659 926>
VStem: 451 122<292 363 292 363> 592 127<48.5 49> 807 126<0.5 2 0 3>
LayerCount: 2
Fore
SplineSet
94 2 m 2
 95 3 239 683 240 684 c 0
 240 686 261 686 659 686 c 2
 1079 686 l 1
 1078 682 934 3 933 2 c 2
 933 0 l 1
 870 0 l 2
 835 0 807 0 807 1 c 0
 807 5 924 553 926 560 c 1
 339 560 l 1
 300 373 260 187 220 1 c 1
 157 0 l 1
 94 0 l 1
 94 2 l 2
417 0 m 2
 412 2 359 3 346 3 c 0
 331 3 283 2 276 0 c 0
 272 0 271 0 271 2 c 0
 271 3 273 13 276 26 c 2
 281 48 l 1
 294 48 l 2
 314 49 327 52 330 57 c 0
 331 58 350 146 372 253 c 2
 414 448 l 1
 390 448 l 2
 377 448 366 448 366 449 c 0
 366 450 375 492 376 494 c 0
 376 496 379 496 419 496 c 0
 505 496 429 490 516 490 c 0
 560 490 561 489 564 487 c 0
 570 483 570 481 571 465 c 0
 572 456 572 417 572 378 c 0
 572 338 573 299 573 292 c 2
 574 278 l 1
 616 377 l 2
 654 465 659 476 663 480 c 0
 669 487 676 490 683 490 c 0
 686 490 688 490 689 491 c 0
 689 492 691 493 693 494 c 0
 697 496 699 496 779 496 c 2
 862 496 l 1
 862 494 l 2
 861 490 852 449 852 448 c 1
 804 448 l 1
 761 249 l 2
 738 140 719 50 719 49 c 0
 719 48 725 48 743 48 c 2
 767 48 l 1
 764 32 760 16 757 0 c 1
 748 0 l 2
 727 2 688 2 648 2 c 0
 631 2 534 1 534 1 c 1
 534 1 536 11 539 24 c 2
 544 48 l 1
 568 48 l 2
 581 48 592 48 592 49 c 0
 663 388 664 382 664 389 c 1
 664 388 502 17 500 12 c 0
 494 4 485 0 472 0 c 0
 464 1 458 4 455 10 c 0
 454 13 453 18 453 135 c 0
 452 201 452 280 451 309 c 2
 451 363 l 1
 418 211 l 2
 400 127 386 58 386 57 c 0
 386 53 399 49 419 48 c 2
 432 48 l 1
 429 32 425 16 422 0 c 1
 417 0 l 2
EndSplineSet
EndChar

StartChar: uni03DB
Encoding: 987 987 6
Width: 628
Flags: W
HStem: 156 84 156 113<418 427 359 448.5> 340 115<549.5 559 476 598.5> 390 65
VStem: 132 37<270 287> 240 121<1.5 75> 295 64<155 156 136 161>
LayerCount: 2
Fore
SplineSet
289 -26 m 0x8c
 262 -26 240 -13 240 16 c 0x8c
 240 24 240 28 242 34 c 0
 246 50 295 150 295 160 c 0
 295 162 295 162 293 162 c 2
 292 162 l 2
 285 162 248 170 231 175 c 0
 185 188 153 211 139 239 c 0
 134 250 132 263 132 277 c 0
 132 297 137 319 147 339 c 0
 182 410 281 448 390 454 c 0
 397 454 448 455 504 455 c 0
 614 455 613 455 624 450 c 0
 639 442 647 428 647 410 c 0
 647 370 615 340 582 340 c 0xaa
 517 340 423 378 356 389 c 0
 347 390 331 390 316 390 c 0
 246 390 201 369 180 329 c 0
 173 316 169 299 169 284 c 0
 169 251 190 240 225 240 c 0x9a
 243 240 268 244 306 251 c 0
 385 266 405 269 431 269 c 0
 466 269 484 258 484 224 c 0
 484 187 456 163 427 156 c 1x4a
 359 156 l 1
 359 136 l 2x8a
 360 125 360 97 361 75 c 0
 361 30 361 27 355 14 c 0
 344 -9 321 -26 289 -26 c 0x8c
EndSplineSet
EndChar

StartChar: uni03DB.var
Encoding: 1114113 -1 7
Width: 694
Flags: W
HStem: -286 48<382 383> 0 48<251 368> 187 48<226.5 233> 206 144<409.5 428> 430 141
VStem: 117 49<291 321> 533 51<135 168.5> 719 49
LayerCount: 2
Fore
SplineSet
533 142 m 0xdf
 533 195 459 206 397 206 c 0xdf
 347 206 281 189 233 187 c 0
 220 187 212 187 206 188 c 0
 152 197 117 244 117 313 c 0
 117 329 120 346 125 365 c 0
 153 472 270 554 419 571 c 0
 426 571 446 573 463 573 c 0
 567 575 649 614 692 673 c 0
 705 689 713 707 719 728 c 0
 722 741 727 748 738 753 c 0
 753 756 768 748 768 732 c 0
 768 727 760 698 755 682 c 0
 727 604 673 531 608 486 c 0
 574 462 540 447 503 438 c 0
 475 431 472 431 412 430 c 0
 332 429 300 426 263 419 c 0
 206 407 166 383 166 316 c 0
 166 266 189 235 227 235 c 0xef
 261 235 287 263 313 289 c 0
 339 314 351 324 364 332 c 0
 384 345 398 350 421 350 c 0
 511 350 584 278 584 179 c 0
 584 87 547 49 478 21 c 0
 451 11 401 1 377 1 c 2
 371 1 l 1
 369 -13 359 -56 344 -125 c 2
 320 -237 l 1
 382 -238 l 1
 444 -238 l 1
 452 -246 459 -250 458 -264 c 0
 456 -273 449 -282 440 -285 c 0
 437 -286 401 -286 365 -286 c 0
 329 -286 293 -286 289 -285 c 0
 279 -281 268 -271 268 -258 c 0
 268 -245 322 -6 322 0 c 1
 251 0 l 2
 175 0 177 0 172 5 c 0
 171 7 170 9 170 11 c 0
 170 19 194 132 196 137 c 0
 199 142 204 143 213 143 c 0
 247 140 271 117 292 90 c 0
 311 67 319 59 330 54 c 0
 342 48 347 48 368 48 c 0
 443 51 496 70 520 104 c 0
 527 114 533 128 533 142 c 0xdf
EndSplineSet
EndChar

StartChar: uni1FBE
Encoding: 8126 8126 8
Width: 294
Flags: MW
HStem: -155 47<193 201 201 203> 108 48<91.5 111>
VStem: 80 89<-107.5 -107>
LayerCount: 2
Fore
SplineSet
80 -107 m 0
 118 74 125 102 125 107 c 0
 125 108 120 108 102 108 c 0
 89 108 78 108 78 109 c 0
 78 110 87 152 88 154 c 0
 88 156 89 156 94 156 c 0
 102 153 163 153 180 153 c 0
 198 153 257 154 267 156 c 2
 273 156 l 1
 270 140 266 124 263 108 c 1
 215 108 l 1
 192 2 l 2
 180 -56 169 -105 169 -106 c 2
 169 -108 l 1
 192 -108 l 2
 214 -108 216 -108 216 -110 c 0
 216 -111 214 -121 211 -133 c 2
 206 -155 l 1
 201 -155 l 2
 185 -155 134 -153 111 -153 c 0
 81 -153 48 -155 22 -156 c 1
 22 -155 24 -145 27 -132 c 2
 32 -108 l 1
 56 -108 l 2
 69 -108 80 -108 80 -107 c 0
EndSplineSet
EndChar

StartChar: uni1FBC
Encoding: 8124 8124 9
Width: 1194
Flags: MW
HStem: -155 47<1067 1075 1075 1077> 1 47<294 300 300 307 852.5 859> 108 48<965.5 985> 195 48<472 594 472 605> 678 20G<603.5 623.5>
VStem: 954 89<-107.5 -107>
LayerCount: 2
Fore
SplineSet
170 3 m 0
 130 3 91 0 57 0 c 1
 57 1 65 41 67 46 c 0
 67 47 71 48 95 48 c 0
 134 49 159 52 168 56 c 0
 176 61 572 679 578 685 c 0
 588 697 593 698 614 698 c 0
 633 698 641 696 646 684 c 0
 647 682 679 538 718 364 c 2
 787 48 l 1
 836 48 l 2
 882 48 885 48 885 46 c 0
 885 45 883 35 880 23 c 2
 875 1 l 1
 867 1 l 2
 838 1 747 3 705 3 c 0
 652 3 585 0 534 0 c 1
 534 1 542 38 544 46 c 2
 544 48 l 1
 591 48 l 1
 638 49 l 1
 627 97 616 146 605 195 c 1
 319 195 l 1
 275 127 l 2
 251 90 231 59 231 58 c 0
 235 50 281 48 307 48 c 0
 314 48 317 48 317 47 c 0
 317 46 315 35 312 23 c 2
 307 1 l 1
 300 1 l 2
 279 1 201 3 170 3 c 0
594 243 m 1
 594 249 594 244 532 524 c 1
 532 524 491 461 441 384 c 2
 350 244 l 1
 472 243 l 1
 594 243 l 1
954 -107 m 0
 992 74 999 102 999 107 c 0
 999 108 994 108 976 108 c 0
 963 108 952 108 952 109 c 0
 952 110 961 152 962 154 c 0
 962 156 963 156 968 156 c 0
 976 153 1037 153 1054 153 c 0
 1072 153 1131 154 1141 156 c 2
 1147 156 l 1
 1144 140 1140 124 1137 108 c 1
 1089 108 l 1
 1066 2 l 2
 1054 -56 1043 -105 1043 -106 c 2
 1043 -108 l 1
 1066 -108 l 2
 1088 -108 1090 -108 1090 -110 c 0
 1090 -111 1088 -121 1085 -133 c 2
 1080 -155 l 1
 1075 -155 l 2
 1059 -155 1008 -153 985 -153 c 0
 955 -153 922 -155 896 -156 c 1
 896 -155 898 -145 901 -132 c 2
 906 -108 l 1
 930 -108 l 2
 943 -108 954 -108 954 -107 c 0
EndSplineSet
EndChar

StartChar: uni1FCC
Encoding: 8140 8140 10
Width: 1206
Flags: W
HStem: -155 47<1092 1100 1100 1102> 1 47<393 395 880 882> 108 48<990.5 1010> 333 48<380 734> 638 48<211.5 248 211.5 301 535.5 553 1024 1040>
VStem: 176 144<48.5 49> 301 144<636 638 636 638> 663 144<48.5 49.5 48.5 51 48.5 51> 788 144<636 638 636 638> 979 89<-107.5 -107>
LayerCount: 2
Fore
SplineSet
176 49 m 0xfd40
 295 610 301 633 301 638 c 1
 248 638 l 2
 203 638 194 638 194 639 c 0
 194 641 203 683 204 685 c 0
 204 686 206 686 217 686 c 0
 248 684 312 684 377 684 c 0
 445 684 508 686 563 686 c 1
 561 679 554 646 553 638 c 1
 445 638 l 1
 445 636 l 2
 443 629 391 384 391 382 c 0
 391 381 416 381 562 381 c 2
 734 381 l 1
 760 507 l 2
 775 577 787 635 788 636 c 2
 788 638 l 1
 735 638 l 2
 684 638 681 638 681 640 c 0
 681 641 683 651 686 664 c 2
 691 686 l 1
 699 685 l 2
 729 685 833 683 878 683 c 0
 935 683 998 686 1050 686 c 1
 1048 679 1041 646 1040 638 c 1
 932 638 l 1
 932 636 l 2xfac0
 930 631 807 50 807 49 c 0
 807 48 830 48 861 48 c 0
 903 48 914 48 914 47 c 0
 914 46 912 35 909 23 c 2
 904 1 l 1
 895 1 l 2
 865 1 762 3 718 3 c 0
 661 3 597 0 545 0 c 1
 545 1 552 33 555 46 c 2
 555 48 l 1
 663 48 l 1
 663 51 l 2
 664 52 688 168 723 332 c 0
 723 333 646 333 552 333 c 2
 380 333 l 1
 380 327 320 49 320 49 c 2
 320 48 343 48 374 48 c 0
 416 48 427 48 427 47 c 0
 427 46 425 35 422 23 c 2
 417 1 l 1
 408 1 l 2
 378 1 275 3 231 3 c 0
 174 3 110 0 58 0 c 1
 58 1 65 33 68 46 c 2
 68 48 l 1
 122 48 l 2
 152 48 176 48 176 49 c 0xfd40
979 -107 m 0
 1017 74 1024 102 1024 107 c 0
 1024 108 1019 108 1001 108 c 0
 988 108 977 108 977 109 c 0
 977 110 986 152 987 154 c 0
 987 156 988 156 993 156 c 0
 1001 153 1062 153 1079 153 c 0
 1097 153 1156 154 1166 156 c 2
 1172 156 l 1
 1169 140 1165 124 1162 108 c 1
 1114 108 l 1
 1091 2 l 2
 1079 -56 1068 -105 1068 -106 c 2
 1068 -108 l 1
 1091 -108 l 2
 1113 -108 1115 -108 1115 -110 c 0
 1115 -111 1113 -121 1110 -133 c 2
 1105 -155 l 1
 1100 -155 l 2
 1084 -155 1033 -153 1010 -153 c 0
 980 -153 947 -155 921 -156 c 1
 921 -155 923 -145 926 -132 c 2
 931 -108 l 1
 955 -108 l 2
 968 -108 979 -108 979 -107 c 0
EndSplineSet
EndChar

StartChar: uni1FFC
Encoding: 8188 8188 11
Width: 1168
Flags: W
HStem: -155 47<1041 1049 1049 1051> 0 104<258 303 258 326 655 683> 108 48<939.5 959> 660 37<521.5 626.5>
VStem: 104 244<0 128 16 128> 110 48<193 201 145 201> 174 150<408.5 421> 762 151<503 515.5 489.5 535.5> 928 89<-107.5 -107>
LayerCount: 2
Fore
SplineSet
104 16 m 2xf980
 105 28 108 181 110 193 c 2
 110 201 l 1
 158 201 l 1
 158 167 l 2
 158 123 159 116 168 111 c 0
 179 106 198 104 258 104 c 2
 303 104 l 1
 284 161 284 161 242 231 c 0
 203 296 190 324 180 362 c 0
 175 383 174 396 174 421 c 0
 177 481 195 520 227 559 c 0
 236 571 260 595 273 605 c 0
 349 665 456 697 587 697 c 0
 710 697 806 671 863 614 c 0
 896 581 913 538 913 493 c 0
 913 486 913 478 912 470 c 0
 906 426 886 382 852 336 c 0
 832 310 817 294 748 225 c 0
 708 185 674 151 667 142 c 0
 655 128 638 106 638 105 c 0
 638 104 648 104 662 104 c 0
 715 104 751 103 775 112 c 0
 783 116 793 134 810 175 c 0
 815 187 819 198 820 199 c 0
 821 201 821 201 845 201 c 2
 869 201 l 1
 842 134 816 68 789 1 c 1
 683 0 l 2
 611 0 575 0 573 1 c 0
 565 3 560 10 560 18 c 0
 560 27 572 69 583 96 c 0
 599 135 616 169 661 249 c 0
 707 330 723 362 739 404 c 0
 754 446 762 486 762 520 c 0
 762 551 756 577 743 596 c 0
 716 637 664 660 589 660 c 0
 415 660 324 544 324 369 c 0xf780
 324 337 327 309 336 247 c 0
 348 160 348 152 348 104 c 0
 348 61 346 10 331 2 c 2
 326 0 l 1
 104 0 l 1
 104 16 l 2xf980
928 -107 m 0
 966 74 973 102 973 107 c 0
 973 108 968 108 950 108 c 0
 937 108 926 108 926 109 c 0
 926 110 935 152 936 154 c 0
 936 156 937 156 942 156 c 0
 950 153 1011 153 1028 153 c 0
 1046 153 1105 154 1115 156 c 2
 1121 156 l 1
 1118 140 1114 124 1111 108 c 1
 1063 108 l 1
 1040 2 l 2
 1028 -56 1017 -105 1017 -106 c 2
 1017 -108 l 1
 1040 -108 l 2
 1062 -108 1064 -108 1064 -110 c 0
 1064 -111 1062 -121 1059 -133 c 2
 1054 -155 l 1
 1049 -155 l 2
 1033 -155 982 -153 959 -153 c 0
 929 -153 896 -155 870 -156 c 1
 870 -155 872 -145 875 -132 c 2
 880 -108 l 1
 904 -108 l 2
 917 -108 928 -108 928 -107 c 0
EndSplineSet
EndChar

StartChar: uni0391.alt
Encoding: 1114114 -1 12
Width: 933
Flags: MW
HStem: 1 47<294 300 300 307 852.5 859> 195 48<472 594 472 605> 678 20G<603.5 623.5>
LayerCount: 2
Fore
SplineSet
170 3 m 0
 130 3 91 0 57 0 c 1
 57 1 65 41 67 46 c 0
 67 47 71 48 95 48 c 0
 134 49 159 52 168 56 c 0
 176 61 572 679 578 685 c 0
 588 697 593 698 614 698 c 0
 633 698 641 696 646 684 c 0
 647 682 679 538 718 364 c 2
 787 48 l 1
 836 48 l 2
 882 48 885 48 885 46 c 0
 885 45 883 35 880 23 c 2
 875 1 l 1
 867 1 l 2
 838 1 747 3 705 3 c 0
 652 3 585 0 534 0 c 1
 534 1 542 38 544 46 c 2
 544 48 l 1
 591 48 l 1
 638 49 l 1
 627 97 616 146 605 195 c 1
 319 195 l 1
 275 127 l 2
 251 90 231 59 231 58 c 0
 235 50 281 48 307 48 c 0
 314 48 317 48 317 47 c 0
 317 46 315 35 312 23 c 2
 307 1 l 1
 300 1 l 2
 279 1 201 3 170 3 c 0
594 243 m 1
 594 249 594 244 532 524 c 1
 532 524 491 461 441 384 c 2
 350 244 l 1
 472 243 l 1
 594 243 l 1
EndSplineSet
EndChar

StartChar: uni03AB.alt
Encoding: 1114115 -1 13
Width: 794
Flags: W
HStem: 3 45 581 115<156 214 677 707> 730 157<300 366>
VStem: 31 53 252 144<48.5 49> 255 159<797.5 820> 322 90<401 476> 555 159<797.5 820> 775 57<563 566.5>
LayerCount: 2
Fore
SplineSet
321 730 m 0xf580
 279 730 255 762 255 796 c 0
 255 844 293 877 332 886 c 0
 336 887 340 887 345 887 c 0
 387 887 414 863 414 821 c 0
 414 774 380 743 344 733 c 0
 337 731 329 730 321 730 c 0xf580
621 730 m 0
 579 730 555 762 555 796 c 0
 555 844 593 877 632 886 c 0
 636 887 640 887 645 887 c 0
 687 887 714 863 714 821 c 0
 714 774 680 743 644 733 c 0
 637 731 629 730 621 730 c 0
54 531 m 0
 37 531 31 533 31 544 c 0
 31 548 32 554 35 563 c 0
 56 629 118 685 201 696 c 1
 214 696 l 2
 276 696 311 682 345 648 c 0
 384 609 407 550 412 476 c 1
 412 465 l 1xf380
 420 481 l 2
 466 572 528 638 598 672 c 0
 631 688 654 696 700 696 c 0
 772 696 818 657 830 601 c 0
 831 595 832 587 832 579 c 0
 832 547 828 531 798 531 c 0
 780 531 775 532 775 551 c 0
 775 582 731 581 683 581 c 0
 658 581 646 579 628 573 c 0
 576 556 528 510 494 444 c 0
 480 417 468 386 462 358 c 0
 459 346 400 71 396 51 c 1
 396 48 l 1
 463 48 l 2
 516 48 530 48 530 47 c 0
 530 46 528 35 525 23 c 2
 520 1 l 1
 510 1 l 2
 475 1 356 3 305 3 c 0
 240 3 167 0 107 0 c 1
 107 1 114 35 117 46 c 2
 117 48 l 1
 185 48 l 2
 222 48 252 48 252 49 c 2xf980
 252 49 313 336 316 347 c 0
 320 368 322 387 322 415 c 0xf380
 322 505 286 568 219 580 c 0
 213 581 195 581 178 581 c 0
 134 581 93 578 84 548 c 0
 83 542 77 535 72 533 c 0
 68 531 65 531 54 531 c 0
EndSplineSet
EndChar

StartChar: uni03B1.alt
Encoding: 1114116 -1 14
Width: 655
Flags: MW
HStem: -5 98<238 276> 351 99<351 353 353 361.5>
VStem: 104 51<147 164> 637 50
LayerCount: 2
Fore
SplineSet
264 -5 m 0
 162 -5 104 55 104 157 c 0
 104 171 105 188 107 199 c 0
 125 325 198 417 299 443 c 0
 316 447 329 450 351 450 c 2
 353 450 l 2
 413 450 455 414 479 345 c 0
 484 330 493 296 493 292 c 0
 493 290 493 290 494 291 c 0
 498 295 541 365 577 426 c 0
 586 442 589 447 592 448 c 0
 595 450 599 450 642 450 c 0
 693 450 693 450 697 444 c 0
 699 442 699 439 699 436 c 0
 699 432 698 428 682 401 c 0
 612 282 567 213 523 158 c 2
 520 154 l 1
 534 123 549 93 592 93 c 0
 611 93 630 99 637 106 c 0
 646 119 642 126 666 126 c 0
 688 126 693 122 687 100 c 0
 674 49 637 8 597 -3 c 0
 591 -5 584 -6 576 -6 c 0
 516 -6 490 49 476 104 c 1
 462 91 l 2
 415 45 367 15 321 2 c 0
 298 -4 288 -5 264 -5 c 0
155 182 m 0
 155 112 203 93 273 93 c 0
 280 93 287 93 292 94 c 0
 336 102 385 141 442 216 c 0
 448 224 453 231 453 232 c 0
 453 246 442 270 436 285 c 0
 415 326 386 351 337 351 c 0
 290 351 247 342 219 321 c 0
 182 293 155 243 155 182 c 0
EndSplineSet
EndChar

StartChar: uni03CB.alt
Encoding: 1114117 -1 15
Width: 528
Flags: W
HStem: -6 52<195.5 204.5 170 297.5> 538 156<415 481 437 443>
VStem: 44 121<397 421.5> 56 47<114 142 142 150 114 179.5> 96 160<604.5 626> 370 159<609.5 628.5> 444 39 476 68<304.5 307 236 335>
LayerCount: 2
Fore
SplineSet
163 537 m 0xc8
 125 537 96 566 96 603 c 0
 96 649 132 683 173 692 c 0
 219 702 248 673 255 641 c 0
 256 637 256 633 256 629 c 0
 256 580 211 537 163 537 c 0xc8
436 538 m 2
 394 538 370 564 370 604 c 0
 370 653 412 694 462 694 c 0
 500 694 529 667 529 629 c 0xc4
 529 590 503 561 476 547 c 0xc1
 462 540 455 538 443 538 c 2
 436 538 l 2
44 404 m 0xe0
 44 439 80 467 120 467 c 0
 150 467 165 446 165 418 c 0xe0
 165 374 135 273 119 226 c 0
 106 189 103 175 103 150 c 2
 103 142 l 2
 103 86 143 46 197 46 c 0
 212 46 228 49 244 54 c 0
 297 71 353 113 402 170 c 0
 454 231 476 279 476 330 c 0xd1
 476 340 474 353 474 360 c 0
 470 379 461 398 451 413 c 0
 445 421 445 422 444 428 c 0
 444 442 453 454 470 454 c 0
 478 454 479 453 483 451 c 0xc2
 491 445 510 416 521 394 c 0
 535 363 544 330 544 284 c 0
 544 188 507 121 457 73 c 0
 411 27 341 -6 254 -6 c 0
 137 -6 56 55 56 169 c 0xd1
 56 190 57 201 61 223 c 0
 67 251 67 260 67 286 c 0
 67 319 64 341 54 368 c 0
 50 380 44 390 44 404 c 0xe0
EndSplineSet
EndChar

StartChar: uni02CF
Encoding: 719 719 16
Width: 194
Flags: MW
HStem: -255 254
VStem: -38 196
LayerCount: 2
Fore
SplineSet
-38 -225 m 0
 -22 -203 115 -48 158 -1 c 1
 158 -97 l 1
 75 -175 l 2
 14 -232 -9 -253 -13 -255 c 0
 -28 -260 -41 -250 -41 -237 c 0
 -41 -233 -40 -229 -38 -225 c 0
EndSplineSet
EndChar

StartChar: uni02CE
Encoding: 718 718 17
Width: 261
Flags: MW
HStem: -256 256<-7 180.5>
VStem: -7 212<-236.5 0>
LayerCount: 2
Fore
SplineSet
205 -228 m 0
 205 -245 187 -256 174 -256 c 0
 171 -256 168 -255 165 -254 c 0
 162 -252 127 -221 77 -174 c 2
 -7 -97 l 1
 -7 0 l 1
 -2 -5 41 -50 101 -112 c 0
 194 -209 205 -221 205 -228 c 0
EndSplineSet
EndChar

StartChar: uni03DF
Encoding: 991 991 18
Width: 494
Flags: W
VStem: 207 94 291 107
LayerCount: 2
Fore
SplineSet
425 236 m 0x40
 183 208 304 221 123 199 c 1
 123 199 199 568 207 585 c 0
 217 606 240 622 270 618 c 0
 289 615 301 604 301 581 c 0x80
 301 569 298 555 289 527 c 0
 278 493 269 473 233 400 c 0
 199 331 190 310 179 277 c 0
 173 260 167 237 168 237 c 2
 169 237 l 2
 174 237 463 272 469 272 c 2
 470 272 l 1
 470 272 434 102 398 -66 c 0
 389 -112 387 -116 375 -128 c 0
 363 -140 348 -147 333 -147 c 0
 307 -147 291 -130 291 -108 c 0
 291 -90 302 -59 313 -29 c 0
 323 -5 330 10 357 65 c 0
 392 136 405 166 415 196 c 0
 420 212 426 235 425 236 c 0x40
EndSplineSet
EndChar

StartChar: uni03D9
Encoding: 985 985 19
Width: 628
Flags: MW
HStem: 581 65<412 474.5>
VStem: 152 90<341 353> 561 89<467 484>
LayerCount: 2
Fore
SplineSet
273 -100 m 0
 235 -100 207 -78 207 -43 c 0
 207 -36 208 -28 209 -23 c 2
 209 -23 285 186 284 186 c 0
 265 192 240 200 221 212 c 0
 176 242 152 290 152 349 c 0
 152 357 152 365 153 374 c 0
 163 451 202 522 264 571 c 0
 313 611 371 636 433 645 c 0
 438 645 451 646 465 646 c 0
 484 646 506 645 512 644 c 0
 583 630 633 588 648 517 c 0
 650 508 650 504 650 481 c 0
 650 453 649 444 643 418 c 0
 618 318 538 237 432 198 c 0
 426 197 426 197 426 193 c 0
 424 188 415 13 415 11 c 0
 409 -44 342 -100 273 -100 c 0
561 443 m 0
 561 525 517 565 447 579 c 0
 440 580 428 581 416 581 c 0
 408 581 400 580 395 580 c 0
 310 567 242 492 242 383 c 0
 242 299 294 255 373 248 c 0
 377 248 382 247 386 247 c 0
 411 247 437 254 461 265 c 0
 512 290 548 344 560 415 c 0
 561 422 561 432 561 443 c 0
EndSplineSet
EndChar

StartChar: uni0020032E
Encoding: 1114118 -1 20
Width: 428
Flags: MW
HStem: -233 64<137 186.5 137 216>
VStem: -1 33
LayerCount: 2
Fore
SplineSet
15 -41 m 0
 26 -35 30 -37 32 -53 c 0
 43 -121 96 -169 178 -169 c 0
 195 -169 201 -169 210 -167 c 0
 280 -155 341 -108 373 -52 c 0
 380 -40 382 -38 388 -38 c 0
 399 -38 405 -54 399 -67 c 0
 369 -153 268 -233 164 -233 c 0
 69 -233 -1 -165 -1 -73 c 0
 -1 -58 5 -46 15 -41 c 0
EndSplineSet
EndChar

StartChar: uni03D8
Encoding: 984 984 21
Width: 628
Flags: W
HStem: -3 47<471.5 477> 643 49<445 477>
VStem: 152 138<439 469> 251 144<44.5 46 44.5 46 44.5 46> 540 139<500 533.5 497.5 563.5>
LayerCount: 2
Fore
SplineSet
251 46 m 1xd8
 251 46 298 265 298 267 c 2
 300 273 l 1
 220 296 166 345 153 417 c 0
 152 423 152 434 152 444 c 0xe8
 152 494 166 526 189 561 c 0
 236 631 324 680 421 691 c 0
 428 691 439 692 451 692 c 0
 534 692 589 668 631 626 c 0
 663 594 679 555 679 512 c 0
 679 483 672 453 657 423 c 0
 623 353 544 296 453 274 c 0
 448 273 444 272 444 272 c 2
 443 272 395 47 395 45 c 0
 395 44 420 44 451 44 c 0
 503 44 506 44 506 42 c 0
 506 41 504 31 501 19 c 2
 496 -3 l 1
 487 -3 l 2
 456 -3 350 -1 305 -1 c 0
 247 -1 182 -4 129 -4 c 1
 131 3 138 36 139 44 c 1
 251 44 l 1
 251 46 l 1xd8
540 528 m 0
 540 599 510 643 444 643 c 0
 360 643 290 529 290 430 c 0
 290 367 318 313 379 313 c 0
 428 313 462 342 489 375 c 0
 521 418 540 472 540 528 c 0
EndSplineSet
EndChar

StartChar: uni03DA.var
Encoding: 1114119 -1 22
Width: 961
Flags: MW
HStem: 1 47 627 48<480 645 779 779>
VStem: 121 138<259.5 272> 753 10 947 48<433 436 436 436>
LayerCount: 2
Fore
SplineSet
947 436 m 2
 950 452 955 499 955 522 c 0
 955 580 938 606 891 620 c 0
 872 626 865 626 820 626 c 2
 779 627 l 1
 717 339 l 2
 684 180 656 50 656 49 c 0
 656 48 667 48 710 48 c 0
 744 48 763 48 763 47 c 0
 763 46 754 4 753 2 c 0
 753 0 743 0 558 0 c 0
 432 0 358 0 351 1 c 0
 228 12 145 98 126 209 c 0
 122 231 121 247 121 272 c 0
 122 297 123 310 128 334 c 0
 159 489 287 626 438 664 c 0
 458 670 471 672 499 674 c 0
 501 675 535 675 574 675 c 2
 645 675 l 1
 645 671 l 1
 644 667 l 1
 658 676 632 675 841 675 c 0
 1023 675 1025 675 1025 673 c 0
 1025 671 997 444 995 437 c 2
 995 433 l 1
 947 433 l 1
 947 436 l 2
617 553 m 0
 614 599 565 627 510 627 c 0
 450 627 395 588 363 546 c 0
 309 478 259 343 259 227 c 0
 259 129 292 48 387 48 c 0
 455 48 513 85 529 130 c 0
 529 135 617 527 617 553 c 0
EndSplineSet
EndChar

StartChar: uni03E0
Encoding: 992 992 23
Width: 948
Flags: MW
HStem: 0 48<93 106 93 106 559 575.5 875 887 875 875>
VStem: 101 94<0.5 41>
LayerCount: 2
Fore
SplineSet
351 482 m 2
 351 486 303 558 303 561 c 2
 303 561 328 690 330 692 c 0
 333 701 343 706 355 702 c 0
 358 700 360 698 369 685 c 0
 374 676 471 530 583 359 c 2
 788 48 l 1
 897 48 l 1
 894 32 890 16 887 0 c 1
 875 0 l 2
 846 2 789 2 728 2 c 0
 665 2 602 0 549 0 c 1
 549 1 556 35 559 46 c 2
 559 48 l 1
 598 48 l 2
 620 48 637 48 637 49 c 2
 539 196 l 1
 538 195 430 2 430 2 c 2
 429 0 428 0 425 0 c 0
 423 1 412 2 400 2 c 0
 392 2 386 3 379 3 c 0
 372 3 365 2 357 2 c 0
 344 2 333 1 331 0 c 0
 327 0 327 0 328 2 c 2
 328 14 l 2
 328 26 333 33 336 42 c 0
 337 47 337 48 340 48 c 0
 342 48 350 63 410 169 c 0
 447 235 477 290 477 291 c 0
 477 292 414 389 413 389 c 2
 413 389 195 2 195 1 c 0
 195 0 194 0 191 0 c 0
 182 1 161 2 142 2 c 2
 123 2 l 2
 110 2 99 1 97 0 c 2
 93 0 l 1
 96 11 91 18 97 29 c 0
 99 33 101 38 101 41 c 0
 103 47 103 48 105 48 c 0
 107 48 124 78 229 265 c 0
 296 384 351 482 351 482 c 2
EndSplineSet
EndChar

StartChar: Euro
Encoding: 8364 8364 24
Width: 961
Flags: MW
HStem: 0 116<550.5 594> 239 77<132 283 195 282 405 550 405 405> 370 77<154 325 231 294> 571 114<677 701.5>
LayerCount: 2
Fore
SplineSet
677 685 m 0
 679 686 693 686 706 685 c 0
 735 685 749 683 775 677 c 0
 826 664 866 641 902 605 c 0
 915 591 916 588 914 581 c 0
 912 575 861 496 858 493 c 0
 849 487 840 494 835 501 c 0
 823 516 805 532 790 542 c 0
 758 561 721 571 682 571 c 0
 623 571 561 549 508 506 c 0
 494 495 471 471 460 458 c 2
 452 448 l 1
 631 447 l 2
 797 447 810 446 812 445 c 0
 816 442 818 438 818 433 c 0
 818 429 816 426 801 401 c 0
 787 380 782 373 780 372 c 0
 777 370 766 370 593 370 c 2
 410 370 l 1
 407 359 l 2
 403 347 400 332 399 323 c 2
 399 316 l 1
 725 316 l 1
 733 312 739 305 733 295 c 0
 728 285 700 243 698 242 c 2
 695 240 l 1
 550 239 l 1
 405 239 l 1
 415 210 427 187 447 166 c 0
 480 135 520 116 581 116 c 0
 609 116 632 118 660 125 c 0
 706 136 757 160 797 189 c 0
 812 199 814 200 821 198 c 0
 825 196 829 192 829 188 c 0
 829 181 812 98 810 92 c 0
 807 84 759 54 728 39 c 0
 675 14 629 0 559 0 c 0
 502 0 466 10 428 30 c 0
 352 65 296 137 283 234 c 1
 282 239 l 1
 180 239 l 2
 84 239 78 239 75 241 c 0
 70 243 68 248 68 254 c 0
 69 258 71 263 86 285 c 0
 95 300 104 312 105 314 c 0
 107 315 110 316 195 316 c 2
 283 316 l 1
 285 330 l 2
 286 337 289 349 290 356 c 2
 294 370 l 1
 200 370 l 2
 108 370 105 370 102 372 c 0
 98 375 96 379 96 385 c 0
 96 389 99 393 114 416 c 0
 127 438 131 443 134 445 c 0
 138 447 139 447 231 447 c 2
 325 447 l 1
 330 458 l 1
 368 526 425 584 495 626 c 0
 551 660 610 680 677 685 c 0
EndSplineSet
EndChar

StartChar: perthousand
Encoding: 8240 8240 25
Width: 1427
Flags: MW
HStem: -56 38<768.5 786 1167.5 1185> 310 37<865 865.5 1264 1264.5> 348 37<321.5 339> 601 33<674 725> 712 38<416.5 418.5>
VStem: 193 98<435.5 505> 488 48<601 610 599 615> 640 98<32.5 103> 934 49<198 212> 1039 98<32.5 103> 1334 48<198 212>
LayerCount: 2
Fore
SplineSet
706 601 m 0
 642 601 582 619 533 646 c 1
 533 646 536 615 536 605 c 0
 536 593 535 580 534 572 c 0
 520 473 455 368 360 349 c 0
 354 348 344 348 334 348 c 0
 281 348 245 370 223 402 c 0
 203 429 193 457 193 500 c 0
 193 510 194 521 194 527 c 0
 208 637 297 735 398 748 c 0
 405 749 413 750 420 750 c 0
 461 750 493 732 514 697 c 0
 517 692 519 689 527 684 c 0
 572 652 624 634 695 634 c 0
 765 634 834 656 898 698 c 0
 908 705 914 710 930 726 c 0
 953 748 955 749 968 749 c 0
 987 749 998 735 998 719 c 0
 998 717 999 716 999 714 c 0
 999 705 969 676 609 325 c 0
 286 10 224 -50 219 -53 c 0
 214 -55 212 -55 206 -55 c 0
 186 -55 175 -41 175 -25 c 0
 175 -10 179 -9 190 4 c 0
 191 5 822 619 822 620 c 0
 822 621 818 619 812 618 c 0
 775 606 744 601 706 601 c 0
291 460 m 0
 291 411 299 385 344 385 c 0
 377 385 400 401 418 419 c 0
 451 452 476 509 486 572 c 0
 487 580 488 594 488 608 c 0
 488 622 487 635 486 641 c 0
 478 680 460 703 433 711 c 0
 429 712 422 712 415 712 c 0
 408 712 402 712 398 711 c 0
 394 711 386 708 382 705 c 0
 345 687 320 637 300 541 c 0
 292 502 291 489 291 460 c 0
869 347 m 0
 944 347 983 283 983 203 c 0
 983 160 971 113 950 70 c 0
 915 3 864 -42 807 -54 c 0
 801 -55 791 -56 781 -56 c 0
 728 -56 692 -33 670 -1 c 0
 650 26 640 55 640 98 c 0
 640 108 641 118 641 124 c 0
 655 234 744 332 845 345 c 0
 852 346 861 347 869 347 c 0
738 57 m 0
 738 8 746 -18 791 -18 c 0
 824 -18 847 -2 865 16 c 0
 898 49 923 106 933 169 c 0
 934 177 934 191 934 205 c 0
 934 219 934 232 933 238 c 0
 925 277 907 300 880 308 c 0
 876 309 869 310 862 310 c 0
 855 310 849 309 845 308 c 0
 841 308 833 305 829 302 c 0
 792 284 767 234 747 138 c 0
 739 99 738 86 738 57 c 0
1268 347 m 0
 1343 347 1382 283 1382 203 c 0
 1382 160 1370 113 1349 70 c 0
 1314 3 1263 -42 1206 -54 c 0
 1200 -55 1190 -56 1180 -56 c 0
 1127 -56 1091 -33 1069 -1 c 0
 1049 26 1039 55 1039 98 c 0
 1039 108 1040 118 1040 124 c 0
 1054 234 1143 332 1244 345 c 0
 1251 346 1260 347 1268 347 c 0
1137 57 m 0
 1137 8 1145 -18 1190 -18 c 0
 1223 -18 1246 -2 1264 16 c 0
 1297 49 1322 106 1332 169 c 0
 1333 177 1334 191 1334 205 c 0
 1334 219 1333 232 1332 238 c 0
 1324 277 1306 300 1279 308 c 0
 1275 309 1268 310 1261 310 c 0
 1254 310 1248 309 1244 308 c 0
 1240 308 1232 305 1228 302 c 0
 1191 284 1166 234 1146 138 c 0
 1138 99 1137 86 1137 57 c 0
EndSplineSet
EndChar

StartChar: uni0259
Encoding: 601 601 26
Width: 575
Flags: MW
HStem: -5 38<241.5 280.5 241.5 315.5> 196 34<198 313> 413 40<316.5 347.5 289.5 361>
VStem: 87 93<139.5 141 100.5 164.5> 456 124<294 319 230 321.5>
LayerCount: 2
Fore
SplineSet
142 313 m 0
 126 313 119 317 119 331 c 0
 119 336 119 338 123 344 c 0
 162 408 241 453 338 453 c 0
 357 453 383 453 394 452 c 0
 512 437 580 370 580 268 c 0
 580 192 539 109 477 61 c 0
 427 21 358 -5 273 -5 c 0
 171 -5 107 31 89 113 c 0
 87 125 87 127 87 152 c 0
 87 177 87 218 102 228 c 0
 105 229 120 230 276 230 c 2
 447 231 l 1
 450 242 l 2
 455 271 456 283 456 305 c 0
 456 338 453 349 442 367 c 0
 422 397 385 413 337 413 c 0
 296 413 251 401 217 378 c 0
 196 364 182 350 168 329 c 0
 158 314 156 313 142 313 c 0
180 135 m 0
 180 66 207 33 276 33 c 0
 285 33 293 33 300 34 c 0
 368 48 419 104 436 183 c 1
 440 196 l 1
 313 196 l 2
 243 196 186 196 186 195 c 1
 181 195 180 147 180 135 c 0
EndSplineSet
EndChar

StartChar: uni03E1
Encoding: 993 993 27
Width: 894
Flags: W
HStem: -11 21G<757 784> 595 99<245 279>
VStem: 162 117 413 117 735 117<148 176.5>
LayerCount: 2
Fore
SplineSet
209 179 m 0
 181 179 162 195 162 222 c 0
 162 235 170 263 179 282 c 0
 196 318 224 345 265 365 c 0
 299 382 333 392 405 407 c 0
 492 424 511 428 540 436 c 0
 561 443 596 457 602 461 c 0
 604 462 603 464 594 471 c 0
 505 549 389 591 257 595 c 0
 233 595 225 596 218 600 c 0
 206 606 201 614 201 634 c 0
 201 667 224 687 247 693 c 0
 252 694 259 694 279 694 c 0
 586 687 852 492 852 174 c 0
 852 122 844 52 833 30 c 0
 824 8 799 -11 769 -11 c 0
 745 -11 722 4 722 30 c 0
 722 37 724 46 727 63 c 0
 732 93 735 115 735 153 c 0
 735 200 731 233 720 270 c 2
 717 282 l 1
 714 281 l 2
 713 280 699 274 684 266 c 0
 626 237 598 219 572 193 c 0
 549 170 537 150 530 121 c 0
 521 86 502 65 462 61 c 0
 430 61 416 74 413 102 c 0
 413 113 414 121 419 135 c 0
 447 220 534 254 639 291 c 0
 685 308 703 315 703 317 c 0
 703 321 691 346 681 365 c 0
 667 388 644 421 627 438 c 1
 614 432 l 2
 587 419 560 410 493 392 c 0
 382 361 303 334 279 239 c 0
 272 205 246 179 209 179 c 0
EndSplineSet
EndChar

StartChar: quoteleft
Encoding: 8216 8216 28
Width: 361
Flags: MW
HStem: 344 156<231.5 303.5>
VStem: 181 44<408.5 481>
LayerCount: 2
Fore
SplineSet
258 344 m 0
 205 344 181 382 181 435 c 0
 181 456 185 477 194 504 c 0
 212 557 248 612 291 650 c 0
 310 666 340 688 349 693 c 0
 360 698 374 684 374 672 c 0
 373 666 370 664 361 658 c 0
 343 647 325 632 306 613 c 0
 296 603 284 590 279 585 c 0
 262 562 246 535 236 511 c 0
 231 499 225 482 225 480 c 0
 225 479 226 480 228 481 c 0
 241 492 263 500 284 500 c 0
 323 500 350 476 350 436 c 0
 350 400 330 374 307 358 c 0
 291 347 278 344 258 344 c 0
EndSplineSet
EndChar

StartChar: quoteright
Encoding: 8217 8217 29
Width: 361
Flags: MW
HStem: 538 156<277 347.5>
VStem: 232 169<589 625.5>
LayerCount: 2
Fore
SplineSet
357 558 m 1
 340 546 327 538 298 538 c 0
 256 538 232 560 232 600 c 0
 232 651 266 684 308 693 c 0
 311 694 316 694 321 694 c 0
 374 694 401 657 401 602 c 0
 401 576 393 543 378 510 c 0
 352 448 305 393 247 354 c 0
 232 344 224 336 214 351 c 0
 208 357 207 362 208 367 c 0
 209 372 210 373 228 384 c 0
 244 395 251 401 266 414 c 0
 309 453 342 506 357 558 c 1
EndSplineSet
EndChar

StartChar: breve
Encoding: 728 728 30
Width: 494
Flags: MW
HStem: 507 63<325 406.5 325 416> 674 20G<161 198 198 198 590 608 608 614>
VStem: 158 38<666.5 667> 590 36<691.5 694>
LayerCount: 2
Fore
SplineSet
158 660 m 0
 158 674 160 684 161 694 c 1
 198 694 l 1
 198 690 l 2
 197 684 196 678 196 672 c 0
 196 661 198 651 202 642 c 0
 220 598 283 570 367 570 c 0
 446 570 519 595 558 636 c 0
 575 653 582 673 590 694 c 1
 608 694 l 2
 620 694 626 694 626 693 c 0
 626 690 622 675 619 667 c 0
 586 580 477 507 355 507 c 0
 257 507 158 557 158 660 c 0
EndSplineSet
EndChar

StartChar: macron
Encoding: 175 175 31
Width: 494
Flags: MW
HStem: 544 53<284.5 362 362 466.5 263.5 595>
LayerCount: 2
Fore
SplineSet
141 595 m 0
 141 597 153 597 374 597 c 0
 559 597 606 597 606 596 c 0
 606 595 603 583 600 569 c 2
 595 544 l 1
 362 544 l 2
 207 544 130 544 130 545 c 0
 130 546 140 592 141 595 c 0
EndSplineSet
EndChar

StartChar: uni1FC1
Encoding: 8129 8129 32
Width: 561
Flags: W
HStem: 467 105<287.5 292 487 508.5> 595 37<495 513.5 495 522.5> 657 37<338 339>
VStem: 212 59 223 119<509.5 528.5> 439 119<510 528> 563 59
LayerCount: 2
Fore
SplineSet
324 693 m 0xf6
 327 693 334 694 342 694 c 0xee
 397 694 427 680 456 653 c 0
 471 641 477 637 485 634 c 0
 489 633 493 632 497 632 c 0
 530 632 557 657 563 681 c 0
 567 693 569 694 593 694 c 0
 614 694 617 693 621 688 c 0
 624 684 624 680 622 672 c 0
 609 623 552 595 493 595 c 0
 441 595 407 611 378 636 c 0
 363 648 357 652 349 655 c 0
 345 656 341 657 337 657 c 0
 304 657 277 632 271 608 c 0
 267 596 265 595 241 595 c 0
 220 595 217 596 213 601 c 0
 210 605 210 609 212 617 c 0
 224 659 268 686 314 692 c 0
 318 693 323 693 324 693 c 0xf6
223 514 m 0
 223 543 250 564 276 571 c 0
 279 571 285 572 290 572 c 0
 319 572 342 554 342 526 c 0
 342 493 309 467 275 467 c 0
 248 467 223 484 223 514 c 0
439 510 m 1
 439 546 469 572 505 572 c 0
 535 572 558 552 558 526 c 0
 558 493 526 467 491 467 c 0
 463 467 443 483 439 510 c 1
EndSplineSet
EndChar

StartChar: exclam
Encoding: 33 33 33
Width: 392
Flags: W
HStem: 1 156<187 244.5> 685 20G<319.5 345>
VStem: 133 159<87 88.5> 223 45 251 158<632 632>
LayerCount: 2
Fore
SplineSet
247 227 m 0xd0
 230 227 223 228 223 242 c 0xd0
 223 248 250 624 251 632 c 0
 256 670 294 705 345 705 c 0
 384 703 416 677 409 631 c 0xc8
 407 624 270 236 268 233 c 0
 265 228 262 227 247 227 c 0xd0
133 63 m 0xe0
 133 114 169 147 209 155 c 0
 213 156 220 157 225 157 c 0
 264 157 292 128 292 90 c 0
 292 84 292 78 290 72 c 0
 281 40 256 14 222 3 c 0
 215 1 212 1 200 1 c 0
 174 1 162 7 150 21 c 0
 139 33 133 46 133 63 c 0xe0
EndSplineSet
EndChar

StartChar: dieresis
Encoding: 168 168 34
Width: 294
Flags: MW
HStem: 513 156<147.5 167.5 376.5 396.5>
VStem: 78 160<583.5 600> 307 160<583.5 600>
LayerCount: 2
Fore
SplineSet
78 576 m 0
 78 624 123 669 172 669 c 0
 212 669 238 646 238 607 c 0
 238 560 194 513 141 513 c 0
 104 513 78 538 78 576 c 0
307 576 m 0
 307 624 352 669 401 669 c 0
 441 669 467 646 467 607 c 0
 467 560 423 513 370 513 c 0
 333 513 307 538 307 576 c 0
EndSplineSet
EndChar

StartChar: dieresistonos
Encoding: 901 901 35
Width: 361
Flags: MW
HStem: 489 79<148 176>
VStem: 105 118<519 538> 360 119<531 538>
LayerCount: 2
Fore
SplineSet
377 710 m 0
 381 711 386 712 390 712 c 0
 422 712 457 683 442 644 c 0
 439 636 432 625 424 617 c 0
 415 608 275 495 266 488 c 0
 263 490 249 499 249 500 c 2
 249 500 322 655 328 668 c 0
 337 686 348 698 363 705 c 0
 367 707 373 710 377 710 c 0
105 523 m 0
 105 553 132 568 164 568 c 0
 198 568 223 563 223 532 c 0
 223 499 194 489 158 489 c 0
 138 489 125 492 116 501 c 0
 111 505 105 515 105 523 c 0
360 524 m 0
 360 552 390 569 424 569 c 0
 455 569 479 560 479 531 c 0
 475 500 451 489 413 489 c 0
 383 489 360 498 360 524 c 0
EndSplineSet
EndChar

StartChar: uni1FED
Encoding: 8173 8173 36
Width: 361
Flags: W
HStem: 489 79<148 176>
VStem: 105 118<519 538> 192 131<500 661> 360 119<531 538>
LayerCount: 2
Fore
SplineSet
192 641 m 0xb0
 192 681 234 712 272 712 c 0
 294 712 310 700 315 679 c 0
 316 673 320 591 323 507 c 2
 323 500 l 1
 316 496 308 492 301 488 c 1
 252 549 l 2
 225 583 201 612 200 615 c 0
 195 623 192 632 192 641 c 0xb0
105 523 m 0xd0
 105 553 132 568 164 568 c 0
 198 568 223 563 223 532 c 0
 223 499 194 489 158 489 c 0
 138 489 125 492 116 501 c 0
 111 505 105 515 105 523 c 0xd0
360 524 m 0
 360 552 390 569 424 569 c 0
 455 569 479 560 479 531 c 0
 475 500 451 489 413 489 c 0
 383 489 360 498 360 524 c 0
EndSplineSet
EndChar

StartChar: percent
Encoding: 37 37 37
Width: 1028
Flags: MW
HStem: -56 37<769 808 769 843> 310 35<836 871.5> 347 37<323 386.5 323 396> 607 37<705 719 705 734> 712 37<400.5 403 400.5 440>
VStem: 192 96<447.5 464.5 432.5 500> 490 48<564 620.5 545 644> 638 96<47 71.5 28.5 97> 936 48<180 214 144.5 235>
LayerCount: 2
Fore
SplineSet
336 347 m 0
 250 347 192 403 192 492 c 0
 192 508 193 526 195 536 c 0
 213 644 280 733 390 748 c 0
 394 749 400 749 401 749 c 0
 405 749 412 750 419 750 c 0
 456 750 472 741 498 720 c 0
 551 678 608 654 674 645 c 0
 682 644 698 644 712 644 c 0
 726 644 740 644 748 645 c 0
 822 654 886 683 933 729 c 0
 953 748 956 749 968 749 c 0
 987 749 998 735 998 719 c 0
 998 717 999 716 999 714 c 0
 999 705 969 676 609 325 c 0
 287 10 225 -50 220 -53 c 0
 215 -55 213 -55 207 -55 c 0
 187 -55 176 -41 176 -25 c 0
 176 -12 180 -9 189 2 c 0
 194 7 799 598 803 602 c 2
 827 625 l 1
 792 613 756 607 712 607 c 0
 646 607 595 621 545 646 c 2
 535 651 l 1
 535 641 538 628 538 613 c 0
 538 477 456 347 336 347 c 0
490 613 m 0
 490 675 468 712 412 712 c 0
 386 712 364 695 348 675 c 0
 328 650 317 618 302 550 c 0
 291 498 288 476 288 453 c 0
 288 412 304 384 342 384 c 0
 431 384 490 515 490 613 c 0
984 214 m 1
 984 75 903 -56 783 -56 c 0
 691 -56 638 1 638 93 c 0
 638 101 638 109 639 115 c 0
 652 234 722 326 836 345 c 0
 840 345 846 346 847 346 c 0
 848 347 857 347 867 347 c 0
 944 343 980 292 984 214 c 1
734 50 m 0
 734 7 751 -19 787 -19 c 0
 829 -19 862 7 889 47 c 0
 915 85 936 148 936 212 c 0
 936 258 922 289 894 302 c 0
 885 308 878 310 865 310 c 0
 847 310 829 304 813 291 c 0
 792 274 777 250 765 211 c 0
 751 172 734 93 734 50 c 0
EndSplineSet
EndChar

StartChar: periodcentered
Encoding: 183 183 38
Width: 361
Flags: MW
HStem: 216 68<174 184>
VStem: 147 68<241 257.5>
LayerCount: 2
Fore
SplineSet
147 246 m 0
 147 269 163 284 185 284 c 0
 202 284 215 272 215 252 c 0
 215 230 192 216 176 216 c 0
 160 216 147 225 147 246 c 0
EndSplineSet
EndChar

StartChar: tonos
Encoding: 900 900 39
Width: 228
Flags: MW
HStem: 488 224<167 302.5>
VStem: 150 195<500 678>
LayerCount: 2
Fore
SplineSet
289 712 m 0
 316 712 345 694 345 662 c 0
 345 638 336 629 323 616 c 0
 318 611 280 580 240 548 c 2
 167 488 l 1
 158 494 l 1
 150 500 l 2
 150 503 231 673 235 679 c 0
 248 698 266 712 289 712 c 0
EndSplineSet
EndChar

StartChar: parenleft
Encoding: 40 40 40
Width: 494
Flags: MW
VStem: 168 92<8.5 129>
LayerCount: 2
Fore
SplineSet
541 749 m 0
 543 749 547 750 551 750 c 0
 560 750 564 748 567 744 c 0
 577 731 561 722 552 716 c 0
 494 671 439 610 398 545 c 0
 330 438 283 300 266 164 c 0
 262 130 260 99 260 68 c 0
 260 -51 291 -148 351 -217 c 0
 361 -229 364 -233 363 -238 c 0
 361 -246 355 -250 344 -250 c 0
 337 -250 336 -250 332 -247 c 0
 317 -238 281 -203 265 -183 c 0
 212 -116 181 -37 170 58 c 0
 169 70 168 93 168 117 c 0
 168 141 169 164 170 176 c 0
 197 420 345 632 525 739 c 0
 533 744 540 749 541 749 c 0
EndSplineSet
EndChar

StartChar: parenright
Encoding: 41 41 41
Width: 494
Flags: MW
VStem: 339 93<420.5 465.5 305 493.5>
LayerCount: 2
Fore
SplineSet
244 749 m 0
 246 750 250 750 256 750 c 2
 265 750 l 1
 272 744 l 1
 366 672 432 548 432 383 c 0
 432 227 371 60 264 -73 c 0
 211 -137 142 -198 72 -241 c 2
 58 -249 l 1
 49 -250 l 2
 36 -250 25 -241 32 -230 c 0
 33 -228 39 -222 48 -215 c 0
 102 -174 152 -119 194 -56 c 0
 274 65 328 230 338 389 c 0
 339 398 339 413 339 428 c 0
 339 559 310 645 248 717 c 0
 241 725 237 731 237 733 c 0
 235 739 239 746 244 749 c 0
EndSplineSet
EndChar

StartChar: asterisk
Encoding: 42 42 42
Width: 628
Flags: W
HStem: 391 83<571 618> 528 33<453 472.5> 581 83
VStem: 342 89 413 97
LayerCount: 2
Fore
SplineSet
222 608 m 0xf0
 222 635 249 664 278 664 c 0
 285 664 287 664 292 662 c 2
 292 662 410 562 412 562 c 2
 412 562 413 562 413 563 c 0
 413 565 414 598 416 638 c 0
 419 714 419 715 425 724 c 0
 435 738 453 750 475 750 c 0
 494 748 510 738 510 718 c 0xe8
 510 704 484 644 453 561 c 1
 454 561 616 662 616 662 c 2
 621 664 626 665 631 665 c 0
 650 665 665 650 667 629 c 0
 667 608 656 588 640 582 c 2
 640 582 473 528 472 528 c 1
 473 528 617 474 618 474 c 0
 624 469 630 461 630 449 c 0
 630 425 605 391 573 391 c 0
 569 391 565 392 561 394 c 0
 553 397 441 495 439 495 c 2
 439 495 432 345 431 340 c 0
 424 321 399 306 377 306 c 0
 357 306 342 317 342 338 c 2
 342 347 l 1
 369 418 l 2
 386 461 397 488 399 496 c 1
 297 432 234 394 234 394 c 1
 205 383 184 405 184 429 c 0
 184 446 194 464 209 473 c 0
 215 477 318 508 379 528 c 1
 332 546 284 564 236 581 c 0
 228 588 222 594 222 608 c 0xf0
EndSplineSet
EndChar

StartChar: plus
Encoding: 43 43 43
Width: 961
Flags: MW
HStem: 219 62<326 495 326 326 158 558 158 734>
VStem: 424 59 582 60
LayerCount: 2
Fore
SplineSet
455 -149 m 0
 435 -149 424 -135 424 -119 c 0
 424 -116 437 -53 459 53 c 2
 495 219 l 1
 326 219 l 1
 158 220 l 2
 145 224 126 241 137 262 c 0
 141 272 149 277 158 281 c 1
 508 281 l 1
 508 281 581 625 582 628 c 0
 587 643 604 656 625 647 c 0
 635 642 642 631 642 619 c 0
 642 606 572 286 572 282 c 0
 572 281 612 281 741 281 c 2
 910 281 l 1
 921 273 939 260 929 237 c 0
 925 229 919 224 910 220 c 2
 734 219 l 1
 558 219 l 1
 549 174 486 -125 483 -130 c 0
 480 -141 470 -149 455 -149 c 0
EndSplineSet
EndChar

StartChar: comma
Encoding: 44 44 44
Width: 361
Flags: MW
HStem: 1 156<183.5 188>
VStem: 117 165<52 67 67 74 52 90>
LayerCount: 2
Fore
SplineSet
184 1 m 0
 141 1 117 27 117 64 c 0
 117 116 157 157 210 157 c 0
 253 157 282 121 282 74 c 2
 282 67 l 2
 282 37 274 4 258 -32 c 0
 232 -92 186 -147 129 -186 c 0
 121 -191 115 -194 111 -194 c 0
 106 -194 103 -191 99 -185 c 0
 90 -175 92 -167 103 -160 c 0
 160 -121 211 -62 234 5 c 0
 235 11 237 16 237 16 c 1
 237 16 213 5 207 3 c 0
 201 1 192 1 184 1 c 0
EndSplineSet
EndChar

StartChar: hyphen
Encoding: 45 45 45
Width: 428
Flags: MW
HStem: 173 98<148 244 244 268>
LayerCount: 2
Fore
SplineSet
404 270 m 0
 404 266 384 175 384 174 c 0
 384 173 312 173 224 173 c 0
 72 173 64 173 64 175 c 0
 64 176 69 198 75 224 c 2
 85 271 l 1
 244 271 l 2
 383 271 404 271 404 270 c 0
EndSplineSet
EndChar

StartChar: period
Encoding: 46 46 46
Width: 361
Flags: MW
HStem: 1 156<185.5 211>
VStem: 118 159<70 89>
LayerCount: 2
Fore
SplineSet
118 66 m 0
 118 112 161 157 210 157 c 0
 248 157 277 130 277 92 c 0
 277 48 239 1 183 1 c 0
 142 1 118 27 118 66 c 0
EndSplineSet
EndChar

StartChar: slash
Encoding: 47 47 47
Width: 628
Flags: W
LayerCount: 2
Fore
SplineSet
66 -249 m 0
 46 -249 35 -235 35 -219 c 0
 35 -215 36 -211 37 -208 c 0
 38 -204 631 721 642 736 c 0
 650 745 664 755 680 747 c 0
 691 742 698 732 698 720 c 0
 698 716 698 711 697 709 c 0
 696 705 93 -234 88 -240 c 0
 83 -245 77 -249 66 -249 c 0
EndSplineSet
EndChar

StartChar: zero
Encoding: 48 48 48
Width: 628
Flags: MW
HStem: -11 37<312.5 343 312.5 352.5> 618 36<425 443 443 451.5 425 469>
VStem: 112 114<116.5 141 95.5 190.5> 538 114<507 519 438 534.5>
LayerCount: 2
Fore
SplineSet
311 -11 m 0
 180 -11 112 50 112 183 c 0
 112 198 112 214 113 222 c 0
 119 283 138 369 158 426 c 0
 200 550 279 640 425 654 c 1
 443 654 l 2
 460 654 482 654 493 653 c 0
 598 639 652 578 652 460 c 0
 652 416 644 362 628 293 c 0
 604 191 571 121 520 69 c 0
 469 17 394 -11 311 -11 c 0
537 553 m 0
 527 593 495 618 443 618 c 0
 384 618 339 582 318 540 c 0
 302 507 286 451 263 342 c 0
 237 225 226 161 226 121 c 0
 226 70 250 44 286 31 c 0
 296 28 307 26 318 26 c 0
 368 26 421 58 445 107 c 0
 463 141 479 201 503 313 c 0
 531 441 538 487 538 527 c 0
 538 542 538 548 537 553 c 0
EndSplineSet
EndChar

StartChar: one
Encoding: 49 49 49
Width: 628
Flags: MW
HStem: 0 48<114 198> 543 48<221 255 221 255>
LayerCount: 2
Fore
SplineSet
529 46 m 0
 528 45 519 1 519 0 c 1
 518 0 499 1 475 1 c 0
 447 2 381 2 316 2 c 0
 251 2 186 2 158 1 c 0
 134 1 115 0 114 0 c 1
 114 1 122 38 124 46 c 2
 124 48 l 1
 198 48 l 2
 239 48 272 48 272 49 c 2
 272 49 381 562 382 564 c 0
 382 566 382 566 380 566 c 0
 379 565 372 563 365 561 c 0
 330 550 290 544 245 543 c 2
 221 543 l 1
 221 545 l 2
 222 548 231 590 231 590 c 2
 231 591 242 591 255 591 c 0
 338 594 403 612 457 646 c 2
 470 655 l 1
 479 655 l 2
 495 655 504 651 504 638 c 0
 504 633 440 333 380 49 c 0
 380 48 412 48 455 48 c 0
 525 48 529 48 529 46 c 0
EndSplineSet
EndChar

StartChar: two
Encoding: 50 50 50
Width: 628
Flags: W
HStem: 0 127<249 249 249 298> 606 49<421.5 440>
VStem: 179 148<469.5 530> 516 139<495.5 513.5 495 533.5> 552 48<222 223>
LayerCount: 2
Fore
SplineSet
241 430 m 0xf0
 206 430 179 451 179 488 c 0
 179 504 184 521 194 541 c 0
 223 597 291 638 379 651 c 0
 398 654 410 655 433 655 c 0
 527 655 600 625 634 574 c 0
 648 551 655 532 655 495 c 0xf0
 654 473 653 466 647 446 c 0
 636 407 606 366 563 332 c 0
 534 309 513 295 451 258 c 0
 402 228 405 230 320 174 c 2
 249 127 l 1
 320 126 l 2
 421 126 495 128 506 131 c 0
 515 134 532 166 549 212 c 1
 552 223 l 1
 576 223 l 2
 589 223 600 223 600 222 c 2xe8
 600 222 582 172 561 111 c 2
 522 1 l 1
 298 0 l 2
 85 0 74 0 74 2 c 0
 75 3 83 39 83 42 c 0
 84 43 143 90 214 146 c 0
 379 278 389 286 425 323 c 0
 478 377 508 428 515 479 c 0
 516 485 516 492 516 499 c 0
 516 568 475 606 405 606 c 0
 353 606 318 592 286 572 c 1
 311 562 327 547 327 513 c 0
 323 467 290 430 241 430 c 0xf0
EndSplineSet
EndChar

StartChar: three
Encoding: 51 51 51
Width: 628
Flags: W
HStem: -11 45<274.5 322.5 274.5 372.5> 329 36<298 362.5> 615 39<409 428 428 453>
VStem: 91 159<133.5 146> 204 143<499 500> 455 148<190 247 190 269.5> 506 135<521.5 541 517 579.5>
LayerCount: 2
Fore
SplineSet
266 440 m 0xea
 229 440 204 461 204 497 c 0
 204 503 205 509 206 516 c 0
 228 599 312 644 409 654 c 1
 428 654 l 2
 531 654 620 634 639 557 c 0
 641 551 641 547 641 535 c 0xea
 641 499 629 477 613 452 c 0
 585 411 535 376 474 355 c 0
 460 350 457 349 461 349 c 0
 464 349 489 342 500 338 c 0
 551 320 588 289 601 236 c 0
 603 229 603 225 603 208 c 2
 603 198 l 2
 603 182 601 174 595 157 c 0
 559 48 444 -11 301 -11 c 0
 222 -11 158 9 123 44 c 0
 102 65 91 90 91 118 c 0
 91 174 128 218 183 218 c 0
 225 218 250 193 250 157 c 0
 250 110 215 73 175 66 c 1
 201 45 250 34 299 34 c 0
 346 34 372 46 396 71 c 0
 409 83 416 94 424 110 c 0
 436 133 455 195 455 235 c 2
 455 247 l 2xf4
 455 292 440 310 409 323 c 0
 394 328 386 329 339 329 c 0
 299 329 298 329 294 331 c 0
 290 333 287 338 287 343 c 0
 287 351 292 362 298 365 c 0
 299 365 315 367 333 368 c 0
 378 371 386 372 406 382 c 0
 458 409 506 484 506 559 c 0
 506 600 475 615 431 615 c 0
 386 615 345 603 313 583 c 2
 304 578 l 1
 327 569 347 555 347 523 c 0
 347 475 311 444 266 440 c 0xea
EndSplineSet
EndChar

StartChar: four
Encoding: 52 52 52
Width: 628
Flags: MW
HStem: 0 48<234 360> 156 48<171 231 231 274>
VStem: 361 126<48 52>
LayerCount: 2
Fore
SplineSet
590 46 m 0
 589 45 580 1 580 0 c 1
 579 0 563 1 543 1 c 0
 520 2 465 2 410 2 c 0
 355 2 299 2 274 1 c 0
 252 1 234 0 234 0 c 1
 234 1 236 11 239 24 c 2
 244 48 l 1
 360 48 l 1
 361 51 l 2
 361 53 366 77 372 105 c 2
 383 156 l 1
 231 156 l 2
 111 156 80 156 80 157 c 0
 81 158 83 169 86 181 c 2
 90 204 l 1
 322 426 l 2
 449 548 555 649 557 651 c 2
 565 655 l 2
 567 655 574 656 585 656 c 0
 600 656 602 656 605 654 c 0
 609 651 612 646 612 642 c 0
 612 640 591 541 566 422 c 2
 519 205 l 1
 571 204 l 2
 600 204 623 204 623 203 c 0
 623 202 614 160 613 158 c 0
 613 156 610 156 561 156 c 2
 510 156 l 1
 499 105 l 2
 493 77 488 52 487 51 c 2
 487 48 l 1
 538 48 l 2
 587 48 590 48 590 46 c 0
438 361 m 2
 456 446 471 517 471 517 c 1
 470 517 164 223 152 211 c 2
 145 204 l 1
 274 204 l 1
 404 205 l 1
 438 361 l 2
EndSplineSet
EndChar

StartChar: five
Encoding: 53 53 53
Width: 628
Flags: MW
HStem: -11 45<260.5 311 260.5 355> 93 136<168.5 170> 371 37<385 403 403 405> 499 125<360.5 481>
VStem: 105 59<91 158> 196 65<317.5 375.5> 468 131<220 319.5>
LayerCount: 2
Fore
SplineSet
196 320 m 0
 196 336 263 640 263 644 c 0
 265 649 268 652 272 654 c 0
 276 656 279 655 294 650 c 0
 340 632 384 624 447 624 c 0
 515 624 556 633 610 650 c 0
 629 656 632 656 637 652 c 0
 642 649 643 645 643 638 c 0
 641 626 641 626 624 609 c 0
 573 559 520 527 446 508 c 0
 419 501 406 500 375 499 c 0
 346 499 331 500 308 503 c 0
 300 504 292 505 291 505 c 0
 289 505 289 505 275 441 c 0
 267 405 261 376 261 375 c 1
 261 375 266 377 271 380 c 0
 292 391 315 399 340 403 c 0
 357 407 367 408 385 408 c 2
 403 408 l 2
 470 408 510 394 546 366 c 0
 581 339 599 304 599 244 c 0
 599 196 593 177 577 146 c 0
 530 49 426 -11 284 -11 c 0
 221 -11 173 9 141 43 c 0
 117 67 105 97 105 131 c 0
 105 185 131 229 186 229 c 0
 221 229 245 205 245 174 c 0
 245 133 214 98 170 93 c 0
 167 93 164 93 164 92 c 0
 164 90 173 79 180 72 c 0
 202 48 236 34 285 34 c 0
 337 34 372 50 399 77 c 0
 424 102 437 130 449 187 c 0
 462 243 468 278 468 303 c 0
 468 336 455 353 434 364 c 0
 421 371 416 371 394 371 c 0
 332 371 282 352 241 315 c 0
 233 304 222 300 205 306 c 0
 200 308 196 315 196 320 c 0
EndSplineSet
EndChar

StartChar: six
Encoding: 54 54 54
Width: 628
Flags: W
HStem: -11 44<306.5 336> 381 37<416 427> 614 41<496 529>
VStem: 117 120<164.5 173.5 99 232> 485 127<222 323> 518 130<502.5 565>
LayerCount: 2
Fore
SplineSet
572 465 m 0xf4
 541 465 518 485 518 520 c 0xf4
 521 556 545 582 575 589 c 0
 587 591 587 591 580 596 c 0
 564 609 545 614 513 614 c 0
 479 614 450 607 418 591 c 0
 358 560 320 507 294 420 c 0
 288 400 274 346 274 341 c 1
 301 376 342 408 389 417 c 0
 395 418 409 418 423 418 c 0
 485 418 524 404 560 373 c 0
 591 345 612 312 612 258 c 0xf8
 612 186 587 130 553 90 c 0
 524 56 474 22 432 6 c 0
 398 -5 359 -11 313 -11 c 0
 245 -11 200 10 166 44 c 0
 133 78 117 128 117 201 c 0
 117 263 130 329 147 377 c 0
 182 484 251 568 345 615 c 0
 395 640 449 655 516 655 c 0
 574 655 617 636 636 602 c 0
 644 588 648 574 648 556 c 0
 648 506 627 476 589 467 c 0
 583 466 577 465 572 465 c 0xf4
483 340 m 0
 469 370 449 381 405 381 c 0
 381 381 370 377 353 369 c 0
 281 332 237 230 237 117 c 0
 237 81 243 73 258 56 c 0
 275 41 291 33 322 33 c 0
 381 33 420 61 440 101 c 0
 452 128 460 160 475 235 c 0
 484 278 485 288 485 313 c 0xf8
 485 333 485 334 483 340 c 0
EndSplineSet
EndChar

StartChar: seven
Encoding: 55 55 55
Width: 628
Flags: W
HStem: -11 21G<267.5 297> 518 132 656 20G<284 308 308 308>
VStem: 171 48<421 423> 227 119 260 48<675 676>
LayerCount: 2
Fore
SplineSet
282 -11 m 0xf8
 253 -11 227 8 227 39 c 0xf8
 227 50 230 63 236 85 c 0
 256 159 294 234 347 306 c 0
 389 361 428 402 508 474 c 2
 556 518 l 1
 472 518 l 2
 351 518 274 516 265 513 c 0
 261 511 250 496 243 482 c 0
 236 469 224 442 219 421 c 1
 195 421 l 2
 172 421 171 421 171 423 c 0
 172 424 258 671 260 675 c 0
 260 676 265 676 284 676 c 2
 308 676 l 1xf4
 304 664 312 656 327 652 c 0
 330 651 342 651 361 650 c 0
 464 644 431 645 599 644 c 0
 724 644 733 644 733 642 c 0
 732 639 727 617 727 612 c 0
 726 610 725 607 724 605 c 0
 691 572 524 425 491 392 c 0
 430 323 396 244 363 89 c 0
 352 41 351 39 346 29 c 0
 335 7 312 -11 282 -11 c 0xf8
EndSplineSet
EndChar

StartChar: eight
Encoding: 56 56 56
Width: 628
Flags: W
HStem: -11 44<286.5 351.5 286.5 385> 615 39<420 439 439 449 420 468.5>
VStem: 94 88<122.5 140> 196 90<429 529.5> 506 100<145 225> 565 76<512.5 544.5 512.5 548.5>
LayerCount: 2
Fore
SplineSet
314 -11 m 0xf8
 199 -11 94 25 94 127 c 0
 94 153 102 185 114 209 c 0
 140 261 186 297 265 330 c 0
 267 330 266 331 260 335 c 0
 251 342 236 354 231 360 c 0
 210 384 196 410 196 448 c 0
 196 460 197 474 199 483 c 0
 223 584 305 644 420 654 c 1
 439 654 l 2
 459 654 488 654 499 653 c 0
 570 644 613 621 632 580 c 0
 639 566 641 554 641 535 c 0xf4
 641 490 619 447 582 416 c 0
 562 400 547 390 519 377 c 2
 502 368 l 1
 518 359 l 2
 565 328 601 296 606 225 c 0
 606 201 603 182 595 157 c 0
 560 55 456 -11 314 -11 c 0xf8
545 585 m 0
 522 605 490 615 447 615 c 0
 375 615 313 595 294 554 c 0
 289 543 286 534 286 525 c 0
 286 513 291 503 302 492 c 0
 310 485 317 481 384 440 c 2
 458 395 l 1
 468 400 l 2
 517 425 565 470 565 537 c 0
 565 560 557 571 545 585 c 0
473 206 m 0
 470 208 319 299 317 301 c 2
 313 303 l 1
 300 296 l 2
 257 273 220 240 199 200 c 0
 188 176 182 152 182 130 c 0
 182 115 185 101 190 90 c 0
 209 53 254 33 319 33 c 0
 384 33 440 47 472 79 c 0
 487 93 495 105 501 124 c 0
 504 133 506 141 506 149 c 0
 506 175 489 192 473 206 c 0
EndSplineSet
EndChar

StartChar: nine
Encoding: 57 57 57
Width: 628
Flags: W
HStem: -11 44<251.5 294> 227 37<335.5 356.5> 614 41<415 451.5>
VStem: 116 130<84.5 143.5> 152 126<306 416> 530 118<390 558.5>
LayerCount: 2
Fore
SplineSet
184 54 m 1xf4
 199 39 236 33 267 33 c 0
 330 33 381 63 416 108 c 0
 441 139 460 183 477 247 c 0
 482 267 490 302 490 303 c 1
 490 303 472 283 467 278 c 0
 441 253 414 238 385 230 c 0
 375 228 364 227 349 227 c 0
 254 227 196 260 166 323 c 0
 156 342 152 364 152 389 c 0xec
 152 443 171 498 194 531 c 0
 211 557 234 579 266 601 c 0
 323 640 370 655 450 655 c 0
 583 655 648 585 648 452 c 0
 648 328 608 218 555 142 c 0
 516 88 464 44 406 19 c 0
 363 0 320 -11 268 -11 c 0
 195 -11 142 9 122 55 c 0
 118 65 116 78 116 91 c 0
 116 103 118 116 121 128 c 0
 131 158 162 179 192 179 c 0
 224 179 246 159 246 128 c 0
 246 89 217 62 184 54 c 1xf4
278 331 m 0
 278 281 310 264 361 264 c 0
 368 264 375 264 379 265 c 0
 405 270 430 285 452 308 c 0
 484 341 506 383 516 433 c 0
 525 474 530 513 530 538 c 0
 530 579 506 604 474 613 c 0
 470 614 457 614 446 614 c 0
 384 614 343 583 322 538 c 0
 313 516 306 491 294 437 c 0
 282 381 278 353 278 331 c 0
EndSplineSet
EndChar

StartChar: colon
Encoding: 58 58 58
Width: 361
Flags: W
HStem: 1 156<185.5 211> 288 156<246.5 272>
VStem: 118 159<70 89> 179 159<357 376>
LayerCount: 2
Fore
SplineSet
179 353 m 0xd0
 179 399 222 444 271 444 c 0
 309 444 338 417 338 379 c 0
 338 335 300 288 244 288 c 0
 203 288 179 314 179 353 c 0xd0
118 66 m 0xe0
 118 112 161 157 210 157 c 0
 248 157 277 130 277 92 c 0
 277 48 239 1 183 1 c 0
 142 1 118 27 118 66 c 0xe0
EndSplineSet
EndChar

StartChar: anoteleia
Encoding: 903 903 59
Width: 361
Flags: MW
HStem: 288 156<246.5 272>
VStem: 179 159<357 376>
LayerCount: 2
Fore
SplineSet
179 353 m 0
 179 399 222 444 271 444 c 0
 309 444 338 417 338 379 c 0
 338 335 300 288 244 288 c 0
 203 288 179 314 179 353 c 0
EndSplineSet
EndChar

StartChar: uni1FFE
Encoding: 8190 8190 60
Width: 294
Flags: MW
HStem: 576 118<265 289.5>
VStem: 176 27<576.5 590>
LayerCount: 2
Fore
SplineSet
222 629 m 1
 214 621 203 599 203 582 c 0
 203 571 208 561 216 553 c 0
 231 538 258 529 292 527 c 0
 302 527 305 526 308 525 c 0
 317 520 317 506 308 501 c 0
 304 499 296 498 279 500 c 0
 232 505 197 524 183 551 c 0
 177 562 176 570 176 583 c 0
 176 597 179 609 185 623 c 0
 203 661 241 694 289 694 c 0
 322 694 342 677 342 645 c 0
 342 603 307 576 272 576 c 0
 244 576 224 594 222 621 c 2
 222 629 l 1
EndSplineSet
EndChar

StartChar: equal
Encoding: 61 61 61
Width: 961
Flags: MW
HStem: 107 62<511 512> 332 61<558 933 558 933>
LayerCount: 2
Fore
SplineSet
181 332 m 1
 167 337 158 348 158 362 c 0
 158 376 168 387 179 391 c 0
 183 393 220 393 558 393 c 2
 933 393 l 1
 944 386 956 377 956 362 c 0
 956 348 945 337 933 332 c 1
 181 332 l 1
886 169 m 1
 899 161 908 153 908 138 c 0
 908 124 900 114 886 108 c 1
 512 107 l 1
 297 107 l 2
 111 107 130 108 123 113 c 0
 114 120 109 129 111 145 c 0
 114 156 121 164 131 167 c 0
 136 169 150 169 511 169 c 2
 886 169 l 1
EndSplineSet
EndChar

StartChar: uni1FBF
Encoding: 8127 8127 62
Width: 294
Flags: MW
HStem: 499 28<216.5 220 214 223> 576 118<272 288>
VStem: 223 149<619 626 626 638 575.5 645.5>
LayerCount: 2
Fore
SplineSet
272 576 m 0
 247 576 223 591 223 619 c 2
 223 626 l 2
 223 665 253 694 291 694 c 0
 340 694 372 663 372 613 c 0
 372 538 297 503 223 499 c 0
 210 499 208 499 205 501 c 0
 196 506 195 518 203 524 c 0
 205 526 208 527 220 527 c 0
 286 531 332 558 343 598 c 0
 346 610 344 627 341 634 c 1
 335 599 304 576 272 576 c 0
EndSplineSet
EndChar

StartChar: semicolon
Encoding: 59 59 63
Width: 361
Flags: W
HStem: 1 156<183.5 191.5> 288 156<246.5 272>
VStem: 117 157<57 90> 179 159<357 376>
LayerCount: 2
Fore
SplineSet
179 353 m 0xd0
 179 399 222 444 271 444 c 0
 309 444 338 417 338 379 c 0
 338 335 300 288 244 288 c 0
 203 288 179 314 179 353 c 0xd0
184 1 m 0
 140 1 117 27 117 64 c 0
 117 116 157 157 210 157 c 0
 255 157 274 123 274 75 c 0xe0
 274 39 261 -9 241 -49 c 0
 214 -103 174 -151 125 -188 c 0
 114 -197 107 -196 99 -185 c 0
 95 -181 93 -177 93 -173 c 0
 93 -168 98 -163 107 -156 c 0
 140 -131 172 -96 193 -60 c 0
 204 -43 220 -8 224 7 c 0
 225 9 225 9 220 7 c 0
 209 2 199 1 184 1 c 0
EndSplineSet
EndChar

StartChar: uni1FDF
Encoding: 8159 8159 64
Width: 428
Flags: MW
HStem: 488 28 596 36<428 436.5> 657 36<253.5 273>
VStem: 145 59 275 28<527 534 527 548> 497 59
LayerCount: 2
Fore
SplineSet
172 659 m 0
 195 678 227 693 267 693 c 0
 328 693 355 684 389 654 c 0
 402 642 408 638 414 635 c 0
 419 633 425 632 431 632 c 0
 464 632 491 657 497 681 c 0
 501 693 503 694 527 694 c 0
 548 694 551 693 555 688 c 0
 558 684 558 680 556 672 c 0
 545 631 505 607 461 598 c 0
 450 596 447 596 426 596 c 0
 372 596 345 606 313 635 c 0
 299 647 293 651 287 654 c 0
 282 656 276 657 270 657 c 0
 237 657 210 632 204 608 c 0
 200 596 198 595 174 595 c 0
 153 595 150 596 146 601 c 0
 143 605 143 609 145 617 c 0
 149 632 160 648 172 659 c 0
354 502 m 0
 354 491 347 488 334 488 c 0
 297 490 275 510 275 535 c 0
 275 561 298 586 322 591 c 0
 347 598 367 585 367 563 c 0
 367 541 351 525 328 525 c 0
 317 525 313 526 306 532 c 0
 304 534 303 535 303 533 c 0
 303 521 322 517 336 516 c 0
 350 515 354 511 354 502 c 0
EndSplineSet
EndChar

StartChar: Alpha
Encoding: 913 913 65
Width: 933
Flags: MW
HStem: 1 47<294 300 300 307 852.5 859> 195 48<472 594 472 605> 678 20G<603.5 623.5>
LayerCount: 2
Fore
SplineSet
170 3 m 0
 130 3 91 0 57 0 c 1
 57 1 65 41 67 46 c 0
 67 47 71 48 95 48 c 0
 134 49 159 52 168 56 c 0
 176 61 572 679 578 685 c 0
 588 697 593 698 614 698 c 0
 633 698 641 696 646 684 c 0
 647 682 679 538 718 364 c 2
 787 48 l 1
 836 48 l 2
 882 48 885 48 885 46 c 0
 885 45 883 35 880 23 c 2
 875 1 l 1
 867 1 l 2
 838 1 747 3 705 3 c 0
 652 3 585 0 534 0 c 1
 534 1 542 38 544 46 c 2
 544 48 l 1
 591 48 l 1
 638 49 l 1
 627 97 616 146 605 195 c 1
 319 195 l 1
 275 127 l 2
 251 90 231 59 231 58 c 0
 235 50 281 48 307 48 c 0
 314 48 317 48 317 47 c 0
 317 46 315 35 312 23 c 2
 307 1 l 1
 300 1 l 2
 279 1 201 3 170 3 c 0
594 243 m 1
 594 249 594 244 532 524 c 1
 532 524 491 461 441 384 c 2
 350 244 l 1
 472 243 l 1
 594 243 l 1
EndSplineSet
EndChar

StartChar: Beta
Encoding: 914 914 66
Width: 880
Flags: W
HStem: 0 48<69 81.5 388.5 441.5> 338 37<424.5 485> 638 45<361.5 435 361.5 545>
VStem: 195 10 302 133<636 636 636 638> 694 147<198.5 262.5 198.5 262.5> 735 141<540 546 536 572>
LayerCount: 2
Fore
SplineSet
177 49 m 0xfc
 296 610 302 633 302 638 c 1
 249 638 l 2
 205 638 195 638 195 639 c 0
 195 641 204 683 205 685 c 0
 205 686 207 686 216 686 c 0
 229 684 348 683 375 683 c 0
 444 683 508 686 594 686 c 0
 634 686 668 685 678 685 c 0
 777 678 857 644 875 566 c 0
 876 560 876 551 876 541 c 0xfa
 876 531 876 522 875 516 c 0
 865 472 835 432 789 403 c 0
 759 385 714 368 672 360 c 2
 662 359 l 1
 750 346 841 310 841 215 c 0
 841 182 828 149 809 121 c 0
 765 52 684 14 581 2 c 0
 570 1 494 0 427 0 c 0
 328 0 317 2 216 2 c 0
 154 2 104 0 59 0 c 1
 59 1 67 38 69 46 c 2
 69 48 l 1
 123 48 l 2
 153 48 177 48 177 49 c 0xfc
435 636 m 2
 433 631 381 379 379 377 c 0
 379 375 383 375 466 375 c 0
 555 375 568 375 588 379 c 0
 654 392 705 433 725 493 c 0
 731 510 735 532 735 548 c 0
 735 596 708 625 662 636 c 0
 655 637 645 637 545 638 c 2
 435 638 l 1
 435 636 l 2
371 335 m 2
 369 333 362 288 310 49 c 1
 310 49 362 48 415 48 c 0
 468 48 524 49 530 49 c 0
 624 58 694 128 694 231 c 0
 694 294 661 329 607 337 c 0
 602 338 556 338 485 338 c 2
 371 338 l 1
 371 335 l 2
EndSplineSet
EndChar

StartChar: uni1FDD
Encoding: 8157 8157 67
Width: 361
Flags: MW
HStem: 576 118<214 238.5>
VStem: 125 27<576.5 590> 302 131<500 661>
LayerCount: 2
Fore
SplineSet
302 641 m 0
 302 681 344 712 382 712 c 0
 404 712 420 700 425 679 c 0
 426 673 430 591 433 507 c 2
 433 500 l 1
 426 496 418 492 411 488 c 1
 362 549 l 2
 335 583 311 612 310 615 c 0
 305 623 302 632 302 641 c 0
171 629 m 1
 163 621 152 599 152 582 c 0
 152 571 157 561 165 553 c 0
 180 538 207 529 241 527 c 0
 251 527 254 526 257 525 c 0
 266 520 266 506 257 501 c 0
 253 499 245 498 228 500 c 0
 181 505 146 524 132 551 c 0
 126 562 125 570 125 583 c 0
 125 597 128 609 134 623 c 0
 152 661 190 694 238 694 c 0
 271 694 291 677 291 645 c 0
 291 603 256 576 221 576 c 0
 193 576 173 594 171 621 c 2
 171 629 l 1
EndSplineSet
EndChar

StartChar: uni0394
Encoding: 916 916 68
Width: 1028
Flags: MW
HStem: 0 122<487 702.5> 678 20G<651 672>
LayerCount: 2
Fore
SplineSet
621 685 m 0
 632 696 640 698 662 698 c 0
 682 698 688 697 696 687 c 0
 700 683 957 19 957 12 c 0
 956 8 952 4 948 1 c 0
 945 0 891 0 514 0 c 0
 236 0 82 0 81 1 c 0
 77 2 74 8 76 12 c 0
 77 16 612 676 621 685 c 0
749 122 m 1
 588 545 582 551 582 556 c 2
 580 559 l 1
 462 414 344 268 226 123 c 1
 487 122 l 1
 749 122 l 1
EndSplineSet
EndChar

StartChar: Epsilon
Encoding: 917 917 69
Width: 816
Flags: MW
HStem: 0 48<68 81> 329 48<410.5 489> 632 48<202 271.5>
VStem: 536 42<214 279.5> 589 48<492 494 492 494> 779 48<438 442 442 442>
LayerCount: 2
Fore
SplineSet
58 0 m 1
 58 2 68 48 68 48 c 1
 122 48 l 2
 152 48 176 48 176 49 c 2
 176 49 299 628 300 630 c 0
 300 632 297 632 246 632 c 2
 192 633 l 1
 195 649 199 664 202 680 c 1
 214 680 l 2
 227 678 351 677 378 677 c 0
 471 677 500 679 666 680 c 2
 848 680 l 1
 848 677 l 2
 848 673 828 450 827 443 c 2
 827 438 l 1
 779 438 l 1
 779 442 l 2
 781 452 782 485 782 500 c 0
 780 570 753 609 694 623 c 0
 664 631 640 632 530 632 c 2
 444 632 l 1
 417 506 l 2
 402 436 390 379 390 378 c 0
 390 377 414 377 437 377 c 0
 541 377 570 404 589 492 c 1
 589 494 l 1
 637 494 l 1
 637 492 l 2
 635 490 578 216 578 214 c 2
 577 212 l 1
 553 212 l 2
 530 212 529 212 529 214 c 0
 532 223 536 247 536 262 c 0
 536 297 524 315 497 323 c 0
 481 328 473 328 425 329 c 0
 396 329 379 329 379 328 c 2
 320 49 l 2
 320 48 357 48 422 48 c 0
 532 49 537 49 569 54 c 0
 639 67 690 102 728 164 c 0
 740 183 755 215 767 246 c 2
 779 275 l 1
 802 275 l 2
 815 275 826 275 826 274 c 2
 826 274 803 212 774 137 c 2
 722 1 l 1
 550 0 l 2
 336 0 379 2 221 2 c 0
 157 2 104 0 58 0 c 1
EndSplineSet
EndChar

StartChar: Phi
Encoding: 934 934 70
Width: 894
Flags: W
HStem: 0 48<240 385> 153 40<406 415> 638 46<443 619 544.5 643 544.5 778>
VStem: 151 146<301.5 323.5> 385 133<48.5 49.5 48.5 51 48.5 51> 510 111<533.5 638> 742 146<358 384.5 352 406.5>
LayerCount: 2
Fore
SplineSet
385 51 m 1xfa
 385 51 408 153 406 153 c 2
 406 153 399 154 391 155 c 0
 303 162 226 191 187 232 c 0
 163 257 151 286 151 317 c 0
 151 330 153 343 158 357 c 0
 170 392 194 424 230 451 c 0
 279 487 355 516 435 527 c 0
 452 529 476 532 482 532 c 0
 484 532 486 532 487 533 c 0
 488 533 510 634 510 638 c 1
 443 638 l 2
 388 638 376 638 376 639 c 0
 376 641 385 683 386 685 c 0
 386 686 389 686 402 686 c 0
 438 684 508 684 581 684 c 0
 657 684 727 686 788 686 c 1
 786 679 779 646 778 638 c 1
 643 638 l 1
 641 628 621 538 621 534 c 0xf6
 621 533 623 533 625 533 c 0
 632 533 661 530 679 527 c 0
 751 517 808 495 850 456 c 0
 875 430 888 400 888 369 c 0
 888 335 873 300 844 267 c 0
 793 209 696 169 580 156 c 0
 570 155 557 154 551 153 c 0
 541 153 540 153 539 151 c 0
 538 144 518 50 518 49 c 0
 518 48 543 48 585 48 c 0
 638 48 652 48 652 47 c 0
 652 44 642 1 642 0 c 1
 642 0 622 1 598 1 c 0
 570 2 506 2 441 2 c 0
 376 2 312 2 284 1 c 0
 260 1 241 0 240 0 c 1
 240 1 248 38 250 46 c 2
 250 48 l 1
 385 48 l 1
 385 51 l 1xfa
633 493 m 0
 615 496 613 496 613 494 c 0
 612 493 548 191 548 191 c 1
 549 191 l 2
 554 191 575 193 586 196 c 0
 619 203 651 216 674 232 c 0
 713 260 742 327 742 389 c 0
 742 424 733 446 712 462 c 0
 690 478 666 488 633 493 c 0
479 492 m 0
 479 494 477 494 463 492 c 0
 411 483 368 462 344 435 c 0
 318 405 297 352 297 298 c 0
 297 242 325 216 370 202 c 0
 383 197 402 193 409 193 c 2
 415 193 l 1
 447 342 l 2
 465 423 479 491 479 492 c 0
EndSplineSet
EndChar

StartChar: Gamma
Encoding: 915 915 71
Width: 750
Flags: MW
HStem: 0 48<68 84.5> 632 48<202 271.5>
VStem: 176 144<48.5 49> 730 48<438 443 438 443>
LayerCount: 2
Fore
SplineSet
233 3 m 0
 173 3 111 0 58 0 c 1
 58 1 65 35 68 46 c 2
 68 48 l 1
 122 48 l 2
 152 48 176 48 176 49 c 2
 176 49 299 628 300 630 c 0
 300 632 297 632 246 632 c 0
 203 632 192 632 192 633 c 0
 193 634 195 645 198 657 c 2
 202 680 l 1
 214 680 l 2
 227 678 351 677 378 677 c 0
 463 677 500 680 641 680 c 2
 798 680 l 1
 798 677 l 2
 798 673 780 452 778 443 c 2
 778 438 l 1
 730 438 l 1
 730 443 l 2
 732 458 733 481 733 501 c 0
 733 574 706 612 643 626 c 0
 619 631 610 631 524 631 c 2
 444 632 l 1
 382 341 l 2
 348 181 320 50 320 49 c 0
 320 48 334 48 387 48 c 0
 450 48 454 48 454 46 c 0
 454 45 452 35 449 23 c 2
 444 1 l 1
 434 1 l 2
 403 1 280 3 233 3 c 0
EndSplineSet
EndChar

StartChar: Eta
Encoding: 919 919 72
Width: 964
Flags: W
HStem: 1 47<393 399 881 887> 333 48<380 735> 638 48<204 301 204 247 535.5 553 1023.5 1041>
VStem: 176 144<48.5 49> 301 144<636 638 636 638> 664 144<48.5 49.5 48.5 51 48.5 51> 789 144<636 638 636 638>
LayerCount: 2
Fore
SplineSet
176 49 m 0xf4
 295 610 301 633 301 638 c 1
 247 638 l 1
 193 639 l 1
 198 662 l 1
 204 686 l 1
 217 686 l 2
 249 684 313 684 378 684 c 0
 446 684 508 686 563 686 c 1
 563 684 553 638 553 638 c 1
 445 638 l 1
 445 636 l 2
 443 629 391 384 391 382 c 0
 391 381 416 381 563 381 c 2
 735 381 l 1
 761 507 l 2
 776 577 788 635 789 636 c 2
 789 638 l 1
 735 638 l 1
 681 639 l 1
 686 662 l 1
 692 686 l 1
 705 686 l 2
 737 684 801 684 866 684 c 0
 934 684 996 686 1051 686 c 1
 1051 684 1041 638 1041 638 c 1
 933 638 l 1
 933 636 l 2xea
 931 631 808 50 808 49 c 0
 808 48 831 48 862 48 c 0
 912 48 915 48 915 46 c 0
 915 45 913 35 910 23 c 2
 905 1 l 1
 896 1 l 2
 866 1 763 3 719 3 c 0
 662 3 598 1 546 0 c 1
 546 1 554 41 556 46 c 0
 556 48 560 48 610 48 c 2
 664 48 l 1
 664 51 l 2
 665 52 689 168 724 332 c 0
 724 333 647 333 552 333 c 2
 380 333 l 1
 380 327 320 49 320 49 c 2
 320 48 343 48 374 48 c 0
 424 48 427 48 427 46 c 0
 427 45 425 35 422 23 c 2
 417 1 l 1
 408 1 l 2
 378 1 275 3 231 3 c 0
 174 3 110 1 58 0 c 1
 58 1 66 41 68 46 c 0
 68 48 72 48 122 48 c 0
 152 48 176 48 176 49 c 0xf4
EndSplineSet
EndChar

StartChar: Iota
Encoding: 921 921 73
Width: 475
Flags: W
HStem: 0 48<63 65 52 119> 638 48<198 213 198 301 188 213>
VStem: 176 144<48.5 49> 301 144<636 638 636 638>
LayerCount: 2
Fore
SplineSet
176 49 m 0xe0
 295 610 301 633 301 638 c 1
 188 638 l 1
 188 640 l 2
 189 643 198 685 198 686 c 1
 213 686 l 2
 247 684 312 684 379 684 c 0
 448 684 512 685 568 686 c 1
 568 685 566 675 563 662 c 2
 558 639 l 1
 502 638 l 1
 445 638 l 1
 445 636 l 2xd0
 443 631 320 50 320 49 c 0
 320 48 345 48 377 48 c 0
 421 48 433 48 433 47 c 0
 432 46 430 35 427 23 c 2
 423 0 l 1
 410 0 l 2
 391 3 274 3 239 3 c 0
 204 3 85 3 65 0 c 2
 52 0 l 1
 57 24 l 1
 63 48 l 1
 119 48 l 2
 150 48 176 48 176 49 c 0xe0
EndSplineSet
EndChar

StartChar: Theta
Encoding: 920 920 74
Width: 961
Flags: W
HStem: -11 39<441 529.5 423 592.5> 283 122<400 632 499.5 632 499.5 680> 659 37<598.5 610 594 661.5>
VStem: 146 137<204 243.5 163 271.5> 345 48<249 251 249 251> 385 48<437.5 438.5 437.5 439 437.5 439> 706 55<406 438.5> 713 48<436 439> 822 138<396.5 516>
LayerCount: 2
Fore
SplineSet
522 687 m 0xf080
 549 693 579 696 618 696 c 0
 705 696 762 686 819 658 c 0
 884 626 928 575 948 509 c 0
 956 482 960 451 960 420 c 0
 960 373 951 324 933 277 c 0
 869 109 708 -11 477 -11 c 0
 405 -11 336 2 283 29 c 0
 194 74 146 145 146 263 c 0
 146 280 146 298 147 306 c 0
 159 388 191 462 243 527 c 0
 276 567 319 605 365 631 c 0
 410 655 464 678 522 687 c 0xf080
283 228 m 0
 283 98 359 28 487 28 c 0
 572 28 655 64 710 125 c 0
 768 190 809 298 821 424 c 0
 822 432 822 443 822 454 c 0
 822 578 763 643 655 658 c 0
 647 659 626 659 610 659 c 2
 594 659 l 1
 520 652 455 621 405 569 c 0
 352 514 317 440 295 335 c 0
 287 294 283 259 283 228 c 0
400 283 m 1
 400 282 393 249 393 249 c 1
 345 249 l 1
 345 251 l 2xfa80
 346 253 383 430 385 436 c 2
 385 439 l 1
 409 439 l 2
 424 439 433 439 433 438 c 0
 433 437 427 410 426 407 c 0
 426 405 433 405 566 405 c 0
 698 405 706 405 706 407 c 0xf680
 707 408 708 415 710 424 c 2
 713 439 l 1xf180
 737 439 l 2
 750 439 761 439 761 438 c 0xf280
 761 434 723 259 721 249 c 1
 673 249 l 1
 673 249 680 282 680 283 c 1
 400 283 l 1
EndSplineSet
EndChar

StartChar: Kappa
Encoding: 922 922 75
Width: 966
Flags: W
HStem: 1 47<393 395 605 608> 629 56<787 834.5> 638 48<204 248 204 301 535.5 553>
VStem: 176 144<48.5 49> 301 144<636 638 636 638>
LayerCount: 2
Fore
SplineSet
176 49 m 0xb0
 295 610 301 633 301 638 c 1
 248 638 l 2
 205 638 194 638 194 639 c 0
 194 640 196 651 199 663 c 2
 204 686 l 1
 217 686 l 2
 250 684 313 684 378 684 c 0
 446 684 508 686 563 686 c 1
 563 686 554 642 553 641 c 2
 553 638 l 1
 445 638 l 1xa8
 445 636 l 2
 443 627 377 318 377 317 c 1
 378 317 833 626 835 628 c 1
 835 628 835 629 834 629 c 0xc8
 832 632 807 637 784 638 c 0
 772 638 770 639 770 640 c 0
 770 641 772 651 775 664 c 2
 780 686 l 1xa8
 787 685 l 2xc8
 796 685 909 683 932 683 c 0
 949 683 962 684 978 684 c 0
 999 685 1020 685 1023 686 c 2
 1030 686 l 1
 1027 673 l 2
 1025 666 1023 655 1022 649 c 2
 1020 638 l 1
 1004 638 l 2
 975 638 936 635 924 631 c 0
 920 631 916 629 914 628 c 0
 906 624 727 501 612 424 c 1
 607 420 l 1
 714 239 l 2
 773 139 822 57 824 56 c 0
 826 54 829 52 832 52 c 0
 839 49 863 48 889 48 c 2
 911 48 l 1
 911 47 901 1 901 0 c 1
 900 0 887 1 870 1 c 0
 851 2 801 2 749 2 c 0
 697 2 642 2 616 1 c 0
 594 1 577 0 576 0 c 1
 576 2 586 48 586 48 c 1
 608 48 l 2
 629 49 657 50 657 56 c 0
 657 67 491 341 490 341 c 0
 489 340 366 257 364 255 c 2
 364 255 320 51 320 49 c 0
 320 48 331 48 374 48 c 0
 416 48 427 48 427 47 c 0
 427 46 425 35 422 23 c 2
 417 1 l 1
 408 1 l 2
 378 1 275 3 231 3 c 0
 174 3 110 0 58 0 c 1
 58 1 65 35 68 46 c 2
 68 48 l 1
 122 48 l 2
 152 48 176 48 176 49 c 0xb0
EndSplineSet
EndChar

StartChar: Lambda
Encoding: 923 923 76
Width: 866
Flags: MW
HStem: 1 47<283 289 289 295 503 514 776 785> 678 20G<568 585.5>
VStem: 579 154<48.5 49>
LayerCount: 2
Fore
SplineSet
56 0 m 1
 58 9 65 42 66 47 c 0
 66 48 77 48 91 48 c 0
 126 49 148 52 155 56 c 0
 163 60 537 677 546 686 c 0
 553 695 560 698 576 698 c 0
 595 698 607 697 612 685 c 2
 612 685 732 51 733 50 c 2
 733 48 l 1
 776 48 l 2
 800 48 819 48 819 47 c 0
 819 46 809 1 809 0 c 1
 809 0 794 1 776 1 c 0
 756 2 704 2 650 2 c 0
 596 2 540 2 514 1 c 0
 492 1 475 0 474 0 c 1
 474 1 482 38 484 46 c 2
 484 48 l 1
 532 48 l 2
 569 48 579 48 579 49 c 2
 492 504 l 2
 491 505 219 61 219 59 c 0
 219 51 272 48 294 48 c 0
 304 48 305 48 305 46 c 0
 305 45 303 35 300 23 c 2
 295 1 l 1
 289 1 l 2
 269 1 188 3 159 3 c 0
 121 3 87 0 56 0 c 1
EndSplineSet
EndChar

StartChar: Mu
Encoding: 924 924 77
Width: 1164
Flags: MW
HStem: 1 47<314.5 326 326 332 1078 1083> 638 48<251 305 251 251 1129 1129 1129 1237>
VStem: 877 127<48.5 49>
LayerCount: 2
Fore
SplineSet
192 3 m 0
 149 3 101 1 62 0 c 1
 62 1 70 41 72 46 c 0
 72 48 74 48 91 48 c 0
 122 48 163 51 174 54 c 0
 176 55 179 56 180 57 c 0
 182 58 191 99 244 348 c 0
 277 507 305 637 305 638 c 1
 251 638 l 1
 197 639 l 1
 200 655 204 670 207 686 c 1
 327 686 l 2
 410 686 449 686 452 685 c 0
 457 683 463 679 465 675 c 0
 467 671 608 133 608 132 c 2
 610 128 l 1
 795 398 l 2
 896 547 981 670 984 673 c 0
 988 677 996 682 1003 686 c 1
 1247 686 l 1
 1247 684 1237 638 1237 638 c 1
 1129 638 l 1
 1129 636 l 2
 1127 631 1004 50 1004 49 c 0
 1004 48 1027 48 1058 48 c 0
 1108 48 1111 48 1111 46 c 0
 1111 45 1109 35 1106 23 c 2
 1101 1 l 1
 1093 1 l 2
 1063 1 966 3 923 3 c 0
 869 3 808 1 759 0 c 1
 759 1 767 41 769 46 c 0
 769 48 773 48 823 48 c 0
 853 48 877 48 877 49 c 0
 902 167 989 580 1002 639 c 1
 722 234 577 17 570 12 c 0
 565 4 555 1 543 1 c 0
 527 1 521 7 517 18 c 0
 516 21 358 625 358 626 c 1
 356 616 238 69 238 57 c 0
 238 52 284 48 324 48 c 0
 340 48 342 48 342 46 c 0
 342 45 340 35 337 23 c 2
 332 1 l 1
 326 1 l 2
 303 1 226 3 192 3 c 0
EndSplineSet
EndChar

StartChar: Nu
Encoding: 925 925 78
Width: 964
Flags: MW
HStem: 0 48 638 48<247 301 247 247 1030.5 1041>
LayerCount: 2
Fore
SplineSet
188 3 m 0
 145 3 97 1 58 0 c 1
 58 1 66 41 68 46 c 0
 68 48 70 48 87 48 c 0
 118 48 159 51 170 54 c 0
 172 55 175 56 176 57 c 0
 178 58 187 99 240 348 c 0
 273 507 301 637 301 638 c 1
 247 638 l 1
 193 639 l 1
 196 655 200 670 203 686 c 1
 451 686 l 1
 463 680 467 670 622 441 c 0
 744 260 785 200 785 202 c 0
 786 203 876 627 876 628 c 0
 876 630 866 633 856 634 c 0
 839 637 828 637 798 638 c 2
 770 639 l 1
 775 662 l 1
 781 686 l 1
 791 686 l 2
 816 684 863 684 912 684 c 0
 963 684 1010 686 1051 686 c 1
 1051 684 1041 638 1041 638 c 1
 1022 638 l 2
 979 638 934 638 930 624 c 0
 929 619 828 142 807 45 c 0
 799 8 798 6 791 2 c 0
 787 0 785 0 774 0 c 0
 760 0 756 1 751 6 c 2
 348 601 l 1
 346 592 234 69 234 57 c 0
 234 49 289 48 319 48 c 0
 336 48 338 48 338 46 c 0
 338 45 336 35 333 23 c 2
 328 1 l 1
 322 1 l 2
 299 1 222 3 188 3 c 0
EndSplineSet
EndChar

StartChar: Omicron
Encoding: 927 927 79
Width: 930
Flags: MW
HStem: -11 44<414 472> 656 40<585.5 614.5 585.5 640>
VStem: 144 150<168.5 241.5 165.5 265.5> 784 145<417.5 488>
LayerCount: 2
Fore
SplineSet
460 -11 m 0
 274 -11 144 79 144 258 c 0
 144 273 145 288 146 298 c 0
 174 510 321 652 514 688 c 0
 539 692 567 696 604 696 c 0
 625 696 654 696 664 695 c 0
 813 679 914 601 928 454 c 0
 929 447 929 437 929 427 c 0
 929 408 928 387 926 374 c 0
 896 160 737 19 533 -6 c 0
 508 -9 484 -11 460 -11 c 0
294 225 m 0
 294 106 354 33 474 33 c 0
 486 33 497 33 505 34 c 0
 573 46 639 83 677 134 c 0
 724 192 753 266 774 381 c 0
 781 412 783 435 784 462 c 0
 784 514 778 551 757 583 c 0
 728 627 675 656 605 656 c 0
 518 656 459 622 413 575 c 0
 360 522 331 455 308 341 c 0
 299 296 294 258 294 225 c 0
EndSplineSet
EndChar

StartChar: Pi
Encoding: 928 928 80
Width: 964
Flags: MW
HStem: 1 47<393 399 881 887> 632 48<202 214 202 246 192 214 607.5 616 1029 1040>
VStem: 176 144<48.5 49> 664 144<48.5 49>
LayerCount: 2
Fore
SplineSet
192 634 m 2
 194 641 201 672 202 680 c 1
 214 680 l 2
 223 678 350 677 374 677 c 0
 440 677 536 680 679 680 c 0
 813 680 791 678 900 678 c 0
 952 678 1008 680 1050 680 c 1
 1050 680 1047 669 1045 656 c 2
 1040 632 l 1
 932 632 l 1
 870 341 l 2
 836 181 808 50 808 49 c 0
 808 48 819 48 862 48 c 0
 912 48 915 48 915 46 c 0
 915 45 913 35 910 23 c 2
 905 1 l 1
 896 1 l 2
 866 1 763 3 719 3 c 0
 662 3 598 1 546 0 c 1
 546 1 554 41 556 46 c 0
 556 48 560 48 610 48 c 0
 640 48 664 48 664 49 c 2
 664 49 787 628 788 630 c 0
 788 632 780 632 616 632 c 2
 444 632 l 1
 382 341 l 2
 348 181 320 50 320 49 c 0
 320 48 331 48 374 48 c 0
 424 48 427 48 427 46 c 0
 427 45 425 35 422 23 c 2
 417 1 l 1
 408 1 l 2
 378 1 275 3 231 3 c 0
 174 3 110 1 58 0 c 1
 58 1 66 41 68 46 c 0
 68 48 72 48 122 48 c 0
 152 48 176 48 176 49 c 2
 176 49 299 628 300 630 c 0
 300 632 297 632 246 632 c 2
 192 632 l 1
 192 634 l 2
EndSplineSet
EndChar

StartChar: Chi
Encoding: 935 935 81
Width: 933
Flags: MW
HStem: 0 48<60 70.5 327 338 882.5 883> 638 48<212 225 212 301 201 225 531 548 690 698>
LayerCount: 2
Fore
SplineSet
326 0 m 2
 297 2 244 2 191 2 c 0
 136 2 91 0 50 0 c 1
 50 0 53 11 55 24 c 2
 60 48 l 1
 81 48 l 2
 124 48 167 50 188 57 c 0
 192 59 468 331 469 333 c 0
 469 334 431 403 385 486 c 2
 301 638 l 1
 201 638 l 1
 206 662 l 1
 212 686 l 1
 225 686 l 2
 256 684 314 684 375 684 c 0
 438 684 504 686 558 686 c 1
 558 686 555 675 553 662 c 2
 548 638 l 1
 467 638 l 1
 522 539 l 2
 552 484 577 440 577 440 c 2
 578 440 766 626 767 627 c 0
 767 634 724 637 698 638 c 0
 680 638 680 638 681 640 c 0
 681 641 690 685 690 686 c 1
 732 686 776 684 840 684 c 0
 886 684 930 684 948 685 c 0
 964 685 977 686 977 686 c 2
 978 686 975 675 973 662 c 2
 968 638 l 1
 934 638 l 2
 884 637 848 633 840 629 c 0
 836 627 602 396 602 394 c 2
 602 394 645 316 698 221 c 2
 794 48 l 1
 893 48 l 1
 893 47 883 1 883 0 c 1
 882 0 867 1 848 1 c 0
 826 2 773 2 717 2 c 0
 661 2 604 2 578 1 c 0
 556 1 537 0 537 0 c 1
 537 3 545 40 547 48 c 1
 587 48 l 2
 619 48 627 48 627 49 c 0
 625 54 494 288 494 288 c 2
 493 288 440 236 376 173 c 0
 282 80 261 59 261 57 c 0
 261 54 315 48 339 48 c 0
 346 48 348 48 348 47 c 0
 347 46 345 35 342 23 c 2
 338 0 l 1
 326 0 l 2
EndSplineSet
EndChar

StartChar: Rho
Encoding: 929 929 82
Width: 847
Flags: W
HStem: 1 47<393 395> 301 43<376 376 376 475 373 376> 638 45<361.5 439 361.5 529>
VStem: 176 144<48.5 49> 194 10 724 149<545 565>
LayerCount: 2
Fore
SplineSet
176 49 m 0xf4
 295 610 301 633 301 638 c 1
 248 638 l 2
 201 638 194 638 194 639 c 0
 194 641 203 683 204 685 c 0xec
 204 686 206 686 216 686 c 0
 229 684 348 683 375 683 c 0
 440 683 500 686 575 686 c 0
 624 686 666 685 676 684 c 0
 780 674 873 628 873 524 c 0
 873 449 820 387 768 356 c 0
 719 325 660 307 590 302 c 0
 582 301 536 301 475 301 c 2
 373 301 l 1
 347 175 l 2
 332 106 320 49 320 49 c 2
 320 48 344 48 374 48 c 0
 416 48 427 48 427 47 c 0
 427 46 425 35 422 23 c 2
 417 1 l 1
 408 1 l 2
 378 1 275 3 231 3 c 0
 174 3 110 0 58 0 c 1
 58 1 65 35 68 46 c 2
 68 48 l 1
 122 48 l 2
 152 48 176 48 176 49 c 0xf4
632 636 m 0
 620 637 608 637 529 638 c 2
 439 638 l 1
 437 628 424 570 407 486 c 2
 376 344 l 1
 455 343 l 2
 534 343 556 344 576 347 c 0
 632 354 673 378 694 420 c 0
 703 439 708 455 716 496 c 0
 722 524 724 537 724 553 c 0
 724 577 719 591 707 604 c 0
 690 621 667 631 632 636 c 0
EndSplineSet
EndChar

StartChar: Sigma
Encoding: 931 931 83
Width: 894
Flags: MW
HStem: 0 68<229 441> 638 48<412 523 412 412>
VStem: 860 67
LayerCount: 2
Fore
SplineSet
222 667 m 0
 226 680 228 682 237 686 c 1
 928 686 l 1
 927 680 l 2
 927 677 922 623 917 560 c 2
 906 445 l 1
 882 444 l 1
 858 444 l 1
 859 456 l 2
 860 462 860 468 860 475 c 0
 860 561 827 609 758 626 c 0
 715 636 679 638 523 638 c 2
 412 638 l 1
 504 494 l 2
 554 415 595 349 596 347 c 0
 597 343 597 339 594 334 c 0
 592 331 553 302 411 199 c 2
 229 68 l 1
 369 67 l 2
 511 67 549 68 584 71 c 0
 630 75 667 84 695 97 c 0
 745 122 790 178 815 249 c 1
 820 261 l 1
 843 261 l 2
 856 261 867 261 867 260 c 2
 867 260 840 178 800 56 c 2
 782 0 l 1
 441 0 l 2
 136 0 100 0 96 2 c 0
 89 5 80 15 87 26 c 0
 90 31 68 15 277 166 c 0
 372 235 449 292 449 292 c 1
 447 294 224 646 222 648 c 0
 220 652 220 658 222 667 c 0
EndSplineSet
EndChar

StartChar: Tau
Encoding: 932 932 84
Width: 864
Flags: MW
HStem: 0 48<207 294 655.5 656> 627 48
VStem: 370 144<48.5 49> 850 48<433 437 433 437>
LayerCount: 2
Fore
SplineSet
207 0 m 1
 209 7 216 40 217 48 c 1
 294 48 l 2
 336 48 370 48 370 49 c 2
 370 49 492 623 493 625 c 0
 493 627 491 627 435 627 c 0
 374 626 366 626 345 621 c 0
 307 613 275 594 256 569 c 0
 235 542 220 509 201 445 c 2
 197 433 l 1
 173 433 l 2
 154 433 149 433 149 434 c 0
 150 435 166 489 186 555 c 2
 221 675 l 1
 346 675 l 2
 449 675 506 672 575 672 c 0
 644 672 700 675 803 675 c 0
 928 675 928 675 928 673 c 0
 928 671 900 444 898 437 c 2
 898 433 l 1
 850 433 l 1
 850 437 l 1
 854 462 857 503 857 523 c 0
 855 559 849 579 832 595 c 0
 820 607 808 614 788 619 c 0
 766 626 746 627 685 627 c 2
 637 627 l 1
 575 339 l 2
 542 180 514 50 514 49 c 0
 514 48 530 48 590 48 c 2
 666 48 l 1
 666 45 l 2
 665 44 656 1 656 0 c 1
 655 0 634 1 607 1 c 0
 576 2 504 2 432 2 c 0
 360 2 289 2 257 1 c 0
 230 1 208 0 207 0 c 1
EndSplineSet
EndChar

StartChar: Upsilon
Encoding: 933 933 85
Width: 961
Flags: W
HStem: 3 45 581 115<323 381 844 874>
VStem: 198 53 419 144<48.5 49> 489 90<401 476> 942 57<563 566.5>
LayerCount: 2
Fore
SplineSet
221 531 m 0xec
 204 531 198 533 198 544 c 0
 198 548 199 554 202 563 c 0
 223 629 285 685 368 696 c 1
 381 696 l 2
 443 696 478 682 512 648 c 0
 551 609 574 550 579 476 c 1
 579 465 l 1xec
 587 481 l 2
 633 572 695 638 765 672 c 0
 798 688 821 696 867 696 c 0
 939 696 985 657 997 601 c 0
 998 595 999 587 999 579 c 0
 999 547 995 531 965 531 c 0
 947 531 942 532 942 551 c 0
 942 582 898 581 850 581 c 0
 825 581 813 579 795 573 c 0
 743 556 695 510 661 444 c 0
 647 417 635 386 629 358 c 0
 626 346 567 71 563 51 c 1
 563 48 l 1
 630 48 l 2
 683 48 697 48 697 47 c 0
 697 46 695 35 692 23 c 2
 687 1 l 1
 677 1 l 2
 642 1 523 3 472 3 c 0
 407 3 334 0 274 0 c 1
 274 1 281 35 284 46 c 2
 284 48 l 1
 352 48 l 2
 389 48 419 48 419 49 c 2xf4
 419 49 480 336 483 347 c 0
 487 368 489 387 489 415 c 0
 489 505 453 568 386 580 c 0
 380 581 362 581 345 581 c 0
 301 581 260 578 251 548 c 0
 250 542 244 535 239 533 c 0
 235 531 232 531 221 531 c 0xec
EndSplineSet
EndChar

StartChar: uni1FDE
Encoding: 8158 8158 86
Width: 361
Flags: MW
HStem: 576 118<232 256.5>
VStem: 143 27<576.5 590>
LayerCount: 2
Fore
SplineSet
417 710 m 0
 421 711 426 712 430 712 c 0
 462 712 497 683 482 644 c 0
 479 636 472 625 464 617 c 0
 455 608 315 495 306 488 c 0
 303 490 289 499 289 500 c 2
 289 500 362 655 368 668 c 0
 377 686 388 698 403 705 c 0
 407 707 413 710 417 710 c 0
189 629 m 1
 181 621 170 599 170 582 c 0
 170 571 175 561 183 553 c 0
 198 538 225 529 259 527 c 0
 269 527 272 526 275 525 c 0
 284 520 284 506 275 501 c 0
 271 499 263 498 246 500 c 0
 199 505 164 524 150 551 c 0
 144 562 143 570 143 583 c 0
 143 597 146 609 152 623 c 0
 170 661 208 694 256 694 c 0
 289 694 309 677 309 645 c 0
 309 603 274 576 239 576 c 0
 211 576 191 594 189 621 c 2
 189 629 l 1
EndSplineSet
EndChar

StartChar: uni03A9
Encoding: 937 937 87
Width: 894
Flags: W
HStem: 0 104<258 303 258 326 655 683> 660 37<521.5 626.5>
VStem: 104 244<0 128 16 128> 110 48<193 201 145 201> 174 150<408.5 421> 762 151<503 515.5 489.5 535.5>
LayerCount: 2
Fore
SplineSet
104 16 m 2xe4
 105 28 108 181 110 193 c 2
 110 201 l 1
 158 201 l 1
 158 167 l 2
 158 123 159 116 168 111 c 0
 179 106 198 104 258 104 c 2
 303 104 l 1
 284 161 284 161 242 231 c 0
 203 296 190 324 180 362 c 0
 175 383 174 396 174 421 c 0
 177 481 195 520 227 559 c 0
 236 571 260 595 273 605 c 0
 349 665 456 697 587 697 c 0
 710 697 806 671 863 614 c 0
 896 581 913 538 913 493 c 0
 913 486 913 478 912 470 c 0
 906 426 886 382 852 336 c 0
 832 310 817 294 748 225 c 0
 708 185 674 151 667 142 c 0
 655 128 638 106 638 105 c 0
 638 104 648 104 662 104 c 0
 715 104 751 103 775 112 c 0
 783 116 793 134 810 175 c 0
 815 187 819 198 820 199 c 0
 821 201 821 201 845 201 c 2
 869 201 l 1
 842 134 816 68 789 1 c 1
 683 0 l 2
 611 0 575 0 573 1 c 0
 565 3 560 10 560 18 c 0
 560 27 572 69 583 96 c 0
 599 135 616 169 661 249 c 0
 707 330 723 362 739 404 c 0
 754 446 762 486 762 520 c 0
 762 551 756 577 743 596 c 0
 716 637 664 660 589 660 c 0
 415 660 324 544 324 369 c 0xdc
 324 337 327 309 336 247 c 0
 348 160 348 152 348 104 c 0
 348 61 346 10 331 2 c 2
 326 0 l 1
 104 0 l 1
 104 16 l 2xe4
EndSplineSet
EndChar

StartChar: Xi
Encoding: 926 926 88
Width: 828
Flags: MW
HStem: 0 113<418 540 418 754> 295 113<291 686> 560 115
VStem: 109 40 276 48<452 452.5 452 453 452 453> 695 48<450 453> 755 53<192 210> 809 48<477 478>
LayerCount: 2
Fore
SplineSet
809 478 m 0
 812 484 816 516 816 530 c 0
 816 543 813 553 810 556 c 0
 808 557 799 559 782 560 c 0
 771 561 651 562 532 562 c 0
 413 562 293 561 283 560 c 0
 259 558 255 557 250 553 c 0
 242 545 233 523 224 491 c 2
 220 477 l 1
 196 476 l 1
 172 476 l 1
 179 504 l 2
 183 520 195 565 205 604 c 2
 223 675 l 1
 557 675 l 2
 862 675 890 675 890 673 c 0
 890 672 858 483 857 478 c 2
 857 476 l 1
 833 476 l 2
 810 476 809 476 809 478 c 0
652 252 m 0
 653 253 661 293 662 294 c 0
 662 295 625 295 476 295 c 2
 291 295 l 1
 286 275 l 2
 284 264 282 254 282 252 c 2
 281 250 l 1
 257 250 l 2
 234 250 233 250 233 252 c 0
 234 253 273 439 276 450 c 2
 276 453 l 1
 300 453 l 2
 313 453 324 453 324 452 c 0
 317 418 316 413 315 409 c 0
 315 408 398 408 500 408 c 2
 686 408 l 1
 689 423 l 2
 692 436 694 443 695 453 c 1
 743 453 l 1
 743 450 l 2
 740 439 701 253 700 252 c 0
 700 250 698 250 676 250 c 0
 653 250 652 250 652 252 c 0
73 3 m 2
 76 6 106 206 109 209 c 0
 109 210 115 210 133 210 c 2
 157 210 l 1
 155 199 l 2
 151 177 149 158 149 144 c 0
 149 127 150 118 163 118 c 0
 180 114 193 114 418 113 c 0
 662 113 694 113 718 118 c 0
 725 120 730 124 737 139 c 0
 743 151 748 167 755 192 c 2
 760 210 l 1
 808 210 l 1
 781 105 l 2
 766 48 754 0 754 0 c 1
 73 0 l 1
 73 3 l 2
EndSplineSet
EndChar

StartChar: Psi
Encoding: 936 936 89
Width: 961
Flags: W
HStem: 3 45<284 492> 510 37<202 287> 638 48<420 435 420 544 409 435 791.5 812>
VStem: 230 128<339 341 293 352 293 365.5> 241 132<457 467 457 476> 450 133<196.5 197> 544 133<637 638 637 638 637 638>
LayerCount: 2
Fore
SplineSet
450 197 m 0xf4
 453 200 541 633 544 636 c 2
 544 638 l 1
 409 638 l 1
 414 662 l 1
 420 686 l 1
 435 686 l 2
 472 684 543 684 616 684 c 0
 692 684 761 686 822 686 c 1
 822 686 813 642 812 641 c 2
 812 638 l 1
 677 638 l 1xe2
 677 636 584 199 583 198 c 0
 583 195 584 196 601 201 c 0
 636 213 663 229 688 253 c 0
 727 292 750 338 769 420 c 0
 774 442 780 460 789 477 c 0
 808 516 832 539 862 545 c 0
 869 547 879 547 923 547 c 0
 980 547 980 547 986 542 c 0
 989 539 991 534 991 529 c 0
 991 520 985 512 977 511 c 0
 963 509 960 508 954 505 c 0
 946 501 934 490 927 479 c 0
 915 461 907 441 899 407 c 0
 886 352 867 311 836 273 c 0
 784 206 696 165 590 155 c 2
 574 153 l 2
 574 152 554 62 552 52 c 2
 552 48 l 1
 619 48 l 2
 672 48 686 48 686 47 c 0
 686 46 684 35 681 23 c 2
 676 1 l 1
 666 1 l 2
 632 1 517 3 467 3 c 0
 404 3 333 0 274 0 c 1
 274 1 281 35 284 46 c 2
 284 48 l 1
 419 48 l 1
 419 51 l 1
 441 153 l 2
 441 154 439 154 436 154 c 0
 332 169 258 209 236 294 c 0
 232 312 230 320 230 339 c 2
 230 352 l 2xf4
 230 379 230 386 235 412 c 0
 239 432 241 448 241 462 c 0
 241 490 232 510 212 510 c 0
 192 510 186 536 203 545 c 0
 208 547 209 547 262 547 c 0
 312 547 316 547 323 545 c 0
 356 537 370 510 373 467 c 0xe8
 373 447 372 434 367 410 c 0
 360 371 358 354 358 328 c 0
 358 258 385 215 439 199 c 0
 449 195 450 195 450 197 c 0xf4
EndSplineSet
EndChar

StartChar: Zeta
Encoding: 918 918 90
Width: 761
Flags: MW
HStem: 0 53<264 264 264 382> 638 48<558 645 558 558>
VStem: 698 48<282 285>
LayerCount: 2
Fore
SplineSet
746 284 m 0
 746 280 673 23 668 0 c 1
 382 0 l 2
 72 0 91 0 88 5 c 0
 82 13 87 30 90 38 c 0
 93 48 631 624 645 638 c 1
 558 638 l 2
 466 637 461 637 431 632 c 0
 365 621 314 589 279 535 c 0
 262 510 247 474 240 444 c 1
 216 444 l 2
 198 444 192 444 192 445 c 0
 192 446 253 682 255 685 c 0
 255 686 311 686 533 686 c 0
 790 686 810 686 814 684 c 0
 818 682 821 678 821 672 c 0
 821 664 817 650 814 646 c 0
 813 644 688 510 538 348 c 2
 264 53 l 1
 342 52 l 2
 424 52 449 53 476 56 c 0
 571 68 633 115 671 205 c 0
 679 221 690 253 695 273 c 2
 698 285 l 1
 722 285 l 2
 738 285 746 285 746 284 c 0
EndSplineSet
EndChar

StartChar: bracketleft
Encoding: 91 91 91
Width: 361
Flags: MW
HStem: -250 62<170 181 181 267> 688 62<356 393 393 411 356 356>
LayerCount: 2
Fore
SplineSet
202 252 m 2
 307 750 l 1
 393 750 l 2
 461 750 479 750 479 749 c 0
 479 748 476 734 473 718 c 2
 466 689 l 1
 411 688 l 1
 356 688 l 1
 356 685 l 2
 353 673 171 -184 171 -186 c 2
 170 -188 l 1
 280 -188 l 1
 280 -190 l 2
 279 -193 267 -249 267 -250 c 1
 181 -250 l 2
 99 -250 95 -250 95 -248 c 0
 95 -247 143 -22 202 252 c 2
EndSplineSet
EndChar

StartChar: uni1FCF
Encoding: 8143 8143 92
Width: 428
Flags: MW
HStem: 488 28<300.5 304.5 300 322> 524 67 596 36<428 436.5> 657 36<253.5 273>
VStem: 145 59 297 85<545.5 559 529 566> 497 59
LayerCount: 2
Fore
SplineSet
172 659 m 0
 195 678 227 693 267 693 c 0
 328 693 355 684 389 654 c 0
 402 642 408 638 414 635 c 0
 419 633 425 632 431 632 c 0
 464 632 491 657 497 681 c 0
 501 693 503 694 527 694 c 0
 548 694 551 693 555 688 c 0
 558 684 558 680 556 672 c 0
 545 631 505 607 461 598 c 0
 450 596 447 596 426 596 c 0
 372 596 345 606 313 635 c 0
 299 647 293 651 287 654 c 0
 282 656 276 657 270 657 c 0
 237 657 210 632 204 608 c 0
 200 596 198 595 174 595 c 0
 153 595 150 596 146 601 c 0
 143 605 143 609 145 617 c 0
 149 632 160 648 172 659 c 0
328 524 m 2
 310 524 297 536 297 555 c 0
 297 577 318 599 348 591 c 0
 369 586 382 569 382 549 c 0
 382 509 342 488 302 488 c 0
 299 488 296 488 294 489 c 0
 284 494 283 510 293 514 c 0
 295 515 299 516 301 516 c 0
 308 516 319 518 327 521 c 0
 338 524 338 525 331 524 c 2
 328 524 l 2
EndSplineSet
EndChar

StartChar: bracketright
Encoding: 93 93 93
Width: 361
Flags: MW
HStem: -250 62<0 110 0 159 -13 110> 688 62<241 285 285 296 241 241>
LayerCount: 2
Fore
SplineSet
371 749 m 0
 371 745 171 -189 159 -250 c 1
 -13 -250 l 1
 -13 -249 -1 -193 0 -190 c 2
 0 -188 l 1
 110 -188 l 1
 111 -186 l 2
 111 -184 293 673 296 685 c 2
 296 688 l 1
 241 688 l 1
 186 689 l 1
 193 719 l 1
 199 750 l 1
 285 750 l 2
 340 750 371 750 371 749 c 0
EndSplineSet
EndChar

StartChar: uni1FCE
Encoding: 8142 8142 94
Width: 361
Flags: MW
HStem: 499 28<152.5 156 150 159> 576 118<208 224>
VStem: 159 149<619 626 626 638 575.5 645.5>
LayerCount: 2
Fore
SplineSet
417 710 m 0
 421 711 426 712 430 712 c 0
 462 712 497 683 482 644 c 0
 479 636 472 625 464 617 c 0
 455 608 315 495 306 488 c 0
 303 490 289 499 289 500 c 2
 289 500 362 655 368 668 c 0
 377 686 388 698 403 705 c 0
 407 707 413 710 417 710 c 0
208 576 m 0
 183 576 159 591 159 619 c 2
 159 626 l 2
 159 665 189 694 227 694 c 0
 276 694 308 663 308 613 c 0
 308 538 233 503 159 499 c 0
 146 499 144 499 141 501 c 0
 132 506 131 518 139 524 c 0
 141 526 144 527 156 527 c 0
 222 531 268 558 279 598 c 0
 282 610 280 627 277 634 c 1
 271 599 240 576 208 576 c 0
EndSplineSet
EndChar

StartChar: uni1FCD
Encoding: 8141 8141 95
Width: 361
Flags: MW
HStem: 499 28<137.5 141 135 144> 576 118<193 209>
VStem: 144 149<619 626 626 638 575.5 645.5> 302 131<500 661>
LayerCount: 2
Fore
SplineSet
302 641 m 0
 302 681 344 712 382 712 c 0
 404 712 420 700 425 679 c 0
 426 673 430 591 433 507 c 2
 433 500 l 1
 426 496 418 492 411 488 c 1
 362 549 l 2
 335 583 311 612 310 615 c 0
 305 623 302 632 302 641 c 0
193 576 m 0
 168 576 144 591 144 619 c 2
 144 626 l 2
 144 665 174 694 212 694 c 0
 261 694 293 663 293 613 c 0
 293 538 218 503 144 499 c 0
 131 499 129 499 126 501 c 0
 117 506 116 518 124 524 c 0
 126 526 129 527 141 527 c 0
 207 531 253 558 264 598 c 0
 267 610 265 627 262 634 c 1
 256 599 225 576 193 576 c 0
EndSplineSet
EndChar

StartChar: uni1FEF
Encoding: 8175 8175 96
Width: 228
Flags: MW
HStem: 490 221<221.5 267>
VStem: 158 132<501 660.5>
LayerCount: 2
Fore
SplineSet
158 641 m 0
 158 680 203 711 240 711 c 0
 262 711 278 699 282 676 c 0
 283 670 290 518 290 502 c 0
 290 500 289 499 279 494 c 0
 272 490 268 489 267 490 c 0
 266 490 244 518 217 551 c 0
 163 617 161 621 159 635 c 0
 159 637 158 639 158 641 c 0
EndSplineSet
EndChar

StartChar: alpha
Encoding: 945 945 97
Width: 655
Flags: MW
HStem: -5 98<238 276> 351 99<351 353 353 361.5>
VStem: 104 51<147 164> 637 50
LayerCount: 2
Fore
SplineSet
264 -5 m 0
 162 -5 104 55 104 157 c 0
 104 171 105 188 107 199 c 0
 125 325 198 417 299 443 c 0
 316 447 329 450 351 450 c 2
 353 450 l 2
 413 450 455 414 479 345 c 0
 484 330 493 296 493 292 c 0
 493 290 493 290 494 291 c 0
 498 295 541 365 577 426 c 0
 586 442 589 447 592 448 c 0
 595 450 599 450 642 450 c 0
 693 450 693 450 697 444 c 0
 699 442 699 439 699 436 c 0
 699 432 698 428 682 401 c 0
 612 282 567 213 523 158 c 2
 520 154 l 1
 534 123 549 93 592 93 c 0
 611 93 630 99 637 106 c 0
 646 119 642 126 666 126 c 0
 688 126 693 122 687 100 c 0
 674 49 637 8 597 -3 c 0
 591 -5 584 -6 576 -6 c 0
 516 -6 490 49 476 104 c 1
 462 91 l 2
 415 45 367 15 321 2 c 0
 298 -4 288 -5 264 -5 c 0
155 182 m 0
 155 112 203 93 273 93 c 0
 280 93 287 93 292 94 c 0
 336 102 385 141 442 216 c 0
 448 224 453 231 453 232 c 0
 453 246 442 270 436 285 c 0
 415 326 386 351 337 351 c 0
 290 351 247 342 219 321 c 0
 182 293 155 243 155 182 c 0
EndSplineSet
EndChar

StartChar: beta
Encoding: 946 946 98
Width: 628
Flags: W
HStem: -6 60<245.5 384.5> 345 99<375 382> 646 53<434 503.5>
VStem: 535 77<228 317> 559 63<556.5 614>
LayerCount: 2
Fore
SplineSet
33 -271 m 0xf0
 2 -271 -26 -250 -16 -211 c 0
 -16 -208 -11 -195 -6 -183 c 0
 27 -103 54 -21 74 59 c 0
 82 90 83 93 128 305 c 0
 151 411 170 502 171 507 c 0
 203 619 300 689 434 699 c 1
 450 699 l 2
 467 699 491 699 497 698 c 0
 563 687 602 659 620 601 c 0
 622 592 622 590 622 569 c 0xe8
 622 544 622 539 616 517 c 0
 604 477 576 435 545 409 c 2
 536 402 l 1
 545 395 l 2
 586 364 612 319 612 250 c 0
 612 206 602 177 587 147 c 0
 542 56 453 -6 316 -6 c 0
 300 -6 285 -5 278 -4 c 0
 218 6 172 31 127 69 c 1
 127 68 121 31 118 9 c 0
 108 -56 104 -111 102 -180 c 0
 101 -212 101 -216 99 -223 c 0
 92 -250 62 -271 33 -271 c 0xf0
559 595 m 0
 559 633 523 646 484 646 c 0
 478 646 472 646 468 645 c 0
 433 639 383 620 350 601 c 0
 306 576 269 537 249 497 c 0
 237 473 221 432 205 386 c 0
 183 319 168 263 146 160 c 2
 138 123 l 1
 147 113 l 2
 177 83 219 54 272 54 c 0
 299 54 327 62 360 78 c 0
 419 107 487 167 517 225 c 0
 529 247 535 276 535 296 c 0
 535 338 518 356 487 372 c 1
 453 357 404 345 360 345 c 0
 332 345 313 360 313 386 c 0
 313 406 325 428 345 438 c 0
 356 443 364 444 386 444 c 0
 409 443 429 441 447 437 c 1
 454 442 l 2
 486 463 515 492 533 522 c 0
 550 551 559 576 559 595 c 0
EndSplineSet
EndChar

StartChar: sigma1
Encoding: 962 962 99
Width: 589
Flags: MW
HStem: -124 98<344.5 366 344.5 375.5> 0 99 337 113
VStem: 104 53<195.5 198>
LayerCount: 2
Fore
SplineSet
522 5 m 0
 522 -85 423 -124 328 -124 c 0
 300 -124 295 -122 285 -108 c 0
 280 -101 277 -93 277 -84 c 0
 277 -65 288 -45 306 -34 c 0
 318 -27 323 -26 366 -26 c 0
 423 -25 451 -21 467 -14 c 2
 471 -11 l 1
 466 -10 l 2
 445 -3 394 0 320 0 c 0
 281 0 269 1 250 5 c 0
 175 20 122 69 107 138 c 0
 105 146 104 160 104 173 c 0
 104 223 122 260 143 293 c 0
 212 395 366 450 544 450 c 0
 584 450 608 439 608 404 c 0
 608 371 586 343 555 337 c 0
 549 335 541 335 511 335 c 0
 344 335 163 326 157 203 c 0
 157 188 158 180 162 169 c 0
 185 117 242 101 326 99 c 0
 425 97 522 86 522 5 c 0
EndSplineSet
EndChar

StartChar: delta
Encoding: 948 948 100
Width: 594
Flags: W
HStem: -6 48<280 307> 405 50<359.5 391.5> 523 82<582.5 600> 647 57<274 341.5>
VStem: 106 116<171 196 128 196.5> 207 41<581 592.5 581 605> 460 118<197 256.5>
LayerCount: 2
Fore
SplineSet
219 646 m 0xf6
 238 685 267 704 317 704 c 0
 366 704 431 683 525 640 c 0
 542 632 599 605 600 605 c 1
 600 604 583 524 583 523 c 1
 582 523 563 532 540 543 c 0
 470 578 431 596 389 613 c 0
 335 636 299 647 281 647 c 0
 267 647 268 643 259 627 c 0
 252 613 248 599 248 586 c 0xf6
 248 576 251 566 255 556 c 0
 270 524 305 495 370 464 c 0
 380 459 390 455 391 455 c 0
 392 455 393 455 393 454 c 0
 393 450 420 442 432 437 c 0
 446 431 462 423 468 420 c 0
 530 387 569 334 577 272 c 0
 578 267 578 260 578 253 c 0
 578 240 577 226 575 216 c 0
 555 103 449 14 335 -4 c 0
 326 -5 313 -6 301 -6 c 0
 194 -6 123 58 108 149 c 0
 107 155 106 166 106 176 c 0xfa
 106 217 115 246 129 278 c 0
 162 351 228 412 305 439 c 2
 315 443 l 1
 305 451 l 2
 261 486 207 536 207 597 c 0
 207 613 211 630 219 646 c 0xf6
222 166 m 0xfa
 222 90 247 42 313 42 c 0
 350 42 377 58 401 82 c 0
 440 120 460 171 460 223 c 0
 460 244 457 265 450 286 c 0
 437 323 410 363 375 395 c 0
 369 400 363 405 362 405 c 0
 357 405 343 400 334 395 c 0
 301 379 275 349 253 306 c 0
 233 261 222 226 222 166 c 0xfa
EndSplineSet
EndChar

StartChar: epsilon
Encoding: 949 949 101
Width: 572
Flags: MW
HStem: -11 99<253.5 301 253.5 320> 172 128<315.5 342.5> 356 99<335 433>
VStem: 134 53<261 342.5>
LayerCount: 2
Fore
SplineSet
156 239 m 0
 143 259 134 284 134 314 c 0
 134 371 157 393 196 417 c 0
 247 447 313 455 402 455 c 0
 464 455 534 453 575 446 c 0
 590 444 598 441 598 432 c 0
 598 426 593 414 577 376 c 0
 554 324 553 322 546 320 c 0
 544 320 528 323 493 331 c 0
 439 343 395 352 377 355 c 0
 367 356 361 356 335 356 c 0
 258 354 229 345 205 315 c 0
 193 301 187 285 187 271 c 2
 187 261 l 1
 188 261 192 263 197 266 c 0
 235 288 286 300 345 300 c 0
 377 300 401 283 401 251 c 0
 401 201 367 172 318 172 c 0
 265 172 221 184 190 206 c 2
 181 212 l 1
 170 201 165 183 165 162 c 0
 165 96 216 88 291 88 c 0
 311 88 332 89 343 90 c 0
 399 97 452 115 504 144 c 0
 514 149 520 152 522 152 c 0
 529 152 536 147 536 140 c 0
 536 134 531 123 515 85 c 0
 503 56 493 35 491 33 c 0
 489 30 486 29 473 24 c 0
 411 1 356 -11 284 -11 c 0
 189 -11 111 17 92 85 c 0
 90 93 90 97 90 109 c 0
 90 122 90 125 93 137 c 0
 102 172 120 204 147 229 c 0
 152 234 156 238 156 239 c 0
EndSplineSet
EndChar

StartChar: phi
Encoding: 966 966 102
Width: 728
Flags: W
HStem: 349 111 415 40<576 609>
VStem: 108 54<164 165.5 141 194> 258 115 654 64<336 343 224.5 371>
LayerCount: 2
Fore
SplineSet
579 455 m 0x78
 668 455 718 389 718 297 c 0
 718 152 640 66 531 23 c 0
 493 8 445 -2 404 -5 c 0
 397 -5 391 -6 391 -6 c 1
 385 -59 379 -118 378 -172 c 0
 378 -210 377 -219 373 -229 c 0
 363 -254 341 -271 306 -271 c 0
 275 -271 258 -253 258 -223 c 0
 259 -211 259 -210 278 -163 c 0
 293 -127 304 -97 315 -63 c 0
 324 -37 333 -6 333 -6 c 2
 333 -5 325 -5 316 -4 c 0
 220 6 153 44 123 106 c 0
 113 128 108 146 108 182 c 0
 108 206 108 212 114 236 c 0
 132 307 177 375 238 424 c 0
 263 444 280 454 295 458 c 0
 300 459 305 460 310 460 c 0
 337 460 359 439 359 407 c 0
 359 378 338 356 312 349 c 0xb8
 239 329 178 266 164 191 c 0
 162 183 162 171 162 160 c 0
 162 122 174 99 195 79 c 0
 218 56 255 43 300 43 c 0
 316 43 333 45 348 47 c 1
 352 66 l 2
 357 87 360 97 370 143 c 0
 392 248 409 305 433 351 c 0
 456 395 482 424 516 441 c 0
 535 450 557 455 579 455 c 0x78
654 350 m 0
 654 392 630 415 588 415 c 0
 564 415 541 404 525 393 c 0
 483 363 455 306 432 206 c 0
 427 186 407 92 404 77 c 0
 404 72 403 66 402 65 c 0
 402 63 402 63 412 67 c 0
 468 90 530 133 573 176 c 0
 595 199 610 220 624 248 c 0
 644 287 654 322 654 350 c 0
EndSplineSet
EndChar

StartChar: gamma
Encoding: 947 947 103
Width: 722
Flags: MW
HStem: 321 129<222 260.5>
VStem: 110 45 272 113<4.29497e+09 4.29497e+09>
LayerCount: 2
Fore
SplineSet
320 -200 m 0
 291 -200 272 -181 272 -153 c 0
 272 -146 273 -139 275 -130 c 0
 293 -51 319 29 351 98 c 2
 357 112 l 1
 355 129 l 2
 347 189 330 246 309 278 c 0
 303 288 286 305 278 310 c 0
 264 318 250 321 233 321 c 0
 211 321 188 316 175 310 c 0
 165 305 161 301 155 286 c 0
 151 278 149 278 132 278 c 0
 116 279 114 279 111 287 c 0
 109 290 109 291 110 299 c 0
 115 321 128 352 140 373 c 0
 167 415 200 441 239 449 c 0
 243 450 249 450 255 450 c 0
 266 450 278 449 286 447 c 0
 329 436 361 399 380 336 c 0
 389 308 400 255 405 222 c 2
 407 206 l 1
 419 225 l 2
 458 287 496 337 531 373 c 0
 572 413 607 435 646 445 c 0
 659 448 671 450 682 450 c 0
 717 450 740 430 740 396 c 0
 740 359 708 324 663 321 c 0
 641 320 632 318 614 311 c 0
 566 294 518 251 466 181 c 0
 451 161 435 138 423 117 c 2
 414 103 l 1
 414 71 l 2
 413 28 410 -11 403 -55 c 0
 398 -92 389 -143 385 -154 c 0
 376 -181 348 -200 320 -200 c 0
EndSplineSet
EndChar

StartChar: eta
Encoding: 951 951 104
Width: 628
Flags: W
HStem: -10 21G<190.5 216> 346 109<480.5 518>
VStem: 154 110 570 49<286.5 308.5>
LayerCount: 2
Fore
SplineSet
112 362 m 0
 112 408 161 455 217 455 c 1
 271 451 292 417 295 356 c 2
 296 340 l 1
 303 350 l 2
 355 419 416 455 483 455 c 0
 572 455 619 386 619 296 c 0
 619 277 617 257 613 236 c 0
 609 214 519 -209 517 -215 c 0
 510 -240 481 -261 453 -261 c 0
 425 -261 404 -244 404 -216 c 0
 404 -208 405 -198 410 -182 c 0
 423 -129 439 -87 485 16 c 0
 529 115 546 158 559 208 c 0
 566 238 570 269 570 289 c 0
 570 328 538 346 498 346 c 0
 463 346 438 336 411 309 c 0
 368 266 335 205 282 69 c 0
 274 50 266 31 264 27 c 0
 250 4 228 -10 204 -10 c 0
 177 -10 154 6 154 33 c 0
 154 42 158 53 170 84 c 0
 192 140 207 177 223 210 c 0
 235 236 238 268 238 298 c 0
 237 323 232 338 222 347 c 0
 217 352 208 356 207 354 c 0
 207 353 205 350 202 345 c 0
 192 331 177 321 155 321 c 0
 131 321 112 336 112 362 c 0
EndSplineSet
EndChar

StartChar: iota
Encoding: 953 953 105
Width: 355
Flags: MW
HStem: -9 138<210.5 211.5>
VStem: 124 67<61 171> 272 63<116 184.5>
LayerCount: 2
Fore
SplineSet
205 -9 m 0
 144 -9 124 28 124 94 c 0
 124 107 124 121 125 131 c 0
 127 144 173 437 175 444 c 0
 184 453 182 450 235 450 c 0
 292 450 292 450 296 444 c 0
 297 442 298 442 298 439 c 0
 298 422 202 210 193 184 c 0
 191 180 191 176 191 166 c 0
 191 141 200 129 221 129 c 0
 246 129 272 155 272 180 c 0
 272 189 276 196 285 196 c 0
 291 196 298 192 308 184 c 0
 324 169 335 148 335 116 c 0
 332 53 283 7 231 -6 c 0
 221 -9 218 -9 205 -9 c 0
EndSplineSet
EndChar

StartChar: theta
Encoding: 952 952 106
Width: 739
Flags: W
HStem: -6 37<364.5 394.5> 412 38<199 243.5> 663 37<507.5 539>
VStem: 188 112<106 118 81.5 132> 231 112<357 380.5> 357 47<524.5 542 521 554> 614 108<449.5 567>
LayerCount: 2
Fore
SplineSet
300 111 m 0xf6
 300 52 335 31 394 31 c 0
 428 31 449 44 475 70 c 0
 496 91 509 110 524 141 c 0
 547 187 563 239 583 330 c 2
 587 348 l 1
 560 354 l 2
 460 379 379 416 358 503 c 0
 357 510 357 516 357 533 c 0
 357 575 365 595 381 620 c 0
 409 662 468 700 539 700 c 0
 589 700 621 686 654 659 c 0
 684 633 706 593 717 541 c 0
 722 516 722 507 722 469 c 0
 722 430 721 416 715 381 c 0
 713 360 710 363 733 361 c 0
 759 357 764 356 759 337 c 0
 758 329 756 327 752 324 c 0
 749 321 744 321 723 324 c 0
 714 326 705 327 705 327 c 1
 705 327 704 325 704 323 c 0
 703 316 692 279 686 262 c 0
 661 186 621 119 574 74 c 0
 527 29 472 1 415 -5 c 0
 410 -6 400 -6 389 -6 c 0
 317 -6 262 4 225 35 c 0
 202 52 188 86 188 126 c 0xf6
 188 138 189 152 191 161 c 0
 191 167 200 209 210 256 c 0
 231 356 231 345 231 369 c 0xee
 231 392 226 414 203 412 c 0
 195 412 194 412 188 409 c 0xf6
 165 398 150 367 135 300 c 0
 131 284 129 282 109 282 c 0
 95 282 91 284 88 290 c 0
 85 295 86 297 90 315 c 0
 109 389 142 435 184 447 c 0
 191 449 200 450 210 450 c 0
 277 450 343 417 343 351 c 0xee
 343 338 343 337 325 253 c 0
 315 207 306 164 305 158 c 0
 302 140 300 125 300 111 c 0xf6
614 536 m 0
 614 598 599 642 558 660 c 0
 552 662 548 662 539 663 c 0
 476 663 428 623 412 580 c 0
 407 566 404 550 404 534 c 0
 404 508 412 487 422 472 c 0
 442 442 479 419 536 401 c 0
 552 395 590 385 593 385 c 0
 594 385 595 389 598 404 c 0
 610 464 614 499 614 536 c 0
EndSplineSet
EndChar

StartChar: kappa
Encoding: 954 954 107
Width: 689
Flags: W
HStem: -12 21G<107 126.5> -11 108<551 553.5 551 570.5> 354 100 436 20G<656.5 673.5>
VStem: 276 61<265 332.5> 441 65<80.5 181.5>
LayerCount: 2
Fore
SplineSet
168 321 m 0xac
 144 321 125 336 125 362 c 0
 125 386 141 415 166 434 c 0
 185 447 198 454 229 454 c 0xac
 294 454 324 415 335 359 c 0
 337 349 337 345 337 320 c 0
 337 276 332 261 325 228 c 1
 325 228 335 234 346 242 c 0
 389 269 412 286 534 378 c 0
 584 416 625 445 635 450 c 0
 642 452 652 456 661 456 c 0
 686 456 710 436 710 405 c 0
 710 390 703 374 691 362 c 0
 682 353 640 326 568 283 c 0
 547 270 528 259 526 257 c 0
 522 255 522 254 518 243 c 0
 510 217 506 192 506 171 c 0
 506 134 520 101 551 97 c 0
 556 97 556 97 558 101 c 0
 564 116 581 129 598 133 c 0
 632 142 659 124 659 91 c 0
 659 85 658 79 656 71 c 0
 643 26 599 -11 542 -11 c 0x5c
 475 -7 441 44 441 117 c 0
 441 141 445 169 452 198 c 0
 455 207 457 215 456 215 c 2
 456 215 436 202 419 191 c 0
 385 168 353 145 282 90 c 0
 212 38 165 4 151 -4 c 0
 144 -8 132 -12 121 -12 c 0
 93 -12 73 11 73 38 c 0
 73 47 75 56 79 65 c 0
 86 78 93 85 118 102 c 0
 148 122 209 159 253 185 c 1
 260 188 l 1
 264 201 l 2
 273 229 276 252 276 278 c 0
 274 313 265 338 241 349 c 0
 232 354 221 356 220 354 c 0
 220 353 218 350 215 345 c 0
 205 331 190 321 168 321 c 0xac
EndSplineSet
EndChar

StartChar: lambda
Encoding: 955 955 108
Width: 628
Flags: MW
HStem: -6 113 582 113<257 268>
VStem: 470 122
LayerCount: 2
Fore
SplineSet
592 61 m 0
 592 28 564 -6 524 -6 c 0
 494 -6 481 16 470 40 c 0
 447 85 424 177 403 312 c 2
 400 332 l 1
 398 329 l 2
 334 226 257 115 179 15 c 0
 173 8 169 3 166 2 c 0
 164 0 156 0 112 0 c 0
 62 0 61 0 57 2 c 0
 50 6 48 14 52 21 c 0
 53 23 63 36 74 50 c 0
 172 177 269 316 355 456 c 2
 373 485 l 1
 369 494 367 501 361 513 c 0
 343 551 315 574 282 581 c 0
 278 581 271 582 265 582 c 0
 249 582 230 578 218 580 c 0
 195 585 178 604 182 635 c 0
 188 672 215 695 261 695 c 0
 308 695 328 685 354 659 c 0
 405 610 420 529 435 425 c 0
 451 323 463 263 478 216 c 0
 491 176 504 150 520 131 c 0
 530 118 541 111 556 107 c 0
 579 102 592 85 592 61 c 0
EndSplineSet
EndChar

StartChar: uni03BC
Encoding: 956 956 109
Width: 703
Flags: W
HStem: -6 69<283 291 291 302.5 283 338.5> -6 99<580.5 586.5> 435 20G<214 230 557.5 581.5>
VStem: 50 84<-126.5 18.5> 132 59<158 298.5> 491 53<96.5 173> 508 110 650 48<115 115>
LayerCount: 2
Fore
SplineSet
195 -189 m 0xb5
 195 -229 157 -257 126 -257 c 0
 101 -257 91 -245 77 -220 c 0
 58 -189 50 -153 50 -100 c 0
 50 -89 50 -79 51 -71 c 0
 57 -16 72 39 107 135 c 0
 115 155 124 180 128 189 c 2
 134 207 l 1xb5
 133 221 l 2
 132 230 132 243 132 257 c 0
 132 340 143 439 203 453 c 0
 207 454 212 455 216 455 c 0
 244 455 262 430 262 401 c 0
 262 377 255 358 230 318 c 0
 209 284 203 270 198 245 c 0
 194 225 191 205 191 185 c 0
 191 131 206 94 240 74 c 0
 255 66 266 63 283 63 c 2
 291 63 l 2
 314 63 333 67 353 77 c 0
 385 94 415 128 437 175 c 0
 458 220 474 271 491 353 c 0xad
 504 410 504 410 508 418 c 0
 521 442 546 455 569 455 c 0
 594 455 618 439 618 409 c 0xa3
 618 402 616 393 612 376 c 0
 597 310 577 251 552 200 c 0
 546 187 544 180 544 166 c 0
 544 123 560 93 601 93 c 0
 625 93 645 101 650 115 c 0
 651 119 655 124 659 125 c 0
 663 127 686 126 689 125 c 0
 693 123 697 119 698 115 c 0
 698 111 695 96 690 85 c 0
 676 48 649 13 614 0 c 0
 603 -4 592 -6 581 -6 c 0x65
 553 -6 528 7 513 29 c 0
 503 44 494 69 492 88 c 0
 492 92 491 96 491 97 c 0
 491 98 488 95 483 89 c 0
 444 41 377 -6 300 -6 c 0
 216 -6 171 44 151 114 c 1
 148 102 l 2
 139 68 134 35 134 2 c 0
 134 -58 151 -109 176 -146 c 0
 185 -160 195 -169 195 -189 c 0xb5
EndSplineSet
EndChar

StartChar: nu
Encoding: 957 957 110
Width: 622
Flags: MW
VStem: 305 54<67 143> 573 55<368 374 354 385.5>
LayerCount: 2
Fore
SplineSet
581 449 m 0
 583 449 587 450 591 450 c 0
 600 449 605 445 610 434 c 0
 621 413 628 389 628 359 c 0
 628 349 627 337 626 329 c 0
 618 266 585 204 528 146 c 0
 483 102 428 61 341 8 c 0
 319 -5 317 -5 312 -5 c 0
 300 -7 297 3 300 18 c 0
 303 38 305 57 305 77 c 0
 305 103 302 128 296 151 c 0
 283 200 260 246 224 292 c 0
 204 318 172 351 145 376 c 0
 130 389 126 395 124 404 c 0
 119 430 147 440 175 440 c 0
 284 440 345 328 357 216 c 0
 358 209 358 190 358 173 c 0
 358 157 359 143 359 143 c 2
 360 143 416 177 432 188 c 0
 468 212 489 229 511 251 c 0
 539 279 556 305 566 336 c 0
 571 353 573 359 573 377 c 0
 573 394 571 401 565 412 c 0
 556 429 567 443 581 449 c 0
EndSplineSet
EndChar

StartChar: omicron
Encoding: 959 959 111
Width: 661
Flags: MW
HStem: -6 41<266 322 266 412> 408 41<391 487>
VStem: 107 105<114.5 128.5 88.5 187.5> 543 105<264.5 358>
LayerCount: 2
Fore
SplineSet
331 -6 m 0
 201 -6 107 53 107 176 c 0
 107 199 108 210 113 233 c 0
 144 353 249 438 391 449 c 1
 411 449 l 2
 431 449 458 449 468 448 c 0
 565 435 635 385 647 294 c 0
 648 288 648 280 648 272 c 0
 648 257 647 241 645 231 c 0
 619 87 493 -6 331 -6 c 0
543 331 m 0
 543 385 514 408 460 408 c 0
 436 408 421 403 403 396 c 0
 328 368 257 283 228 198 c 0
 218 170 212 141 212 116 c 0
 212 61 240 35 292 35 c 0
 352 35 403 71 439 107 c 0
 473 141 498 179 519 226 c 0
 533 256 543 292 543 331 c 0
EndSplineSet
EndChar

StartChar: pi
Encoding: 960 960 112
Width: 644
Flags: MW
HStem: -5 115<509.5 532.5> 345 97
VStem: 102 116 265 49<343 345> 420 57<100 187>
LayerCount: 2
Fore
SplineSet
142 314 m 0
 130 314 119 322 119 336 c 0
 119 342 122 348 133 362 c 0
 157 394 174 412 191 424 c 0
 206 435 216 439 231 442 c 0
 236 444 271 444 448 444 c 0
 643 444 659 444 663 442 c 0
 667 440 670 436 670 431 c 0
 670 424 655 355 653 351 c 0
 649 345 651 345 576 345 c 0
 538 345 507 345 507 344 c 0
 507 342 479 210 478 207 c 0
 478 201 477 191 477 183 c 0
 477 141 489 110 530 110 c 0
 558 110 578 122 593 137 c 0
 605 146 601 147 620 147 c 0
 642 147 643 145 643 123 c 0
 643 83 626 56 603 34 c 0
 579 10 554 -5 511 -5 c 0
 472 -5 454 9 439 33 c 0
 427 53 420 82 420 118 c 0
 420 141 423 167 428 196 c 0
 429 204 436 241 444 278 c 2
 459 345 l 1
 314 345 l 1
 314 344 307 314 299 276 c 0
 280 183 274 160 259 115 c 0
 246 76 226 28 218 14 c 0
 206 -7 192 -18 173 -23 c 0
 134 -34 102 -4 102 31 c 0
 102 37 102 42 103 46 c 0
 108 61 118 73 140 87 c 0
 185 117 220 157 237 214 c 0
 239 220 265 342 265 344 c 2
 265 344 255 345 245 345 c 0
 205 345 192 340 161 321 c 0
 152 315 150 314 142 314 c 0
EndSplineSet
EndChar

StartChar: chi
Encoding: 967 967 113
Width: 694
Flags: MW
HStem: -256 112<507 515 507 534> 338 112<219 227 209 232.5>
LayerCount: 2
Fore
SplineSet
147 384 m 0
 147 419 175 444 209 450 c 1
 245 450 266 444 291 419 c 0
 311 397 328 365 344 320 c 0
 355 283 367 234 376 191 c 1
 516 350 592 447 599 449 c 0
 601 450 629 450 656 450 c 0
 683 450 711 450 713 449 c 0
 721 445 724 435 718 427 c 0
 715 421 405 60 400 53 c 1
 404 29 l 1
 426 -78 454 -131 495 -142 c 0
 499 -143 504 -144 510 -144 c 0
 520 -144 529 -141 539 -141 c 0
 570 -141 588 -163 588 -190 c 0
 588 -230 555 -256 513 -256 c 0
 500 -256 487 -254 476 -249 c 0
 459 -241 441 -224 427 -204 c 0
 401 -164 382 -109 363 -19 c 2
 358 4 l 1
 249 -124 l 2
 189 -194 139 -253 137 -254 c 0
 135 -255 130 -256 79 -256 c 0
 18 -256 19 -256 15 -250 c 0
 12 -246 12 -238 15 -234 c 0
 24 -225 330 137 334 141 c 0
 334 142 333 149 332 157 c 0
 315 240 296 290 271 316 c 0
 257 330 241 338 224 338 c 0
 214 338 200 335 192 335 c 0
 162 335 147 360 147 384 c 0
EndSplineSet
EndChar

StartChar: rho
Encoding: 961 961 114
Width: 622
Flags: MW
HStem: -5 109<202 328> 340 110<459 463 325 509.5>
VStem: 58 138<-209 -75.5> 571 39<279 285 285 307.5>
LayerCount: 2
Fore
SplineSet
196 -190 m 0
 196 -228 158 -256 127 -256 c 0
 95 -256 84 -240 71 -197 c 0
 62 -167 58 -135 58 -98 c 0
 58 -53 65 0 78 66 c 0
 86 107 111 224 115 239 c 0
 147 359 248 450 402 450 c 0
 524 450 610 388 610 272 c 0
 610 250 607 226 600 202 c 0
 571 99 491 24 382 1 c 0
 355 -4 344 -5 312 -5 c 0
 227 -5 166 22 134 72 c 0
 130 77 127 83 126 84 c 0
 125 85 125 82 125 67 c 0
 127 4 143 -57 185 -155 c 0
 193 -172 196 -181 196 -190 c 0
571 285 m 2
 571 330 534 340 485 340 c 0
 433 340 407 332 347 318 c 0
 290 305 252 292 221 272 c 0
 185 251 158 220 147 190 c 0
 145 183 144 174 144 166 c 0
 144 117 175 104 229 104 c 0
 281 104 356 120 406 135 c 0
 483 158 542 198 563 242 c 0
 569 256 571 264 571 279 c 2
 571 285 l 2
EndSplineSet
EndChar

StartChar: sigma
Encoding: 963 963 115
Width: 711
Flags: W
HStem: -6 40<307 339 282 424.5> 330 114<537.5 723.5> 340 104<578.5 582>
VStem: 106 99<153.5 184.5 117 207> 549 90<225 242 210 267>
LayerCount: 2
Fore
SplineSet
409 443 m 0xd8
 415 443 493 444 582 444 c 0xb8
 731 444 743 444 747 442 c 0
 751 440 754 436 754 431 c 0
 754 424 735 338 733 335 c 0
 730 332 727 330 720 330 c 0xd8
 695 330 654 335 626 336 c 0
 606 338 587 339 582 340 c 0xb8
 575 340 574 340 575 339 c 0
 576 338 581 334 585 330 c 0
 614 306 639 267 639 217 c 0
 639 203 637 190 633 174 c 0
 605 63 496 -6 353 -6 c 0
 261 -6 196 17 152 61 c 0
 124 89 106 129 106 178 c 0
 106 236 133 298 178 345 c 0
 230 399 310 436 409 443 c 0xd8
205 161 m 0
 205 73 237 34 327 34 c 0
 351 34 371 37 391 44 c 0
 450 64 505 118 532 171 c 0
 544 195 549 214 549 236 c 0
 549 298 505 334 453 345 c 0
 447 346 433 346 419 346 c 0
 329 346 267 319 230 264 c 0
 213 240 205 208 205 161 c 0
EndSplineSet
EndChar

StartChar: tau
Encoding: 964 964 116
Width: 578
Flags: MW
HStem: -6 115<383.5 405 383.5 414.5> 345 99<320.5 329 378 479 378 378>
VStem: 292 55<103.5 196.5>
LayerCount: 2
Fore
SplineSet
140 314 m 0
 128 315 115 327 120 342 c 0
 121 347 146 384 157 398 c 0
 177 423 196 437 215 442 c 0
 222 444 233 444 408 444 c 0
 579 444 593 444 597 442 c 0
 601 440 604 436 604 431 c 0
 604 421 589 350 583 347 c 0
 581 346 574 345 479 345 c 2
 378 345 l 1
 363 278 l 2
 352 224 347 210 347 183 c 0
 347 140 362 109 405 109 c 0
 430 111 456 128 474 146 c 0
 476 147 483 147 490 147 c 0
 512 147 513 145 513 123 c 0
 513 111 513 107 511 98 c 0
 497 46 447 -6 382 -6 c 0
 328 -6 305 27 294 74 c 0
 292 86 292 87 292 120 c 0
 292 167 292 172 315 277 c 0
 322 312 328 342 329 343 c 2
 329 345 l 1
 204 345 l 1
 189 338 176 333 163 323 c 0
 153 315 148 314 140 314 c 0
EndSplineSet
EndChar

StartChar: upsilon
Encoding: 965 965 117
Width: 655
Flags: W
HStem: -6 52<295.5 304.5 270 397.5>
VStem: 144 121<397 421.5> 156 47<114 142 142 150 114 179.5> 544 39 576 68<304.5 307 236 335>
LayerCount: 2
Fore
SplineSet
144 404 m 0xc0
 144 439 180 467 220 467 c 0
 250 467 265 446 265 418 c 0xc0
 265 374 235 273 219 226 c 0
 206 189 203 175 203 150 c 2
 203 142 l 2
 203 86 243 46 297 46 c 0
 312 46 328 49 344 54 c 0
 397 71 453 113 502 170 c 0
 554 231 576 279 576 330 c 0xa8
 576 340 574 353 574 360 c 0
 570 379 561 398 551 413 c 0
 545 421 545 422 544 428 c 0
 544 442 553 454 570 454 c 0
 578 454 579 453 583 451 c 0x90
 591 445 610 416 621 394 c 0
 635 363 644 330 644 284 c 0
 644 188 607 121 557 73 c 0
 511 27 441 -6 354 -6 c 0
 237 -6 156 55 156 169 c 0xa8
 156 190 157 201 161 223 c 0
 167 251 167 260 167 286 c 0
 167 319 164 341 154 368 c 0
 150 380 144 390 144 404 c 0xc0
EndSplineSet
EndChar

StartChar: omega
Encoding: 969 969 119
Width: 828
Flags: MW
HStem: -6 72<501.5 639.5>
VStem: 106 117<146 166> 403 116<155.5 258.5> 688 113<223 235.5 171 277.5>
LayerCount: 2
Fore
SplineSet
801 225 m 0
 801 117 699 -6 580 -6 c 0
 520 -6 465 18 435 58 c 0
 426 71 429 64 419 57 c 0
 382 25 336 4 286 -4 c 0
 278 -5 264 -6 252 -6 c 0
 207 -6 181 5 156 28 c 0
 125 56 106 94 106 153 c 0
 106 179 112 205 120 225 c 0
 145 292 199 354 291 421 c 0
 313 437 336 453 339 454 c 0
 345 456 352 454 356 450 c 0
 356 448 363 433 371 416 c 0
 381 391 384 382 384 377 c 0
 384 369 376 365 364 358 c 0
 314 322 276 285 252 250 c 0
 237 226 223 195 223 159 c 0
 223 133 232 115 246 101 c 0
 262 83 288 67 321 67 c 2
 333 67 l 2
 361 67 371 72 386 83 c 0
 397 90 406 99 411 106 c 1
 405 131 403 139 403 172 c 0
 403 215 408 247 422 266 c 0
 432 280 454 291 473 291 c 0
 501 291 519 271 519 246 c 0
 519 239 518 231 516 222 c 0
 505 179 490 145 467 112 c 2
 460 101 l 1
 470 81 486 66 517 66 c 0
 569 66 624 94 657 138 c 0
 678 166 688 200 688 246 c 0
 688 309 663 360 631 397 c 0
 623 406 621 410 622 415 c 0
 622 419 624 421 639 439 c 0
 651 453 654 456 661 455 c 0
 663 454 667 453 669 451 c 0
 673 447 715 404 726 391 c 0
 755 357 780 318 790 289 c 0
 797 268 801 246 801 225 c 0
EndSplineSet
EndChar

StartChar: xi
Encoding: 958 958 120
Width: 594
Flags: MW
HStem: -214 99<308 343> 0 115 348 107 603 102<272.5 288.5>
VStem: 103 54<122.5 210> 470 50<-56 -33.5>
LayerCount: 2
Fore
SplineSet
280 603 m 0
 246 603 217 608 217 636 c 0
 217 641 218 647 220 653 c 0
 230 681 254 705 291 705 c 0
 318 705 342 690 346 665 c 0
 347 661 347 658 348 656 c 0
 348 654 348 654 357 656 c 0
 388 661 446 672 538 693 c 0
 594 705 596 705 606 705 c 0
 634 701 650 685 650 657 c 0
 650 626 629 600 598 592 c 0
 579 587 548 583 491 577 c 0
 428 571 403 567 379 559 c 0
 339 545 316 526 305 488 c 0
 302 475 302 469 306 462 c 0
 313 449 332 443 366 443 c 0
 390 443 413 446 447 453 c 0
 454 454 460 455 466 455 c 0
 493 455 514 436 514 408 c 0
 514 379 498 358 477 348 c 0
 462 341 437 336 365 326 c 0
 300 317 274 312 248 304 c 0
 212 292 190 279 174 255 c 0
 164 240 157 222 157 198 c 0
 157 193 157 189 158 186 c 0
 172 135 241 117 318 115 c 0
 390 113 436 98 475 65 c 0
 504 42 520 7 520 -30 c 0
 520 -82 496 -118 469 -145 c 0
 432 -182 377 -214 309 -214 c 0
 276 -214 255 -193 263 -160 c 0
 271 -132 291 -115 325 -115 c 0
 390 -115 470 -104 470 -44 c 0
 470 -23 450 -13 423 -8 c 0
 400 -3 378 -1 321 0 c 0
 270 1 263 1 240 7 c 0
 167 24 103 78 103 167 c 0
 103 183 106 199 110 217 c 0
 126 278 169 331 239 373 c 0
 259 385 292 402 307 408 c 0
 309 409 309 409 302 413 c 0
 278 426 266 446 266 472 c 0
 266 504 280 531 295 553 c 0
 309 574 327 590 348 608 c 1
 342 608 l 2
 317 605 297 603 280 603 c 0
EndSplineSet
EndChar

StartChar: psi
Encoding: 968 968 121
Width: 755
Flags: MW
HStem: -5 50<299 340 299 347> 354 115
VStem: 114 50<162.5 235 162.5 235.5> 271 120<-222 -221.5> 455 119 685 69<260 398.5>
LayerCount: 2
Fore
SplineSet
340 -5 m 1
 211 7 114 75 114 209 c 0
 114 262 132 323 162 377 c 0
 175 399 196 429 208 443 c 0
 223 459 243 469 261 469 c 2
 262 469 l 2
 292 469 314 442 314 413 c 0
 314 382 296 364 269 354 c 0
 208 330 164 278 164 192 c 0
 164 133 185 99 219 73 c 0
 245 55 277 45 321 45 c 0
 332 45 342 45 350 46 c 0
 356 47 361 48 362 48 c 0
 363 49 373 97 381 136 c 0
 415 295 439 457 455 625 c 0
 458 661 460 667 467 679 c 0
 479 697 498 710 526 710 c 0
 557 710 583 688 574 653 c 0
 518 485 470 312 432 146 c 0
 423 103 416 70 416 65 c 0
 416 62 453 80 473 90 c 0
 486 98 520 121 533 131 c 0
 616 197 669 275 683 353 c 0
 685 366 685 370 685 391 c 0
 685 406 685 417 684 422 c 0
 681 439 691 454 709 454 c 0
 718 454 727 448 732 438 c 0
 744 409 754 372 754 331 c 0
 754 189 668 87 569 37 c 0
 522 13 465 -2 409 -5 c 2
 405 -5 l 1
 402 -27 l 2
 395 -80 391 -150 391 -200 c 0
 391 -244 362 -271 322 -271 c 0
 293 -271 271 -254 271 -226 c 0
 271 -217 274 -205 281 -189 c 0
 302 -139 328 -67 343 -17 c 2
 347 -5 l 1
 340 -5 l 1
EndSplineSet
EndChar

StartChar: zeta
Encoding: 950 950 122
Width: 594
Flags: MW
HStem: -214 99<308 343> 0 115 551 154<289.5 298.5>
VStem: 110 50<145 217.5> 214 132<639 640.5> 470 50<-56 -33.5>
LayerCount: 2
Fore
SplineSet
292 551 m 0
 244 551 214 570 214 617 c 0
 214 664 238 694 275 703 c 0
 281 705 287 705 292 705 c 0
 320 705 341 689 346 666 c 0
 348 659 348 645 346 639 c 0
 343 621 342 613 361 613 c 0
 369 613 380 615 393 619 c 0
 424 627 462 644 548 685 c 0
 574 699 585 703 591 704 c 0
 594 705 600 706 602 706 c 0
 634 706 657 677 649 642 c 0
 645 625 635 612 621 603 c 0
 616 600 591 586 564 573 c 0
 423 502 343 453 279 399 c 0
 261 385 225 348 212 333 c 0
 186 300 169 266 162 233 c 0
 161 227 160 221 160 214 c 0
 160 187 168 174 181 160 c 0
 211 130 255 117 320 115 c 0
 391 113 436 98 475 65 c 0
 504 42 520 7 520 -30 c 0
 520 -82 496 -118 469 -145 c 0
 432 -182 377 -214 309 -214 c 0
 276 -214 255 -193 263 -160 c 0
 271 -132 291 -115 325 -115 c 0
 390 -115 470 -104 470 -44 c 0
 470 -23 450 -13 423 -8 c 0
 400 -3 378 -1 322 0 c 0
 273 1 267 1 247 7 c 0
 162 28 110 101 110 189 c 0
 110 204 111 219 114 234 c 0
 131 322 181 409 261 487 c 0
 284 509 310 533 333 550 c 0
 337 554 341 556 341 557 c 1
 331 555 l 2
 318 552 305 551 292 551 c 0
EndSplineSet
EndChar

StartChar: guillemotleft
Encoding: 171 171 123
Width: 628
Flags: W
HStem: -11 21G<524.5 533.5> 435 20G<620 623>
VStem: 377 117<217.5 225>
LayerCount: 2
Fore
SplineSet
441 454 m 0
 459 460 476 446 466 433 c 0
 371 338 247 222 247 219 c 0
 248 218 276 170 311 113 c 0
 371 14 375 7 375 3 c 0
 375 -9 360 -15 347 -10 c 0
 343 -8 131 212 130 215 c 0
 127 218 127 226 130 229 c 0
 132 232 436 452 441 454 c 0
547 3 m 0
 547 -7 539 -11 528 -11 c 0xe0
 521 -11 519 -10 516 -8 c 0
 515 -7 377 214 377 224 c 0
 377 226 378 227 379 228 c 0
 381 232 608 452 612 454 c 0
 613 455 617 455 623 455 c 0
 633 454 640 452 640 443 c 0
 640 434 588 359 494 219 c 0
 494 216 547 8 547 3 c 0
EndSplineSet
EndChar

StartChar: uni037A
Encoding: 890 890 124
Width: 161
Flags: W
HStem: -243 188<42 47>
VStem: -18 141<-213.5 -66> 10 113<-68 -61.5>
LayerCount: 2
Fore
SplineSet
32 -243 m 0xa0
 6 -243 -18 -227 -18 -200 c 0xc0
 -18 -190 -15 -174 -5 -127 c 0
 2 -93 9 -64 10 -62 c 0
 10 -61 13 -58 15 -57 c 0
 18 -55 19 -55 65 -55 c 0
 115 -55 116 -55 120 -60 c 0
 121 -62 122 -65 123 -66 c 0
 123 -70 98 -189 95 -198 c 0
 87 -223 62 -243 32 -243 c 0xa0
EndSplineSet
EndChar

StartChar: guillemotright
Encoding: 187 187 125
Width: 628
Flags: W
LayerCount: 2
Fore
SplineSet
175 444 m 0
 175 454 195 460 205 453 c 0
 207 451 242 395 328 253 c 0
 340 233 344 226 344 221 c 0
 344 219 343 217 342 215 c 0
 341 213 119 -3 112 -8 c 0
 109 -11 97 -12 91 -10 c 0
 84 -8 80 0 82 7 c 0
 82 8 115 58 155 117 c 2
 228 225 l 1
 201 333 l 2
 179 420 175 439 175 444 c 0
474 225 m 0
 463 243 348 433 346 440 c 0
 346 452 359 459 374 454 c 0
 381 450 573 248 591 230 c 0
 594 226 594 219 592 215 c 0
 590 212 284 -9 280 -10 c 0
 265 -16 246 -4 255 10 c 0
 287 42 474 223 474 225 c 0
EndSplineSet
EndChar

StartChar: uni1FC0
Encoding: 8128 8128 126
Width: 428
Flags: W
HStem: 599 95<170.5 313.5 270.5 450> 657 37<270.5 280>
VStem: 147 75 481 75
LayerCount: 2
Fore
SplineSet
197 677 m 0xb0
 224 691 249 694 292 694 c 0
 335 694 358 692 381 674 c 2
 397 658 l 2
 407 644 416 633 437 637 c 0
 458 643 475 660 481 681 c 0
 485 694 486 694 519 694 c 0x70
 549 694 551 694 555 688 c 0
 558 684 558 680 556 672 c 0
 543 625 487 599 413 599 c 0xb0
 344 599 335 601 298 643 c 0
 289 653 284 657 276 657 c 0x70
 250 657 228 635 222 615 c 0
 216 599 217 599 182 599 c 0
 159 599 155 599 152 601 c 0
 144 605 143 611 147 624 c 0
 154 645 172 664 197 677 c 0xb0
EndSplineSet
EndChar

StartChar: emdash
Encoding: 8212 8212 127
Width: 1255
Flags: MW
HStem: 256 37<90 1281 83 1288>
LayerCount: 2
Fore
SplineSet
87 278 m 2
 90 293 l 1
 1288 293 l 1
 1288 291 l 2
 1288 290 1286 281 1284 272 c 2
 1281 256 l 1
 83 256 l 1
 83 260 l 2
 84 262 85 270 87 278 c 2
EndSplineSet
EndChar

StartChar: uni1F70
Encoding: 8048 8048 128
Width: 655
Flags: MW
HStem: -5 98<238 276> 351 99<351 353 353 361.5>
VStem: 104 51<147 164> 345 123<638.5 677> 637 50
LayerCount: 2
Fore
SplineSet
347 657 m 0
 356 683 388 712 425 712 c 0
 449 712 464 698 468 677 c 2
 468 677 476 508 476 504 c 2
 476 499 l 1
 469 496 461 492 454 489 c 1
 452 491 l 1
 402 552 354 612 352 616 c 0
 347 624 345 634 345 643 c 0
 345 648 346 653 347 657 c 0
264 -5 m 0
 162 -5 104 55 104 157 c 0
 104 171 105 188 107 199 c 0
 125 325 198 417 299 443 c 0
 316 447 329 450 351 450 c 2
 353 450 l 2
 413 450 455 414 479 345 c 0
 484 330 493 296 493 292 c 0
 493 290 493 290 494 291 c 0
 498 295 541 365 577 426 c 0
 586 442 589 447 592 448 c 0
 595 450 599 450 642 450 c 0
 693 450 693 450 697 444 c 0
 699 442 699 439 699 436 c 0
 699 432 698 428 682 401 c 0
 612 282 567 213 523 158 c 2
 520 154 l 1
 534 123 549 93 592 93 c 0
 611 93 630 99 637 106 c 0
 646 119 642 126 666 126 c 0
 688 126 693 122 687 100 c 0
 674 49 637 8 597 -3 c 0
 591 -5 584 -6 576 -6 c 0
 516 -6 490 49 476 104 c 1
 462 91 l 2
 415 45 367 15 321 2 c 0
 298 -4 288 -5 264 -5 c 0
155 182 m 0
 155 112 203 93 273 93 c 0
 280 93 287 93 292 94 c 0
 336 102 385 141 442 216 c 0
 448 224 453 231 453 232 c 0
 453 246 442 270 436 285 c 0
 415 326 386 351 337 351 c 0
 290 351 247 342 219 321 c 0
 182 293 155 243 155 182 c 0
EndSplineSet
EndChar

StartChar: uni1F01
Encoding: 7937 7937 129
Width: 655
Flags: MW
HStem: -5 98<238 276> 351 99<351 353 353 361.5> 576 118<451 475.5>
VStem: 104 51<147 164> 362 27<576.5 590> 637 50
LayerCount: 2
Fore
SplineSet
408 629 m 1
 400 621 389 599 389 582 c 0
 389 571 394 561 402 553 c 0
 417 538 444 529 478 527 c 0
 488 527 491 526 494 525 c 0
 503 520 503 506 494 501 c 0
 490 499 482 498 465 500 c 0
 418 505 383 524 369 551 c 0
 363 562 362 570 362 583 c 0
 362 597 365 609 371 623 c 0
 389 661 427 694 475 694 c 0
 508 694 528 677 528 645 c 0
 528 603 493 576 458 576 c 0
 430 576 410 594 408 621 c 2
 408 629 l 1
264 -5 m 0
 162 -5 104 55 104 157 c 0
 104 171 105 188 107 199 c 0
 125 325 198 417 299 443 c 0
 316 447 329 450 351 450 c 2
 353 450 l 2
 413 450 455 414 479 345 c 0
 484 330 493 296 493 292 c 0
 493 290 493 290 494 291 c 0
 498 295 541 365 577 426 c 0
 586 442 589 447 592 448 c 0
 595 450 599 450 642 450 c 0
 693 450 693 450 697 444 c 0
 699 442 699 439 699 436 c 0
 699 432 698 428 682 401 c 0
 612 282 567 213 523 158 c 2
 520 154 l 1
 534 123 549 93 592 93 c 0
 611 93 630 99 637 106 c 0
 646 119 642 126 666 126 c 0
 688 126 693 122 687 100 c 0
 674 49 637 8 597 -3 c 0
 591 -5 584 -6 576 -6 c 0
 516 -6 490 49 476 104 c 1
 462 91 l 2
 415 45 367 15 321 2 c 0
 298 -4 288 -5 264 -5 c 0
155 182 m 0
 155 112 203 93 273 93 c 0
 280 93 287 93 292 94 c 0
 336 102 385 141 442 216 c 0
 448 224 453 231 453 232 c 0
 453 246 442 270 436 285 c 0
 415 326 386 351 337 351 c 0
 290 351 247 342 219 321 c 0
 182 293 155 243 155 182 c 0
EndSplineSet
EndChar

StartChar: uni1F00
Encoding: 7936 7936 130
Width: 655
Flags: MW
HStem: -5 98<238 276> 351 99<351 353 353 361.5> 499 28<402.5 406 400 409> 576 118<458 474>
VStem: 104 51<147 164> 409 149<619 626 626 638 575.5 645.5> 637 50
LayerCount: 2
Fore
SplineSet
458 576 m 0
 433 576 409 591 409 619 c 2
 409 626 l 2
 409 665 439 694 477 694 c 0
 526 694 558 663 558 613 c 0
 558 538 483 503 409 499 c 0
 396 499 394 499 391 501 c 0
 382 506 381 518 389 524 c 0
 391 526 394 527 406 527 c 0
 472 531 518 558 529 598 c 0
 532 610 530 627 527 634 c 1
 521 599 490 576 458 576 c 0
264 -5 m 0
 162 -5 104 55 104 157 c 0
 104 171 105 188 107 199 c 0
 125 325 198 417 299 443 c 0
 316 447 329 450 351 450 c 2
 353 450 l 2
 413 450 455 414 479 345 c 0
 484 330 493 296 493 292 c 0
 493 290 493 290 494 291 c 0
 498 295 541 365 577 426 c 0
 586 442 589 447 592 448 c 0
 595 450 599 450 642 450 c 0
 693 450 693 450 697 444 c 0
 699 442 699 439 699 436 c 0
 699 432 698 428 682 401 c 0
 612 282 567 213 523 158 c 2
 520 154 l 1
 534 123 549 93 592 93 c 0
 611 93 630 99 637 106 c 0
 646 119 642 126 666 126 c 0
 688 126 693 122 687 100 c 0
 674 49 637 8 597 -3 c 0
 591 -5 584 -6 576 -6 c 0
 516 -6 490 49 476 104 c 1
 462 91 l 2
 415 45 367 15 321 2 c 0
 298 -4 288 -5 264 -5 c 0
155 182 m 0
 155 112 203 93 273 93 c 0
 280 93 287 93 292 94 c 0
 336 102 385 141 442 216 c 0
 448 224 453 231 453 232 c 0
 453 246 442 270 436 285 c 0
 415 326 386 351 337 351 c 0
 290 351 247 342 219 321 c 0
 182 293 155 243 155 182 c 0
EndSplineSet
EndChar

StartChar: uni1F03
Encoding: 7939 7939 131
Width: 655
Flags: MW
HStem: -5 98<238 276> 351 99<351 353 353 361.5> 576 118<367 391.5>
VStem: 104 51<147 164> 278 27<576.5 590> 455 123<638.5 677> 637 50
LayerCount: 2
Fore
SplineSet
457 657 m 0
 466 683 498 712 535 712 c 0
 559 712 574 698 578 677 c 2
 578 677 586 508 586 504 c 2
 586 499 l 1
 579 496 571 492 564 489 c 1
 562 491 l 1
 512 552 464 612 462 616 c 0
 457 624 455 634 455 643 c 0
 455 648 456 653 457 657 c 0
324 629 m 1
 316 621 305 599 305 582 c 0
 305 571 310 561 318 553 c 0
 333 538 360 529 394 527 c 0
 404 527 407 526 410 525 c 0
 419 520 419 506 410 501 c 0
 406 499 398 498 381 500 c 0
 334 505 299 524 285 551 c 0
 279 562 278 570 278 583 c 0
 278 597 281 609 287 623 c 0
 305 661 343 694 391 694 c 0
 424 694 444 677 444 645 c 0
 444 603 409 576 374 576 c 0
 346 576 326 594 324 621 c 2
 324 629 l 1
264 -5 m 0
 162 -5 104 55 104 157 c 0
 104 171 105 188 107 199 c 0
 125 325 198 417 299 443 c 0
 316 447 329 450 351 450 c 2
 353 450 l 2
 413 450 455 414 479 345 c 0
 484 330 493 296 493 292 c 0
 493 290 493 290 494 291 c 0
 498 295 541 365 577 426 c 0
 586 442 589 447 592 448 c 0
 595 450 599 450 642 450 c 0
 693 450 693 450 697 444 c 0
 699 442 699 439 699 436 c 0
 699 432 698 428 682 401 c 0
 612 282 567 213 523 158 c 2
 520 154 l 1
 534 123 549 93 592 93 c 0
 611 93 630 99 637 106 c 0
 646 119 642 126 666 126 c 0
 688 126 693 122 687 100 c 0
 674 49 637 8 597 -3 c 0
 591 -5 584 -6 576 -6 c 0
 516 -6 490 49 476 104 c 1
 462 91 l 2
 415 45 367 15 321 2 c 0
 298 -4 288 -5 264 -5 c 0
155 182 m 0
 155 112 203 93 273 93 c 0
 280 93 287 93 292 94 c 0
 336 102 385 141 442 216 c 0
 448 224 453 231 453 232 c 0
 453 246 442 270 436 285 c 0
 415 326 386 351 337 351 c 0
 290 351 247 342 219 321 c 0
 182 293 155 243 155 182 c 0
EndSplineSet
EndChar

StartChar: uni1FB2
Encoding: 8114 8114 132
Width: 655
Flags: W
HStem: -5 98<238 276> 351 99<351 353 353 361.5>
VStem: 104 51<147 164> 235 141<-213.5 -66> 263 113<-68 -61.5> 345 123<638.5 677> 637 50
LayerCount: 2
Fore
SplineSet
347 657 m 0xe6
 356 683 388 712 425 712 c 0
 449 712 464 698 468 677 c 2
 468 677 476 508 476 504 c 2
 476 499 l 1
 469 496 461 492 454 489 c 1
 452 491 l 1
 402 552 354 612 352 616 c 0
 347 624 345 634 345 643 c 0
 345 648 346 653 347 657 c 0xe6
264 -5 m 0
 162 -5 104 55 104 157 c 0
 104 171 105 188 107 199 c 0
 125 325 198 417 299 443 c 0
 316 447 329 450 351 450 c 2
 353 450 l 2
 413 450 455 414 479 345 c 0
 484 330 493 296 493 292 c 0
 493 290 493 290 494 291 c 0
 498 295 541 365 577 426 c 0
 586 442 589 447 592 448 c 0
 595 450 599 450 642 450 c 0
 693 450 693 450 697 444 c 0
 699 442 699 439 699 436 c 0
 699 432 698 428 682 401 c 0
 612 282 567 213 523 158 c 2
 520 154 l 1
 534 123 549 93 592 93 c 0
 611 93 630 99 637 106 c 0
 646 119 642 126 666 126 c 0
 688 126 693 122 687 100 c 0
 674 49 637 8 597 -3 c 0
 591 -5 584 -6 576 -6 c 0
 516 -6 490 49 476 104 c 1
 462 91 l 2
 415 45 367 15 321 2 c 0
 298 -4 288 -5 264 -5 c 0
155 182 m 0
 155 112 203 93 273 93 c 0
 280 93 287 93 292 94 c 0
 336 102 385 141 442 216 c 0
 448 224 453 231 453 232 c 0
 453 246 442 270 436 285 c 0
 415 326 386 351 337 351 c 0
 290 351 247 342 219 321 c 0
 182 293 155 243 155 182 c 0
285 -243 m 0
 259 -243 235 -227 235 -200 c 0xf2
 235 -190 238 -174 248 -127 c 0
 255 -93 262 -64 263 -62 c 0
 263 -61 266 -58 268 -57 c 0
 271 -55 272 -55 318 -55 c 0
 368 -55 369 -55 373 -60 c 0
 374 -62 375 -65 376 -66 c 0xea
 376 -70 351 -189 348 -198 c 0
 340 -223 315 -243 285 -243 c 0
EndSplineSet
EndChar

StartChar: uni1F81
Encoding: 8065 8065 133
Width: 655
Flags: W
HStem: -5 98<238 276> 351 99<351 353 353 361.5> 576 118<451 475.5>
VStem: 104 51<147 164> 235 141<-213.5 -66> 263 113<-68 -61.5> 362 27<576.5 590> 637 50
LayerCount: 2
Fore
SplineSet
408 629 m 1xf3
 400 621 389 599 389 582 c 0
 389 571 394 561 402 553 c 0
 417 538 444 529 478 527 c 0
 488 527 491 526 494 525 c 0
 503 520 503 506 494 501 c 0
 490 499 482 498 465 500 c 0
 418 505 383 524 369 551 c 0
 363 562 362 570 362 583 c 0
 362 597 365 609 371 623 c 0
 389 661 427 694 475 694 c 0
 508 694 528 677 528 645 c 0
 528 603 493 576 458 576 c 0
 430 576 410 594 408 621 c 2
 408 629 l 1xf3
264 -5 m 0
 162 -5 104 55 104 157 c 0
 104 171 105 188 107 199 c 0
 125 325 198 417 299 443 c 0
 316 447 329 450 351 450 c 2
 353 450 l 2
 413 450 455 414 479 345 c 0
 484 330 493 296 493 292 c 0
 493 290 493 290 494 291 c 0
 498 295 541 365 577 426 c 0
 586 442 589 447 592 448 c 0
 595 450 599 450 642 450 c 0
 693 450 693 450 697 444 c 0
 699 442 699 439 699 436 c 0
 699 432 698 428 682 401 c 0
 612 282 567 213 523 158 c 2
 520 154 l 1
 534 123 549 93 592 93 c 0
 611 93 630 99 637 106 c 0
 646 119 642 126 666 126 c 0
 688 126 693 122 687 100 c 0
 674 49 637 8 597 -3 c 0
 591 -5 584 -6 576 -6 c 0
 516 -6 490 49 476 104 c 1
 462 91 l 2
 415 45 367 15 321 2 c 0
 298 -4 288 -5 264 -5 c 0
155 182 m 0
 155 112 203 93 273 93 c 0
 280 93 287 93 292 94 c 0
 336 102 385 141 442 216 c 0
 448 224 453 231 453 232 c 0
 453 246 442 270 436 285 c 0
 415 326 386 351 337 351 c 0
 290 351 247 342 219 321 c 0
 182 293 155 243 155 182 c 0
285 -243 m 0
 259 -243 235 -227 235 -200 c 0xf9
 235 -190 238 -174 248 -127 c 0
 255 -93 262 -64 263 -62 c 0
 263 -61 266 -58 268 -57 c 0
 271 -55 272 -55 318 -55 c 0
 368 -55 369 -55 373 -60 c 0
 374 -62 375 -65 376 -66 c 0xf5
 376 -70 351 -189 348 -198 c 0
 340 -223 315 -243 285 -243 c 0
EndSplineSet
EndChar

StartChar: uni1F80
Encoding: 8064 8064 134
Width: 655
Flags: W
HStem: -5 98<238 276> 351 99<351 353 353 361.5> 499 28<402.5 406 400 409> 576 118<458 474>
VStem: 104 51<147 164> 235 141<-213.5 -66> 263 113<-68 -61.5> 409 149<619 626 626 638 575.5 645.5> 637 50
LayerCount: 2
Fore
SplineSet
458 576 m 0xf980
 433 576 409 591 409 619 c 2
 409 626 l 2
 409 665 439 694 477 694 c 0
 526 694 558 663 558 613 c 0
 558 538 483 503 409 499 c 0
 396 499 394 499 391 501 c 0
 382 506 381 518 389 524 c 0
 391 526 394 527 406 527 c 0
 472 531 518 558 529 598 c 0
 532 610 530 627 527 634 c 1
 521 599 490 576 458 576 c 0xf980
264 -5 m 0
 162 -5 104 55 104 157 c 0
 104 171 105 188 107 199 c 0
 125 325 198 417 299 443 c 0
 316 447 329 450 351 450 c 2
 353 450 l 2
 413 450 455 414 479 345 c 0
 484 330 493 296 493 292 c 0
 493 290 493 290 494 291 c 0
 498 295 541 365 577 426 c 0
 586 442 589 447 592 448 c 0
 595 450 599 450 642 450 c 0
 693 450 693 450 697 444 c 0
 699 442 699 439 699 436 c 0
 699 432 698 428 682 401 c 0
 612 282 567 213 523 158 c 2
 520 154 l 1
 534 123 549 93 592 93 c 0
 611 93 630 99 637 106 c 0
 646 119 642 126 666 126 c 0
 688 126 693 122 687 100 c 0
 674 49 637 8 597 -3 c 0
 591 -5 584 -6 576 -6 c 0
 516 -6 490 49 476 104 c 1
 462 91 l 2
 415 45 367 15 321 2 c 0
 298 -4 288 -5 264 -5 c 0
155 182 m 0
 155 112 203 93 273 93 c 0
 280 93 287 93 292 94 c 0
 336 102 385 141 442 216 c 0
 448 224 453 231 453 232 c 0
 453 246 442 270 436 285 c 0
 415 326 386 351 337 351 c 0
 290 351 247 342 219 321 c 0
 182 293 155 243 155 182 c 0
285 -243 m 0
 259 -243 235 -227 235 -200 c 0xfd80
 235 -190 238 -174 248 -127 c 0
 255 -93 262 -64 263 -62 c 0
 263 -61 266 -58 268 -57 c 0
 271 -55 272 -55 318 -55 c 0
 368 -55 369 -55 373 -60 c 0
 374 -62 375 -65 376 -66 c 0xfb80
 376 -70 351 -189 348 -198 c 0
 340 -223 315 -243 285 -243 c 0
EndSplineSet
EndChar

StartChar: uni1F83
Encoding: 8067 8067 135
Width: 655
Flags: W
HStem: -5 98<238 276> 351 99<351 353 353 361.5> 576 118<367 391.5>
VStem: 104 51<147 164> 235 141<-213.5 -66> 263 113<-68 -61.5> 278 27<576.5 590> 455 123<638.5 677> 637 50
LayerCount: 2
Fore
SplineSet
457 657 m 0xf180
 466 683 498 712 535 712 c 0
 559 712 574 698 578 677 c 2
 578 677 586 508 586 504 c 2
 586 499 l 1
 579 496 571 492 564 489 c 1
 562 491 l 1
 512 552 464 612 462 616 c 0
 457 624 455 634 455 643 c 0
 455 648 456 653 457 657 c 0xf180
324 629 m 1
 316 621 305 599 305 582 c 0
 305 571 310 561 318 553 c 0
 333 538 360 529 394 527 c 0
 404 527 407 526 410 525 c 0
 419 520 419 506 410 501 c 0
 406 499 398 498 381 500 c 0
 334 505 299 524 285 551 c 0
 279 562 278 570 278 583 c 0xf380
 278 597 281 609 287 623 c 0
 305 661 343 694 391 694 c 0
 424 694 444 677 444 645 c 0
 444 603 409 576 374 576 c 0
 346 576 326 594 324 621 c 2
 324 629 l 1
264 -5 m 0
 162 -5 104 55 104 157 c 0
 104 171 105 188 107 199 c 0
 125 325 198 417 299 443 c 0
 316 447 329 450 351 450 c 2
 353 450 l 2
 413 450 455 414 479 345 c 0
 484 330 493 296 493 292 c 0
 493 290 493 290 494 291 c 0
 498 295 541 365 577 426 c 0
 586 442 589 447 592 448 c 0
 595 450 599 450 642 450 c 0
 693 450 693 450 697 444 c 0
 699 442 699 439 699 436 c 0
 699 432 698 428 682 401 c 0
 612 282 567 213 523 158 c 2
 520 154 l 1
 534 123 549 93 592 93 c 0
 611 93 630 99 637 106 c 0
 646 119 642 126 666 126 c 0
 688 126 693 122 687 100 c 0
 674 49 637 8 597 -3 c 0
 591 -5 584 -6 576 -6 c 0
 516 -6 490 49 476 104 c 1
 462 91 l 2
 415 45 367 15 321 2 c 0
 298 -4 288 -5 264 -5 c 0
155 182 m 0
 155 112 203 93 273 93 c 0
 280 93 287 93 292 94 c 0
 336 102 385 141 442 216 c 0
 448 224 453 231 453 232 c 0
 453 246 442 270 436 285 c 0
 415 326 386 351 337 351 c 0
 290 351 247 342 219 321 c 0
 182 293 155 243 155 182 c 0
285 -243 m 0
 259 -243 235 -227 235 -200 c 0xf980
 235 -190 238 -174 248 -127 c 0
 255 -93 262 -64 263 -62 c 0
 263 -61 266 -58 268 -57 c 0
 271 -55 272 -55 318 -55 c 0
 368 -55 369 -55 373 -60 c 0
 374 -62 375 -65 376 -66 c 0xf580
 376 -70 351 -189 348 -198 c 0
 340 -223 315 -243 285 -243 c 0
EndSplineSet
EndChar

StartChar: alphatonos
Encoding: 940 940 136
Width: 655
Flags: MW
HStem: -5 98<238 276> 351 99<351 353 353 361.5>
VStem: 104 51<147 164> 637 50
LayerCount: 2
Fore
SplineSet
540 712 m 0
 570 712 598 693 598 662 c 0
 598 647 590 630 574 615 c 0
 566 607 421 489 419 489 c 0
 418 489 402 499 402 500 c 0
 402 506 488 681 488 681 c 2
 500 698 517 712 540 712 c 0
264 -5 m 0
 162 -5 104 55 104 157 c 0
 104 171 105 188 107 199 c 0
 125 325 198 417 299 443 c 0
 316 447 329 450 351 450 c 2
 353 450 l 2
 413 450 455 414 479 345 c 0
 484 330 493 296 493 292 c 0
 493 290 493 290 494 291 c 0
 498 295 541 365 577 426 c 0
 586 442 589 447 592 448 c 0
 595 450 599 450 642 450 c 0
 693 450 693 450 697 444 c 0
 699 442 699 439 699 436 c 0
 699 432 698 428 682 401 c 0
 612 282 567 213 523 158 c 2
 520 154 l 1
 534 123 549 93 592 93 c 0
 611 93 630 99 637 106 c 0
 646 119 642 126 666 126 c 0
 688 126 693 122 687 100 c 0
 674 49 637 8 597 -3 c 0
 591 -5 584 -6 576 -6 c 0
 516 -6 490 49 476 104 c 1
 462 91 l 2
 415 45 367 15 321 2 c 0
 298 -4 288 -5 264 -5 c 0
155 182 m 0
 155 112 203 93 273 93 c 0
 280 93 287 93 292 94 c 0
 336 102 385 141 442 216 c 0
 448 224 453 231 453 232 c 0
 453 246 442 270 436 285 c 0
 415 326 386 351 337 351 c 0
 290 351 247 342 219 321 c 0
 182 293 155 243 155 182 c 0
EndSplineSet
EndChar

StartChar: uni1F05
Encoding: 7941 7941 137
Width: 655
Flags: MW
HStem: -5 98<238 276> 351 99<351 353 353 361.5> 576 118<384 408.5>
VStem: 104 51<147 164> 295 27<576.5 590> 637 50
LayerCount: 2
Fore
SplineSet
580 712 m 0
 610 712 638 693 638 662 c 0
 638 647 630 630 614 615 c 0
 606 607 461 489 459 489 c 0
 458 489 442 499 442 500 c 0
 442 506 528 681 528 681 c 2
 540 698 557 712 580 712 c 0
341 629 m 1
 333 621 322 599 322 582 c 0
 322 571 327 561 335 553 c 0
 350 538 377 529 411 527 c 0
 421 527 424 526 427 525 c 0
 436 520 436 506 427 501 c 0
 423 499 415 498 398 500 c 0
 351 505 316 524 302 551 c 0
 296 562 295 570 295 583 c 0
 295 597 298 609 304 623 c 0
 322 661 360 694 408 694 c 0
 441 694 461 677 461 645 c 0
 461 603 426 576 391 576 c 0
 363 576 343 594 341 621 c 2
 341 629 l 1
264 -5 m 0
 162 -5 104 55 104 157 c 0
 104 171 105 188 107 199 c 0
 125 325 198 417 299 443 c 0
 316 447 329 450 351 450 c 2
 353 450 l 2
 413 450 455 414 479 345 c 0
 484 330 493 296 493 292 c 0
 493 290 493 290 494 291 c 0
 498 295 541 365 577 426 c 0
 586 442 589 447 592 448 c 0
 595 450 599 450 642 450 c 0
 693 450 693 450 697 444 c 0
 699 442 699 439 699 436 c 0
 699 432 698 428 682 401 c 0
 612 282 567 213 523 158 c 2
 520 154 l 1
 534 123 549 93 592 93 c 0
 611 93 630 99 637 106 c 0
 646 119 642 126 666 126 c 0
 688 126 693 122 687 100 c 0
 674 49 637 8 597 -3 c 0
 591 -5 584 -6 576 -6 c 0
 516 -6 490 49 476 104 c 1
 462 91 l 2
 415 45 367 15 321 2 c 0
 298 -4 288 -5 264 -5 c 0
155 182 m 0
 155 112 203 93 273 93 c 0
 280 93 287 93 292 94 c 0
 336 102 385 141 442 216 c 0
 448 224 453 231 453 232 c 0
 453 246 442 270 436 285 c 0
 415 326 386 351 337 351 c 0
 290 351 247 342 219 321 c 0
 182 293 155 243 155 182 c 0
EndSplineSet
EndChar

StartChar: uni1F04
Encoding: 7940 7940 138
Width: 655
Flags: MW
HStem: -5 98<238 276> 351 99<351 353 353 361.5> 499 28<304.5 308 302 311> 576 118<360 376>
VStem: 104 51<147 164> 311 149<619 626 626 638 575.5 645.5> 637 50
LayerCount: 2
Fore
SplineSet
580 712 m 0
 610 712 638 693 638 662 c 0
 638 647 630 630 614 615 c 0
 606 607 461 489 459 489 c 0
 458 489 442 499 442 500 c 0
 442 506 528 681 528 681 c 2
 540 698 557 712 580 712 c 0
360 576 m 0
 335 576 311 591 311 619 c 2
 311 626 l 2
 311 665 341 694 379 694 c 0
 428 694 460 663 460 613 c 0
 460 538 385 503 311 499 c 0
 298 499 296 499 293 501 c 0
 284 506 283 518 291 524 c 0
 293 526 296 527 308 527 c 0
 374 531 420 558 431 598 c 0
 434 610 432 627 429 634 c 1
 423 599 392 576 360 576 c 0
264 -5 m 0
 162 -5 104 55 104 157 c 0
 104 171 105 188 107 199 c 0
 125 325 198 417 299 443 c 0
 316 447 329 450 351 450 c 2
 353 450 l 2
 413 450 455 414 479 345 c 0
 484 330 493 296 493 292 c 0
 493 290 493 290 494 291 c 0
 498 295 541 365 577 426 c 0
 586 442 589 447 592 448 c 0
 595 450 599 450 642 450 c 0
 693 450 693 450 697 444 c 0
 699 442 699 439 699 436 c 0
 699 432 698 428 682 401 c 0
 612 282 567 213 523 158 c 2
 520 154 l 1
 534 123 549 93 592 93 c 0
 611 93 630 99 637 106 c 0
 646 119 642 126 666 126 c 0
 688 126 693 122 687 100 c 0
 674 49 637 8 597 -3 c 0
 591 -5 584 -6 576 -6 c 0
 516 -6 490 49 476 104 c 1
 462 91 l 2
 415 45 367 15 321 2 c 0
 298 -4 288 -5 264 -5 c 0
155 182 m 0
 155 112 203 93 273 93 c 0
 280 93 287 93 292 94 c 0
 336 102 385 141 442 216 c 0
 448 224 453 231 453 232 c 0
 453 246 442 270 436 285 c 0
 415 326 386 351 337 351 c 0
 290 351 247 342 219 321 c 0
 182 293 155 243 155 182 c 0
EndSplineSet
EndChar

StartChar: uni1F02
Encoding: 7938 7938 139
Width: 655
Flags: MW
HStem: -5 98<238 276> 351 99<351 353 353 361.5> 499 28<290.5 294 288 297> 576 118<346 362>
VStem: 104 51<147 164> 297 149<619 626 626 638 575.5 645.5> 455 123<638.5 677> 637 50
LayerCount: 2
Fore
SplineSet
457 657 m 0
 466 683 498 712 535 712 c 0
 559 712 574 698 578 677 c 2
 578 677 586 508 586 504 c 2
 586 499 l 1
 579 496 571 492 564 489 c 1
 562 491 l 1
 512 552 464 612 462 616 c 0
 457 624 455 634 455 643 c 0
 455 648 456 653 457 657 c 0
346 576 m 0
 321 576 297 591 297 619 c 2
 297 626 l 2
 297 665 327 694 365 694 c 0
 414 694 446 663 446 613 c 0
 446 538 371 503 297 499 c 0
 284 499 282 499 279 501 c 0
 270 506 269 518 277 524 c 0
 279 526 282 527 294 527 c 0
 360 531 406 558 417 598 c 0
 420 610 418 627 415 634 c 1
 409 599 378 576 346 576 c 0
264 -5 m 0
 162 -5 104 55 104 157 c 0
 104 171 105 188 107 199 c 0
 125 325 198 417 299 443 c 0
 316 447 329 450 351 450 c 2
 353 450 l 2
 413 450 455 414 479 345 c 0
 484 330 493 296 493 292 c 0
 493 290 493 290 494 291 c 0
 498 295 541 365 577 426 c 0
 586 442 589 447 592 448 c 0
 595 450 599 450 642 450 c 0
 693 450 693 450 697 444 c 0
 699 442 699 439 699 436 c 0
 699 432 698 428 682 401 c 0
 612 282 567 213 523 158 c 2
 520 154 l 1
 534 123 549 93 592 93 c 0
 611 93 630 99 637 106 c 0
 646 119 642 126 666 126 c 0
 688 126 693 122 687 100 c 0
 674 49 637 8 597 -3 c 0
 591 -5 584 -6 576 -6 c 0
 516 -6 490 49 476 104 c 1
 462 91 l 2
 415 45 367 15 321 2 c 0
 298 -4 288 -5 264 -5 c 0
155 182 m 0
 155 112 203 93 273 93 c 0
 280 93 287 93 292 94 c 0
 336 102 385 141 442 216 c 0
 448 224 453 231 453 232 c 0
 453 246 442 270 436 285 c 0
 415 326 386 351 337 351 c 0
 290 351 247 342 219 321 c 0
 182 293 155 243 155 182 c 0
EndSplineSet
EndChar

StartChar: uni1FB4
Encoding: 8116 8116 140
Width: 655
Flags: W
HStem: -5 98<238 276> 351 99<351 353 353 361.5>
VStem: 104 51<147 164> 235 141<-213.5 -66> 263 113<-68 -61.5> 637 50
LayerCount: 2
Fore
SplineSet
540 712 m 0xe4
 570 712 598 693 598 662 c 0
 598 647 590 630 574 615 c 0
 566 607 421 489 419 489 c 0
 418 489 402 499 402 500 c 0
 402 506 488 681 488 681 c 2
 500 698 517 712 540 712 c 0xe4
264 -5 m 0
 162 -5 104 55 104 157 c 0
 104 171 105 188 107 199 c 0
 125 325 198 417 299 443 c 0
 316 447 329 450 351 450 c 2
 353 450 l 2
 413 450 455 414 479 345 c 0
 484 330 493 296 493 292 c 0
 493 290 493 290 494 291 c 0
 498 295 541 365 577 426 c 0
 586 442 589 447 592 448 c 0
 595 450 599 450 642 450 c 0
 693 450 693 450 697 444 c 0
 699 442 699 439 699 436 c 0
 699 432 698 428 682 401 c 0
 612 282 567 213 523 158 c 2
 520 154 l 1
 534 123 549 93 592 93 c 0
 611 93 630 99 637 106 c 0
 646 119 642 126 666 126 c 0
 688 126 693 122 687 100 c 0
 674 49 637 8 597 -3 c 0
 591 -5 584 -6 576 -6 c 0
 516 -6 490 49 476 104 c 1
 462 91 l 2
 415 45 367 15 321 2 c 0
 298 -4 288 -5 264 -5 c 0
155 182 m 0
 155 112 203 93 273 93 c 0
 280 93 287 93 292 94 c 0
 336 102 385 141 442 216 c 0
 448 224 453 231 453 232 c 0
 453 246 442 270 436 285 c 0
 415 326 386 351 337 351 c 0
 290 351 247 342 219 321 c 0
 182 293 155 243 155 182 c 0
285 -243 m 0
 259 -243 235 -227 235 -200 c 0xf4
 235 -190 238 -174 248 -127 c 0
 255 -93 262 -64 263 -62 c 0
 263 -61 266 -58 268 -57 c 0
 271 -55 272 -55 318 -55 c 0
 368 -55 369 -55 373 -60 c 0
 374 -62 375 -65 376 -66 c 0xec
 376 -70 351 -189 348 -198 c 0
 340 -223 315 -243 285 -243 c 0
EndSplineSet
EndChar

StartChar: uni1F85
Encoding: 8069 8069 141
Width: 655
Flags: W
HStem: -5 98<238 276> 351 99<351 353 353 361.5> 576 118<384 408.5>
VStem: 104 51<147 164> 235 141<-213.5 -66> 263 113<-68 -61.5> 295 27<576.5 590> 637 50
LayerCount: 2
Fore
SplineSet
580 712 m 0xf1
 610 712 638 693 638 662 c 0
 638 647 630 630 614 615 c 0
 606 607 461 489 459 489 c 0
 458 489 442 499 442 500 c 0
 442 506 528 681 528 681 c 2
 540 698 557 712 580 712 c 0xf1
341 629 m 1
 333 621 322 599 322 582 c 0
 322 571 327 561 335 553 c 0
 350 538 377 529 411 527 c 0
 421 527 424 526 427 525 c 0
 436 520 436 506 427 501 c 0
 423 499 415 498 398 500 c 0
 351 505 316 524 302 551 c 0
 296 562 295 570 295 583 c 0xf3
 295 597 298 609 304 623 c 0
 322 661 360 694 408 694 c 0
 441 694 461 677 461 645 c 0
 461 603 426 576 391 576 c 0
 363 576 343 594 341 621 c 2
 341 629 l 1
264 -5 m 0
 162 -5 104 55 104 157 c 0
 104 171 105 188 107 199 c 0
 125 325 198 417 299 443 c 0
 316 447 329 450 351 450 c 2
 353 450 l 2
 413 450 455 414 479 345 c 0
 484 330 493 296 493 292 c 0
 493 290 493 290 494 291 c 0
 498 295 541 365 577 426 c 0
 586 442 589 447 592 448 c 0
 595 450 599 450 642 450 c 0
 693 450 693 450 697 444 c 0
 699 442 699 439 699 436 c 0
 699 432 698 428 682 401 c 0
 612 282 567 213 523 158 c 2
 520 154 l 1
 534 123 549 93 592 93 c 0
 611 93 630 99 637 106 c 0
 646 119 642 126 666 126 c 0
 688 126 693 122 687 100 c 0
 674 49 637 8 597 -3 c 0
 591 -5 584 -6 576 -6 c 0
 516 -6 490 49 476 104 c 1
 462 91 l 2
 415 45 367 15 321 2 c 0
 298 -4 288 -5 264 -5 c 0
155 182 m 0
 155 112 203 93 273 93 c 0
 280 93 287 93 292 94 c 0
 336 102 385 141 442 216 c 0
 448 224 453 231 453 232 c 0
 453 246 442 270 436 285 c 0
 415 326 386 351 337 351 c 0
 290 351 247 342 219 321 c 0
 182 293 155 243 155 182 c 0
285 -243 m 0
 259 -243 235 -227 235 -200 c 0xf9
 235 -190 238 -174 248 -127 c 0
 255 -93 262 -64 263 -62 c 0
 263 -61 266 -58 268 -57 c 0
 271 -55 272 -55 318 -55 c 0
 368 -55 369 -55 373 -60 c 0
 374 -62 375 -65 376 -66 c 0xf5
 376 -70 351 -189 348 -198 c 0
 340 -223 315 -243 285 -243 c 0
EndSplineSet
EndChar

StartChar: uni1F84
Encoding: 8068 8068 142
Width: 655
Flags: W
HStem: -5 98<238 276> 351 99<351 353 353 361.5> 499 28<304.5 308 302 311> 576 118<360 376>
VStem: 104 51<147 164> 235 141<-213.5 -66> 263 113<-68 -61.5> 311 149<619 626 626 638 575.5 645.5> 637 50
LayerCount: 2
Fore
SplineSet
580 712 m 0xf880
 610 712 638 693 638 662 c 0
 638 647 630 630 614 615 c 0
 606 607 461 489 459 489 c 0
 458 489 442 499 442 500 c 0
 442 506 528 681 528 681 c 2
 540 698 557 712 580 712 c 0xf880
360 576 m 0
 335 576 311 591 311 619 c 2
 311 626 l 2
 311 665 341 694 379 694 c 0
 428 694 460 663 460 613 c 0
 460 538 385 503 311 499 c 0xf980
 298 499 296 499 293 501 c 0
 284 506 283 518 291 524 c 0
 293 526 296 527 308 527 c 0
 374 531 420 558 431 598 c 0
 434 610 432 627 429 634 c 1
 423 599 392 576 360 576 c 0
264 -5 m 0
 162 -5 104 55 104 157 c 0
 104 171 105 188 107 199 c 0
 125 325 198 417 299 443 c 0
 316 447 329 450 351 450 c 2
 353 450 l 2
 413 450 455 414 479 345 c 0
 484 330 493 296 493 292 c 0
 493 290 493 290 494 291 c 0
 498 295 541 365 577 426 c 0
 586 442 589 447 592 448 c 0
 595 450 599 450 642 450 c 0
 693 450 693 450 697 444 c 0
 699 442 699 439 699 436 c 0
 699 432 698 428 682 401 c 0
 612 282 567 213 523 158 c 2
 520 154 l 1
 534 123 549 93 592 93 c 0
 611 93 630 99 637 106 c 0
 646 119 642 126 666 126 c 0
 688 126 693 122 687 100 c 0
 674 49 637 8 597 -3 c 0
 591 -5 584 -6 576 -6 c 0
 516 -6 490 49 476 104 c 1
 462 91 l 2
 415 45 367 15 321 2 c 0
 298 -4 288 -5 264 -5 c 0
155 182 m 0
 155 112 203 93 273 93 c 0
 280 93 287 93 292 94 c 0
 336 102 385 141 442 216 c 0
 448 224 453 231 453 232 c 0
 453 246 442 270 436 285 c 0
 415 326 386 351 337 351 c 0
 290 351 247 342 219 321 c 0
 182 293 155 243 155 182 c 0
285 -243 m 0
 259 -243 235 -227 235 -200 c 0xfc80
 235 -190 238 -174 248 -127 c 0
 255 -93 262 -64 263 -62 c 0
 263 -61 266 -58 268 -57 c 0
 271 -55 272 -55 318 -55 c 0
 368 -55 369 -55 373 -60 c 0
 374 -62 375 -65 376 -66 c 0xfa80
 376 -70 351 -189 348 -198 c 0
 340 -223 315 -243 285 -243 c 0
EndSplineSet
EndChar

StartChar: uni1F82
Encoding: 8066 8066 143
Width: 655
Flags: W
HStem: -5 98<238 276> 351 99<351 353 353 361.5> 499 28<290.5 294 288 297> 576 118<346 362>
VStem: 104 51<147 164> 235 141<-213.5 -66> 263 113<-68 -61.5> 297 149<619 626 626 638 575.5 645.5> 455 123<638.5 677> 637 50
LayerCount: 2
Fore
SplineSet
457 657 m 0xf8c0
 466 683 498 712 535 712 c 0
 559 712 574 698 578 677 c 2
 578 677 586 508 586 504 c 2
 586 499 l 1
 579 496 571 492 564 489 c 1
 562 491 l 1
 512 552 464 612 462 616 c 0
 457 624 455 634 455 643 c 0
 455 648 456 653 457 657 c 0xf8c0
346 576 m 0
 321 576 297 591 297 619 c 2
 297 626 l 2
 297 665 327 694 365 694 c 0
 414 694 446 663 446 613 c 0
 446 538 371 503 297 499 c 0xf9c0
 284 499 282 499 279 501 c 0
 270 506 269 518 277 524 c 0
 279 526 282 527 294 527 c 0
 360 531 406 558 417 598 c 0
 420 610 418 627 415 634 c 1
 409 599 378 576 346 576 c 0
264 -5 m 0
 162 -5 104 55 104 157 c 0
 104 171 105 188 107 199 c 0
 125 325 198 417 299 443 c 0
 316 447 329 450 351 450 c 2
 353 450 l 2
 413 450 455 414 479 345 c 0
 484 330 493 296 493 292 c 0
 493 290 493 290 494 291 c 0
 498 295 541 365 577 426 c 0
 586 442 589 447 592 448 c 0
 595 450 599 450 642 450 c 0
 693 450 693 450 697 444 c 0
 699 442 699 439 699 436 c 0
 699 432 698 428 682 401 c 0
 612 282 567 213 523 158 c 2
 520 154 l 1
 534 123 549 93 592 93 c 0
 611 93 630 99 637 106 c 0
 646 119 642 126 666 126 c 0
 688 126 693 122 687 100 c 0
 674 49 637 8 597 -3 c 0
 591 -5 584 -6 576 -6 c 0
 516 -6 490 49 476 104 c 1
 462 91 l 2
 415 45 367 15 321 2 c 0
 298 -4 288 -5 264 -5 c 0
155 182 m 0
 155 112 203 93 273 93 c 0
 280 93 287 93 292 94 c 0
 336 102 385 141 442 216 c 0
 448 224 453 231 453 232 c 0
 453 246 442 270 436 285 c 0
 415 326 386 351 337 351 c 0
 290 351 247 342 219 321 c 0
 182 293 155 243 155 182 c 0
285 -243 m 0
 259 -243 235 -227 235 -200 c 0xfcc0
 235 -190 238 -174 248 -127 c 0
 255 -93 262 -64 263 -62 c 0
 263 -61 266 -58 268 -57 c 0
 271 -55 272 -55 318 -55 c 0
 368 -55 369 -55 373 -60 c 0
 374 -62 375 -65 376 -66 c 0xfac0
 376 -70 351 -189 348 -198 c 0
 340 -223 315 -243 285 -243 c 0
EndSplineSet
EndChar

StartChar: uni1FB6
Encoding: 8118 8118 144
Width: 655
Flags: W
HStem: -5 98<238 276> 351 99<351 353 353 361.5> 600 36<501 563> 657 36<386 396>
VStem: 104 51<147 164> 256 75 610 76<681 681> 637 50
LayerCount: 2
Fore
SplineSet
256 621 m 0xfe
 269 667 325 693 391 693 c 0
 465 693 483 692 518 657 c 0
 536 639 538 636 550 636 c 0
 576 636 602 657 610 681 c 0
 615 698 620 694 649 694 c 0
 674 694 675 694 679 692 c 0
 683 690 686 685 686 680 c 0
 686 671 676 651 667 641 c 0
 649 621 621 608 582 601 c 0
 574 600 554 600 533 600 c 0
 469 600 449 606 420 639 c 0
 403 655 406 657 386 657 c 0
 361 655 338 635 331 612 c 0
 327 599 326 599 293 599 c 0
 265 599 262 599 258 603 c 0
 254 607 254 612 256 621 c 0xfe
264 -5 m 0
 162 -5 104 55 104 157 c 0
 104 171 105 188 107 199 c 0
 125 325 198 417 299 443 c 0
 316 447 329 450 351 450 c 2
 353 450 l 2
 413 450 455 414 479 345 c 0
 484 330 493 296 493 292 c 0
 493 290 493 290 494 291 c 0
 498 295 541 365 577 426 c 0
 586 442 589 447 592 448 c 0
 595 450 599 450 642 450 c 0
 693 450 693 450 697 444 c 0
 699 442 699 439 699 436 c 0
 699 432 698 428 682 401 c 0
 612 282 567 213 523 158 c 2
 520 154 l 1
 534 123 549 93 592 93 c 0
 611 93 630 99 637 106 c 0
 646 119 642 126 666 126 c 0
 688 126 693 122 687 100 c 0xfd
 674 49 637 8 597 -3 c 0
 591 -5 584 -6 576 -6 c 0
 516 -6 490 49 476 104 c 1
 462 91 l 2
 415 45 367 15 321 2 c 0
 298 -4 288 -5 264 -5 c 0
155 182 m 0
 155 112 203 93 273 93 c 0
 280 93 287 93 292 94 c 0
 336 102 385 141 442 216 c 0
 448 224 453 231 453 232 c 0
 453 246 442 270 436 285 c 0
 415 326 386 351 337 351 c 0
 290 351 247 342 219 321 c 0
 182 293 155 243 155 182 c 0
EndSplineSet
EndChar

StartChar: uni1F07
Encoding: 7943 7943 145
Width: 655
Flags: W
HStem: -5 98<238 276> 351 99<351 353 353 361.5> 488 28 595 37<548.5 573.5 548.5 577.5> 657 36<369 387>
VStem: 104 51<147 164> 394 28<527 534 527 548> 626 60<681 681> 637 50
LayerCount: 2
Fore
SplineSet
276 654 m 0xff
 299 676 336 693 381 693 c 0
 448 693 473 682 511 653 c 0
 530 638 541 632 556 632 c 0
 591 632 616 654 626 681 c 0
 630 696 635 694 657 694 c 0
 674 694 676 694 679 692 c 0
 683 690 686 685 686 680 c 0
 686 673 679 656 672 646 c 0
 650 616 605 595 550 595 c 0
 499 595 462 608 432 634 c 0
 416 647 409 651 401 654 c 0
 396 656 390 657 384 657 c 0
 354 657 323 636 314 609 c 0
 310 596 308 595 284 595 c 0
 263 595 260 596 256 601 c 0
 253 605 253 609 255 617 c 0
 259 630 267 644 276 654 c 0xff
473 502 m 0
 473 491 466 488 453 488 c 0
 416 490 394 510 394 535 c 0
 394 561 417 586 441 591 c 0
 466 598 486 585 486 563 c 0
 486 541 470 525 447 525 c 0
 436 525 432 526 425 532 c 0
 423 534 422 535 422 533 c 0
 422 521 441 517 455 516 c 0
 469 515 473 511 473 502 c 0
264 -5 m 0
 162 -5 104 55 104 157 c 0
 104 171 105 188 107 199 c 0
 125 325 198 417 299 443 c 0
 316 447 329 450 351 450 c 2
 353 450 l 2
 413 450 455 414 479 345 c 0
 484 330 493 296 493 292 c 0
 493 290 493 290 494 291 c 0
 498 295 541 365 577 426 c 0
 586 442 589 447 592 448 c 0
 595 450 599 450 642 450 c 0
 693 450 693 450 697 444 c 0
 699 442 699 439 699 436 c 0
 699 432 698 428 682 401 c 0
 612 282 567 213 523 158 c 2
 520 154 l 1
 534 123 549 93 592 93 c 0
 611 93 630 99 637 106 c 0
 646 119 642 126 666 126 c 0
 688 126 693 122 687 100 c 0xfe80
 674 49 637 8 597 -3 c 0
 591 -5 584 -6 576 -6 c 0
 516 -6 490 49 476 104 c 1
 462 91 l 2
 415 45 367 15 321 2 c 0
 298 -4 288 -5 264 -5 c 0
155 182 m 0
 155 112 203 93 273 93 c 0
 280 93 287 93 292 94 c 0
 336 102 385 141 442 216 c 0
 448 224 453 231 453 232 c 0
 453 246 442 270 436 285 c 0
 415 326 386 351 337 351 c 0
 290 351 247 342 219 321 c 0
 182 293 155 243 155 182 c 0
EndSplineSet
EndChar

StartChar: uni1F06
Encoding: 7942 7942 146
Width: 628
Flags: W
HStem: -5 98<238 276> 351 99<351 353 353 361.5> 488 28<419.5 423.5 419 441> 524 67 595 37<542.5 565 542.5 569> 657 37<388.5 398.5>
VStem: 104 51<147 164> 264 59 416 85<545.5 559 529 566> 617 60<681 681> 637 50
LayerCount: 2
Fore
SplineSet
372 693 m 0xffc0
 376 693 385 694 392 694 c 0
 446 694 481 678 510 653 c 0
 528 637 536 632 549 632 c 0
 581 632 608 655 617 681 c 0
 621 696 626 694 648 694 c 0
 665 694 667 694 670 692 c 0
 674 690 677 685 677 680 c 0
 677 673 670 657 664 647 c 0
 642 616 595 595 543 595 c 0
 493 595 463 608 432 634 c 0
 412 652 406 657 391 657 c 0
 360 657 330 633 323 608 c 0
 319 596 317 595 293 595 c 0
 272 595 269 596 265 601 c 0
 262 605 262 609 264 617 c 0
 275 656 317 686 372 693 c 0xffc0
447 524 m 2
 429 524 416 536 416 555 c 0
 416 577 437 599 467 591 c 0
 488 586 501 569 501 549 c 0
 501 509 461 488 421 488 c 0
 418 488 415 488 413 489 c 0
 403 494 402 510 412 514 c 0
 414 515 418 516 420 516 c 0
 427 516 438 518 446 521 c 0
 457 524 457 525 450 524 c 2
 447 524 l 2
264 -5 m 0
 162 -5 104 55 104 157 c 0
 104 171 105 188 107 199 c 0
 125 325 198 417 299 443 c 0
 316 447 329 450 351 450 c 2
 353 450 l 2
 413 450 455 414 479 345 c 0
 484 330 493 296 493 292 c 0
 493 290 493 290 494 291 c 0
 498 295 541 365 577 426 c 0
 586 442 589 447 592 448 c 0
 595 450 599 450 642 450 c 0
 693 450 693 450 697 444 c 0
 699 442 699 439 699 436 c 0
 699 432 698 428 682 401 c 0
 612 282 567 213 523 158 c 2
 520 154 l 1
 534 123 549 93 592 93 c 0
 611 93 630 99 637 106 c 0
 646 119 642 126 666 126 c 0
 688 126 693 122 687 100 c 0xffa0
 674 49 637 8 597 -3 c 0
 591 -5 584 -6 576 -6 c 0
 516 -6 490 49 476 104 c 1
 462 91 l 2
 415 45 367 15 321 2 c 0
 298 -4 288 -5 264 -5 c 0
155 182 m 0
 155 112 203 93 273 93 c 0
 280 93 287 93 292 94 c 0
 336 102 385 141 442 216 c 0
 448 224 453 231 453 232 c 0
 453 246 442 270 436 285 c 0
 415 326 386 351 337 351 c 0
 290 351 247 342 219 321 c 0
 182 293 155 243 155 182 c 0
EndSplineSet
EndChar

StartChar: uni03DD
Encoding: 989 989 147
Width: 628
Flags: W
HStem: 132 106<429.5 430> 160 50<237 243> 341 104<571.5 608.5> 362 62<343 360>
VStem: 25 123
LayerCount: 2
Fore
SplineSet
78 -268 m 0x48
 52 -268 25 -255 25 -226 c 0
 25 -207 31 -202 43 -189 c 0
 80 -147 105 -106 120 -59 c 0
 136 -5 198 307 203 318 c 0
 214 362 255 397 292 413 c 0
 311 421 327 424 355 424 c 0x58
 418 424 502 431 570 442 c 0
 582 444 590 445 597 445 c 0
 620 445 634 429 634 407 c 0
 634 371 605 341 573 341 c 0x28
 570 341 566 342 563 342 c 0
 477 356 444 360 360 362 c 0
 326 362 321 362 315 361 c 0
 291 354 270 335 263 312 c 0
 262 310 238 210 242 210 c 0x58
 244 210 273 212 291 214 c 0
 330 218 363 224 405 234 c 0
 421 238 425 238 434 238 c 0
 460 238 472 221 472 198 c 0
 472 164 446 132 414 132 c 0x88
 407 132 399 133 390 136 c 0
 336 150 284 158 237 160 c 1
 230 161 l 1
 194 -5 l 2
 151 -211 153 -202 148 -214 c 0
 135 -247 110 -268 78 -268 c 0x48
EndSplineSet
EndChar

StartChar: uni1FB7
Encoding: 8119 8119 148
Width: 655
Flags: W
HStem: -5 98<238 276> 351 99<351 353 353 361.5> 600 36<501 563> 657 36<386 396>
VStem: 104 51<147 164> 235 141<-213.5 -66> 256 75 263 113<-68 -61.5> 610 76<681 681> 637 50
LayerCount: 2
Fore
SplineSet
256 621 m 0xfa80
 269 667 325 693 391 693 c 0
 465 693 483 692 518 657 c 0
 536 639 538 636 550 636 c 0
 576 636 602 657 610 681 c 0
 615 698 620 694 649 694 c 0
 674 694 675 694 679 692 c 0
 683 690 686 685 686 680 c 0
 686 671 676 651 667 641 c 0
 649 621 621 608 582 601 c 0
 574 600 554 600 533 600 c 0
 469 600 449 606 420 639 c 0
 403 655 406 657 386 657 c 0
 361 655 338 635 331 612 c 0
 327 599 326 599 293 599 c 0
 265 599 262 599 258 603 c 0
 254 607 254 612 256 621 c 0xfa80
264 -5 m 0
 162 -5 104 55 104 157 c 0
 104 171 105 188 107 199 c 0
 125 325 198 417 299 443 c 0
 316 447 329 450 351 450 c 2
 353 450 l 2
 413 450 455 414 479 345 c 0
 484 330 493 296 493 292 c 0
 493 290 493 290 494 291 c 0
 498 295 541 365 577 426 c 0
 586 442 589 447 592 448 c 0
 595 450 599 450 642 450 c 0
 693 450 693 450 697 444 c 0
 699 442 699 439 699 436 c 0
 699 432 698 428 682 401 c 0
 612 282 567 213 523 158 c 2
 520 154 l 1
 534 123 549 93 592 93 c 0
 611 93 630 99 637 106 c 0
 646 119 642 126 666 126 c 0
 688 126 693 122 687 100 c 0xf840
 674 49 637 8 597 -3 c 0
 591 -5 584 -6 576 -6 c 0
 516 -6 490 49 476 104 c 1
 462 91 l 2
 415 45 367 15 321 2 c 0
 298 -4 288 -5 264 -5 c 0
155 182 m 0
 155 112 203 93 273 93 c 0
 280 93 287 93 292 94 c 0
 336 102 385 141 442 216 c 0
 448 224 453 231 453 232 c 0
 453 246 442 270 436 285 c 0
 415 326 386 351 337 351 c 0
 290 351 247 342 219 321 c 0
 182 293 155 243 155 182 c 0
285 -243 m 0
 259 -243 235 -227 235 -200 c 0xfc
 235 -190 238 -174 248 -127 c 0
 255 -93 262 -64 263 -62 c 0
 263 -61 266 -58 268 -57 c 0
 271 -55 272 -55 318 -55 c 0
 368 -55 369 -55 373 -60 c 0
 374 -62 375 -65 376 -66 c 0xf9
 376 -70 351 -189 348 -198 c 0
 340 -223 315 -243 285 -243 c 0
EndSplineSet
EndChar

StartChar: uni1F87
Encoding: 8071 8071 149
Width: 655
Flags: W
HStem: -5 98<238 276> 351 99<351 353 353 361.5> 488 28 595 37<548.5 573.5 548.5 577.5> 657 36<369 387>
VStem: 104 51<147 164> 235 141<-213.5 -66> 263 113<-68 -61.5> 394 28<527 534 527 548> 626 60<681 681> 637 50
LayerCount: 2
Fore
SplineSet
276 654 m 0xfcc0
 299 676 336 693 381 693 c 0
 448 693 473 682 511 653 c 0
 530 638 541 632 556 632 c 0
 591 632 616 654 626 681 c 0
 630 696 635 694 657 694 c 0
 674 694 676 694 679 692 c 0
 683 690 686 685 686 680 c 0
 686 673 679 656 672 646 c 0
 650 616 605 595 550 595 c 0
 499 595 462 608 432 634 c 0
 416 647 409 651 401 654 c 0
 396 656 390 657 384 657 c 0
 354 657 323 636 314 609 c 0
 310 596 308 595 284 595 c 0
 263 595 260 596 256 601 c 0
 253 605 253 609 255 617 c 0
 259 630 267 644 276 654 c 0xfcc0
473 502 m 0
 473 491 466 488 453 488 c 0
 416 490 394 510 394 535 c 0
 394 561 417 586 441 591 c 0
 466 598 486 585 486 563 c 0
 486 541 470 525 447 525 c 0
 436 525 432 526 425 532 c 0
 423 534 422 535 422 533 c 0
 422 521 441 517 455 516 c 0
 469 515 473 511 473 502 c 0
264 -5 m 0
 162 -5 104 55 104 157 c 0
 104 171 105 188 107 199 c 0
 125 325 198 417 299 443 c 0
 316 447 329 450 351 450 c 2
 353 450 l 2
 413 450 455 414 479 345 c 0
 484 330 493 296 493 292 c 0
 493 290 493 290 494 291 c 0
 498 295 541 365 577 426 c 0
 586 442 589 447 592 448 c 0
 595 450 599 450 642 450 c 0
 693 450 693 450 697 444 c 0
 699 442 699 439 699 436 c 0
 699 432 698 428 682 401 c 0
 612 282 567 213 523 158 c 2
 520 154 l 1
 534 123 549 93 592 93 c 0
 611 93 630 99 637 106 c 0
 646 119 642 126 666 126 c 0
 688 126 693 122 687 100 c 0xfca0
 674 49 637 8 597 -3 c 0
 591 -5 584 -6 576 -6 c 0
 516 -6 490 49 476 104 c 1
 462 91 l 2
 415 45 367 15 321 2 c 0
 298 -4 288 -5 264 -5 c 0
155 182 m 0
 155 112 203 93 273 93 c 0
 280 93 287 93 292 94 c 0
 336 102 385 141 442 216 c 0
 448 224 453 231 453 232 c 0
 453 246 442 270 436 285 c 0
 415 326 386 351 337 351 c 0
 290 351 247 342 219 321 c 0
 182 293 155 243 155 182 c 0
285 -243 m 0
 259 -243 235 -227 235 -200 c 0xfe80
 235 -190 238 -174 248 -127 c 0
 255 -93 262 -64 263 -62 c 0
 263 -61 266 -58 268 -57 c 0
 271 -55 272 -55 318 -55 c 0
 368 -55 369 -55 373 -60 c 0
 374 -62 375 -65 376 -66 c 0xfd80
 376 -70 351 -189 348 -198 c 0
 340 -223 315 -243 285 -243 c 0
EndSplineSet
EndChar

StartChar: uni1F86
Encoding: 8070 8070 150
Width: 655
Flags: W
HStem: -5 98<238 276> 351 99<351 353 353 361.5> 488 28<419.5 423.5 419 441> 524 67 595 37<548.5 573.5 548.5 577.5> 657 36<369 387>
VStem: 104 51<147 164> 235 141<-213.5 -66> 263 113<-68 -61.5> 416 85<545.5 559 529 566> 626 60<681 681> 637 50
LayerCount: 2
Fore
SplineSet
276 654 m 0xfe60
 299 676 336 693 381 693 c 0
 448 693 473 682 511 653 c 0
 530 638 541 632 556 632 c 0
 591 632 616 654 626 681 c 0
 630 696 635 694 657 694 c 0
 674 694 676 694 679 692 c 0
 683 690 686 685 686 680 c 0
 686 673 679 656 672 646 c 0
 650 616 605 595 550 595 c 0
 499 595 462 608 432 634 c 0
 416 647 409 651 401 654 c 0
 396 656 390 657 384 657 c 0
 354 657 323 636 314 609 c 0
 310 596 308 595 284 595 c 0
 263 595 260 596 256 601 c 0
 253 605 253 609 255 617 c 0
 259 630 267 644 276 654 c 0xfe60
447 524 m 2
 429 524 416 536 416 555 c 0
 416 577 437 599 467 591 c 0
 488 586 501 569 501 549 c 0
 501 509 461 488 421 488 c 0
 418 488 415 488 413 489 c 0
 403 494 402 510 412 514 c 0
 414 515 418 516 420 516 c 0
 427 516 438 518 446 521 c 0
 457 524 457 525 450 524 c 2
 447 524 l 2
264 -5 m 0
 162 -5 104 55 104 157 c 0
 104 171 105 188 107 199 c 0
 125 325 198 417 299 443 c 0
 316 447 329 450 351 450 c 2
 353 450 l 2
 413 450 455 414 479 345 c 0
 484 330 493 296 493 292 c 0
 493 290 493 290 494 291 c 0
 498 295 541 365 577 426 c 0
 586 442 589 447 592 448 c 0
 595 450 599 450 642 450 c 0
 693 450 693 450 697 444 c 0
 699 442 699 439 699 436 c 0
 699 432 698 428 682 401 c 0
 612 282 567 213 523 158 c 2
 520 154 l 1
 534 123 549 93 592 93 c 0
 611 93 630 99 637 106 c 0
 646 119 642 126 666 126 c 0
 688 126 693 122 687 100 c 0xfe50
 674 49 637 8 597 -3 c 0
 591 -5 584 -6 576 -6 c 0
 516 -6 490 49 476 104 c 1
 462 91 l 2
 415 45 367 15 321 2 c 0
 298 -4 288 -5 264 -5 c 0
155 182 m 0
 155 112 203 93 273 93 c 0
 280 93 287 93 292 94 c 0
 336 102 385 141 442 216 c 0
 448 224 453 231 453 232 c 0
 453 246 442 270 436 285 c 0
 415 326 386 351 337 351 c 0
 290 351 247 342 219 321 c 0
 182 293 155 243 155 182 c 0
285 -243 m 0
 259 -243 235 -227 235 -200 c 0xff40
 235 -190 238 -174 248 -127 c 0
 255 -93 262 -64 263 -62 c 0
 263 -61 266 -58 268 -57 c 0
 271 -55 272 -55 318 -55 c 0
 368 -55 369 -55 373 -60 c 0
 374 -62 375 -65 376 -66 c 0xfec0
 376 -70 351 -189 348 -198 c 0
 340 -223 315 -243 285 -243 c 0
EndSplineSet
EndChar

StartChar: uni0020035D
Encoding: 1114121 -1 151
Width: 828
Flags: MW
HStem: 507 63<491 537> 674 20G<162 199 199 199 924 942 942 949.5>
LayerCount: 2
Fore
SplineSet
162 694 m 1
 199 694 l 1
 202 689 206 685 212 678 c 0
 277 607 388 570 535 570 c 0
 689 570 821 614 912 685 c 2
 924 694 l 1
 942 694 l 2
 957 694 960 694 959 693 c 0
 916 658 883 635 847 612 c 0
 772 566 696 534 625 519 c 0
 589 511 554 507 520 507 c 0
 462 507 407 518 355 541 c 0
 286 570 224 618 171 683 c 0
 166 689 162 693 162 694 c 1
EndSplineSet
EndChar

StartChar: uni1F74
Encoding: 8052 8052 152
Width: 628
Flags: W
HStem: -10 21G<190.5 216> 346 109<480.5 518>
VStem: 154 110 373 129 373 132 570 49<286.5 308.5>
LayerCount: 2
Fore
SplineSet
373 641 m 0x6c
 373 679 410 704 442 711 c 0
 474 715 491 702 496 676 c 0
 498 670 499 641 502 584 c 0x74
 504 538 505 500 505 500 c 2
 504 499 484 489 483 489 c 0
 482 489 387 607 382 614 c 0
 376 623 373 632 373 641 c 0x6c
112 362 m 0
 112 408 161 455 217 455 c 1
 271 451 292 417 295 356 c 2
 296 340 l 1
 303 350 l 2
 355 419 416 455 483 455 c 0
 572 455 619 386 619 296 c 0
 619 277 617 257 613 236 c 0
 609 214 519 -209 517 -215 c 0
 510 -240 481 -261 453 -261 c 0
 425 -261 404 -244 404 -216 c 0
 404 -208 405 -198 410 -182 c 0
 423 -129 439 -87 485 16 c 0
 529 115 546 158 559 208 c 0
 566 238 570 269 570 289 c 0
 570 328 538 346 498 346 c 0
 463 346 438 336 411 309 c 0
 368 266 335 205 282 69 c 0
 274 50 266 31 264 27 c 0
 250 4 228 -10 204 -10 c 0xe4
 177 -10 154 6 154 33 c 0
 154 42 158 53 170 84 c 0
 192 140 207 177 223 210 c 0
 235 236 238 268 238 298 c 0
 237 323 232 338 222 347 c 0
 217 352 208 356 207 354 c 0
 207 353 205 350 202 345 c 0
 192 331 177 321 155 321 c 0
 131 321 112 336 112 362 c 0
EndSplineSet
EndChar

StartChar: uni1F21
Encoding: 7969 7969 153
Width: 628
Flags: W
HStem: -10 21G<190.5 216> 346 109<480.5 518> 576 118<480 504.5>
VStem: 154 110 391 27<576.5 590> 570 49<286.5 308.5>
LayerCount: 2
Fore
SplineSet
437 629 m 1
 429 621 418 599 418 582 c 0
 418 571 423 561 431 553 c 0
 446 538 473 529 507 527 c 0
 517 527 520 526 523 525 c 0
 532 520 532 506 523 501 c 0
 519 499 511 498 494 500 c 0
 447 505 412 524 398 551 c 0
 392 562 391 570 391 583 c 0
 391 597 394 609 400 623 c 0
 418 661 456 694 504 694 c 0
 537 694 557 677 557 645 c 0
 557 603 522 576 487 576 c 0
 459 576 439 594 437 621 c 2
 437 629 l 1
112 362 m 0
 112 408 161 455 217 455 c 1
 271 451 292 417 295 356 c 2
 296 340 l 1
 303 350 l 2
 355 419 416 455 483 455 c 0
 572 455 619 386 619 296 c 0
 619 277 617 257 613 236 c 0
 609 214 519 -209 517 -215 c 0
 510 -240 481 -261 453 -261 c 0
 425 -261 404 -244 404 -216 c 0
 404 -208 405 -198 410 -182 c 0
 423 -129 439 -87 485 16 c 0
 529 115 546 158 559 208 c 0
 566 238 570 269 570 289 c 0
 570 328 538 346 498 346 c 0
 463 346 438 336 411 309 c 0
 368 266 335 205 282 69 c 0
 274 50 266 31 264 27 c 0
 250 4 228 -10 204 -10 c 0xfc
 177 -10 154 6 154 33 c 0
 154 42 158 53 170 84 c 0
 192 140 207 177 223 210 c 0
 235 236 238 268 238 298 c 0
 237 323 232 338 222 347 c 0
 217 352 208 356 207 354 c 0
 207 353 205 350 202 345 c 0
 192 331 177 321 155 321 c 0
 131 321 112 336 112 362 c 0
EndSplineSet
EndChar

StartChar: uni1F20
Encoding: 7968 7968 154
Width: 628
Flags: W
HStem: -10 21G<190.5 216> 346 109<480.5 518> 499 28<431.5 435 429 438> 576 118<487 503>
VStem: 154 110 438 149<619 626 626 638 575.5 645.5> 570 49<286.5 308.5>
LayerCount: 2
Fore
SplineSet
487 576 m 0x7c
 462 576 438 591 438 619 c 2
 438 626 l 2
 438 665 468 694 506 694 c 0
 555 694 587 663 587 613 c 0
 587 538 512 503 438 499 c 0
 425 499 423 499 420 501 c 0
 411 506 410 518 418 524 c 0
 420 526 423 527 435 527 c 0
 501 531 547 558 558 598 c 0
 561 610 559 627 556 634 c 1
 550 599 519 576 487 576 c 0x7c
112 362 m 0
 112 408 161 455 217 455 c 1
 271 451 292 417 295 356 c 2
 296 340 l 1
 303 350 l 2
 355 419 416 455 483 455 c 0
 572 455 619 386 619 296 c 0
 619 277 617 257 613 236 c 0
 609 214 519 -209 517 -215 c 0
 510 -240 481 -261 453 -261 c 0
 425 -261 404 -244 404 -216 c 0
 404 -208 405 -198 410 -182 c 0
 423 -129 439 -87 485 16 c 0
 529 115 546 158 559 208 c 0
 566 238 570 269 570 289 c 0
 570 328 538 346 498 346 c 0
 463 346 438 336 411 309 c 0
 368 266 335 205 282 69 c 0
 274 50 266 31 264 27 c 0
 250 4 228 -10 204 -10 c 0xfa
 177 -10 154 6 154 33 c 0
 154 42 158 53 170 84 c 0
 192 140 207 177 223 210 c 0
 235 236 238 268 238 298 c 0
 237 323 232 338 222 347 c 0
 217 352 208 356 207 354 c 0
 207 353 205 350 202 345 c 0
 192 331 177 321 155 321 c 0
 131 321 112 336 112 362 c 0
EndSplineSet
EndChar

StartChar: uni1FC2
Encoding: 8130 8130 155
Width: 628
Flags: W
HStem: -10 21G<190.5 216> 346 109<480.5 518>
VStem: 107 141<-213.5 -66> 135 113<-68 -61.5> 154 110 373 129 373 132 570 49<286.5 308.5>
LayerCount: 2
Fore
SplineSet
373 641 m 0x43
 373 679 410 704 442 711 c 0
 474 715 491 702 496 676 c 0
 498 670 499 641 502 584 c 0x45
 504 538 505 500 505 500 c 2
 504 499 484 489 483 489 c 0
 482 489 387 607 382 614 c 0
 376 623 373 632 373 641 c 0x43
112 362 m 0
 112 408 161 455 217 455 c 1
 271 451 292 417 295 356 c 2
 296 340 l 1
 303 350 l 2
 355 419 416 455 483 455 c 0
 572 455 619 386 619 296 c 0
 619 277 617 257 613 236 c 0
 609 214 519 -209 517 -215 c 0
 510 -240 481 -261 453 -261 c 0
 425 -261 404 -244 404 -216 c 0
 404 -208 405 -198 410 -182 c 0
 423 -129 439 -87 485 16 c 0
 529 115 546 158 559 208 c 0
 566 238 570 269 570 289 c 0
 570 328 538 346 498 346 c 0
 463 346 438 336 411 309 c 0
 368 266 335 205 282 69 c 0
 274 50 266 31 264 27 c 0
 250 4 228 -10 204 -10 c 0
 177 -10 154 6 154 33 c 0xc9
 154 42 158 53 170 84 c 0
 192 140 207 177 223 210 c 0
 235 236 238 268 238 298 c 0
 237 323 232 338 222 347 c 0
 217 352 208 356 207 354 c 0
 207 353 205 350 202 345 c 0
 192 331 177 321 155 321 c 0
 131 321 112 336 112 362 c 0
157 -243 m 0
 131 -243 107 -227 107 -200 c 0x61
 107 -190 110 -174 120 -127 c 0
 127 -93 134 -64 135 -62 c 0
 135 -61 138 -58 140 -57 c 0
 143 -55 144 -55 190 -55 c 0
 240 -55 241 -55 245 -60 c 0
 246 -62 247 -65 248 -66 c 0x51
 248 -70 223 -189 220 -198 c 0
 212 -223 187 -243 157 -243 c 0
EndSplineSet
EndChar

StartChar: uni1F91
Encoding: 8081 8081 156
Width: 628
Flags: W
HStem: -10 21G<190.5 216> 346 109<480.5 518> 576 118<480 504.5>
VStem: 107 141<-213.5 -66> 135 113<-68 -61.5> 154 110 391 27<576.5 590> 570 49<286.5 308.5>
LayerCount: 2
Fore
SplineSet
437 629 m 1x63
 429 621 418 599 418 582 c 0
 418 571 423 561 431 553 c 0
 446 538 473 529 507 527 c 0
 517 527 520 526 523 525 c 0
 532 520 532 506 523 501 c 0
 519 499 511 498 494 500 c 0
 447 505 412 524 398 551 c 0
 392 562 391 570 391 583 c 0
 391 597 394 609 400 623 c 0
 418 661 456 694 504 694 c 0
 537 694 557 677 557 645 c 0
 557 603 522 576 487 576 c 0
 459 576 439 594 437 621 c 2
 437 629 l 1x63
112 362 m 0
 112 408 161 455 217 455 c 1
 271 451 292 417 295 356 c 2
 296 340 l 1
 303 350 l 2
 355 419 416 455 483 455 c 0
 572 455 619 386 619 296 c 0
 619 277 617 257 613 236 c 0
 609 214 519 -209 517 -215 c 0
 510 -240 481 -261 453 -261 c 0
 425 -261 404 -244 404 -216 c 0
 404 -208 405 -198 410 -182 c 0
 423 -129 439 -87 485 16 c 0
 529 115 546 158 559 208 c 0
 566 238 570 269 570 289 c 0
 570 328 538 346 498 346 c 0
 463 346 438 336 411 309 c 0
 368 266 335 205 282 69 c 0
 274 50 266 31 264 27 c 0
 250 4 228 -10 204 -10 c 0
 177 -10 154 6 154 33 c 0xe7
 154 42 158 53 170 84 c 0
 192 140 207 177 223 210 c 0
 235 236 238 268 238 298 c 0
 237 323 232 338 222 347 c 0
 217 352 208 356 207 354 c 0
 207 353 205 350 202 345 c 0
 192 331 177 321 155 321 c 0
 131 321 112 336 112 362 c 0
157 -243 m 0
 131 -243 107 -227 107 -200 c 0x73
 107 -190 110 -174 120 -127 c 0
 127 -93 134 -64 135 -62 c 0
 135 -61 138 -58 140 -57 c 0
 143 -55 144 -55 190 -55 c 0
 240 -55 241 -55 245 -60 c 0
 246 -62 247 -65 248 -66 c 0x6b
 248 -70 223 -189 220 -198 c 0
 212 -223 187 -243 157 -243 c 0
EndSplineSet
EndChar

StartChar: uni1F90
Encoding: 8080 8080 157
Width: 628
Flags: W
HStem: -10 21G<190.5 216> 346 109<480.5 518> 499 28<431.5 435 429 438> 576 118<487 503>
VStem: 107 141<-213.5 -66> 135 113<-68 -61.5> 154 110 438 149<619 626 626 638 575.5 645.5> 570 49<286.5 308.5>
LayerCount: 2
Fore
SplineSet
487 576 m 0x71
 462 576 438 591 438 619 c 2
 438 626 l 2
 438 665 468 694 506 694 c 0
 555 694 587 663 587 613 c 0
 587 538 512 503 438 499 c 0
 425 499 423 499 420 501 c 0
 411 506 410 518 418 524 c 0
 420 526 423 527 435 527 c 0
 501 531 547 558 558 598 c 0
 561 610 559 627 556 634 c 1
 550 599 519 576 487 576 c 0x71
112 362 m 0
 112 408 161 455 217 455 c 1
 271 451 292 417 295 356 c 2
 296 340 l 1
 303 350 l 2
 355 419 416 455 483 455 c 0
 572 455 619 386 619 296 c 0
 619 277 617 257 613 236 c 0
 609 214 519 -209 517 -215 c 0
 510 -240 481 -261 453 -261 c 0
 425 -261 404 -244 404 -216 c 0
 404 -208 405 -198 410 -182 c 0
 423 -129 439 -87 485 16 c 0
 529 115 546 158 559 208 c 0
 566 238 570 269 570 289 c 0
 570 328 538 346 498 346 c 0
 463 346 438 336 411 309 c 0
 368 266 335 205 282 69 c 0
 274 50 266 31 264 27 c 0
 250 4 228 -10 204 -10 c 0
 177 -10 154 6 154 33 c 0xf280
 154 42 158 53 170 84 c 0
 192 140 207 177 223 210 c 0
 235 236 238 268 238 298 c 0
 237 323 232 338 222 347 c 0
 217 352 208 356 207 354 c 0
 207 353 205 350 202 345 c 0
 192 331 177 321 155 321 c 0
 131 321 112 336 112 362 c 0
157 -243 m 0
 131 -243 107 -227 107 -200 c 0x78
 107 -190 110 -174 120 -127 c 0
 127 -93 134 -64 135 -62 c 0
 135 -61 138 -58 140 -57 c 0
 143 -55 144 -55 190 -55 c 0
 240 -55 241 -55 245 -60 c 0
 246 -62 247 -65 248 -66 c 0x74
 248 -70 223 -189 220 -198 c 0
 212 -223 187 -243 157 -243 c 0
EndSplineSet
EndChar

StartChar: etatonos
Encoding: 942 942 159
Width: 628
Flags: W
HStem: -10 21G<190.5 216> 346 109<480.5 518>
VStem: 154 110 570 49<286.5 308.5>
LayerCount: 2
Fore
SplineSet
510 669 m 0
 523 695 546 718 583 710 c 0
 607 705 627 686 627 662 c 0
 627 642 618 630 603 615 c 0
 598 610 561 579 521 547 c 2
 448 488 l 1
 439 494 l 1
 431 500 l 2
 431 501 504 656 510 669 c 0
112 362 m 0
 112 408 161 455 217 455 c 1
 271 451 292 417 295 356 c 2
 296 340 l 1
 303 350 l 2
 355 419 416 455 483 455 c 0
 572 455 619 386 619 296 c 0
 619 277 617 257 613 236 c 0
 609 214 519 -209 517 -215 c 0
 510 -240 481 -261 453 -261 c 0
 425 -261 404 -244 404 -216 c 0
 404 -208 405 -198 410 -182 c 0
 423 -129 439 -87 485 16 c 0
 529 115 546 158 559 208 c 0
 566 238 570 269 570 289 c 0
 570 328 538 346 498 346 c 0
 463 346 438 336 411 309 c 0
 368 266 335 205 282 69 c 0
 274 50 266 31 264 27 c 0
 250 4 228 -10 204 -10 c 0xf0
 177 -10 154 6 154 33 c 0
 154 42 158 53 170 84 c 0
 192 140 207 177 223 210 c 0
 235 236 238 268 238 298 c 0
 237 323 232 338 222 347 c 0
 217 352 208 356 207 354 c 0
 207 353 205 350 202 345 c 0
 192 331 177 321 155 321 c 0
 131 321 112 336 112 362 c 0
EndSplineSet
EndChar

StartChar: uni1F25
Encoding: 7973 7973 160
Width: 628
Flags: W
HStem: -10 21G<190.5 216> 346 109<480.5 518> 576 118<413 437.5>
VStem: 154 110 324 27<576.5 590> 570 49<286.5 308.5>
LayerCount: 2
Fore
SplineSet
550 669 m 0
 563 695 586 718 623 710 c 0
 647 705 667 686 667 662 c 0
 667 642 658 630 643 615 c 0
 638 610 601 579 561 547 c 2
 488 488 l 1
 479 494 l 1
 471 500 l 2
 471 501 544 656 550 669 c 0
370 629 m 1
 362 621 351 599 351 582 c 0
 351 571 356 561 364 553 c 0
 379 538 406 529 440 527 c 0
 450 527 453 526 456 525 c 0
 465 520 465 506 456 501 c 0
 452 499 444 498 427 500 c 0
 380 505 345 524 331 551 c 0
 325 562 324 570 324 583 c 0
 324 597 327 609 333 623 c 0
 351 661 389 694 437 694 c 0
 470 694 490 677 490 645 c 0
 490 603 455 576 420 576 c 0
 392 576 372 594 370 621 c 2
 370 629 l 1
112 362 m 0
 112 408 161 455 217 455 c 1
 271 451 292 417 295 356 c 2
 296 340 l 1
 303 350 l 2
 355 419 416 455 483 455 c 0
 572 455 619 386 619 296 c 0
 619 277 617 257 613 236 c 0
 609 214 519 -209 517 -215 c 0
 510 -240 481 -261 453 -261 c 0
 425 -261 404 -244 404 -216 c 0
 404 -208 405 -198 410 -182 c 0
 423 -129 439 -87 485 16 c 0
 529 115 546 158 559 208 c 0
 566 238 570 269 570 289 c 0
 570 328 538 346 498 346 c 0
 463 346 438 336 411 309 c 0
 368 266 335 205 282 69 c 0
 274 50 266 31 264 27 c 0
 250 4 228 -10 204 -10 c 0xfc
 177 -10 154 6 154 33 c 0
 154 42 158 53 170 84 c 0
 192 140 207 177 223 210 c 0
 235 236 238 268 238 298 c 0
 237 323 232 338 222 347 c 0
 217 352 208 356 207 354 c 0
 207 353 205 350 202 345 c 0
 192 331 177 321 155 321 c 0
 131 321 112 336 112 362 c 0
EndSplineSet
EndChar

StartChar: uni1F24
Encoding: 7972 7972 161
Width: 628
Flags: W
HStem: -10 21G<190.5 216> 346 109<480.5 518> 499 28<333.5 337 331 340> 576 118<389 405>
VStem: 154 110 340 149<619 626 626 638 575.5 645.5> 570 49<286.5 308.5>
LayerCount: 2
Fore
SplineSet
550 669 m 0
 563 695 586 718 623 710 c 0
 647 705 667 686 667 662 c 0
 667 642 658 630 643 615 c 0
 638 610 601 579 561 547 c 2
 488 488 l 1
 479 494 l 1
 471 500 l 2
 471 501 544 656 550 669 c 0
389 576 m 0
 364 576 340 591 340 619 c 2
 340 626 l 2
 340 665 370 694 408 694 c 0
 457 694 489 663 489 613 c 0
 489 538 414 503 340 499 c 0
 327 499 325 499 322 501 c 0
 313 506 312 518 320 524 c 0
 322 526 325 527 337 527 c 0
 403 531 449 558 460 598 c 0
 463 610 461 627 458 634 c 1
 452 599 421 576 389 576 c 0
112 362 m 0
 112 408 161 455 217 455 c 1
 271 451 292 417 295 356 c 2
 296 340 l 1
 303 350 l 2
 355 419 416 455 483 455 c 0
 572 455 619 386 619 296 c 0
 619 277 617 257 613 236 c 0
 609 214 519 -209 517 -215 c 0
 510 -240 481 -261 453 -261 c 0
 425 -261 404 -244 404 -216 c 0
 404 -208 405 -198 410 -182 c 0
 423 -129 439 -87 485 16 c 0
 529 115 546 158 559 208 c 0
 566 238 570 269 570 289 c 0
 570 328 538 346 498 346 c 0
 463 346 438 336 411 309 c 0
 368 266 335 205 282 69 c 0
 274 50 266 31 264 27 c 0
 250 4 228 -10 204 -10 c 0xfe
 177 -10 154 6 154 33 c 0
 154 42 158 53 170 84 c 0
 192 140 207 177 223 210 c 0
 235 236 238 268 238 298 c 0
 237 323 232 338 222 347 c 0
 217 352 208 356 207 354 c 0
 207 353 205 350 202 345 c 0
 192 331 177 321 155 321 c 0
 131 321 112 336 112 362 c 0
EndSplineSet
EndChar

StartChar: uni1F23
Encoding: 7971 7971 162
Width: 628
Flags: W
HStem: -10 21G<190.5 216> 346 109<480.5 518> 576 118<396 420.5>
VStem: 154 110 307 27<576.5 590> 483 129 483 132 570 49<286.5 308.5>
LayerCount: 2
Fore
SplineSet
483 641 m 0x7a
 483 679 520 704 552 711 c 0
 584 715 601 702 606 676 c 0
 608 670 609 641 612 584 c 0x7c
 614 538 615 500 615 500 c 2
 614 499 594 489 593 489 c 0
 592 489 497 607 492 614 c 0
 486 623 483 632 483 641 c 0x7a
353 629 m 1
 345 621 334 599 334 582 c 0
 334 571 339 561 347 553 c 0
 362 538 389 529 423 527 c 0
 433 527 436 526 439 525 c 0
 448 520 448 506 439 501 c 0
 435 499 427 498 410 500 c 0
 363 505 328 524 314 551 c 0
 308 562 307 570 307 583 c 0
 307 597 310 609 316 623 c 0
 334 661 372 694 420 694 c 0
 453 694 473 677 473 645 c 0
 473 603 438 576 403 576 c 0
 375 576 355 594 353 621 c 2
 353 629 l 1
112 362 m 0
 112 408 161 455 217 455 c 1
 271 451 292 417 295 356 c 2
 296 340 l 1
 303 350 l 2
 355 419 416 455 483 455 c 0xfc
 572 455 619 386 619 296 c 0
 619 277 617 257 613 236 c 0
 609 214 519 -209 517 -215 c 0
 510 -240 481 -261 453 -261 c 0
 425 -261 404 -244 404 -216 c 0
 404 -208 405 -198 410 -182 c 0
 423 -129 439 -87 485 16 c 0
 529 115 546 158 559 208 c 0
 566 238 570 269 570 289 c 0
 570 328 538 346 498 346 c 0
 463 346 438 336 411 309 c 0
 368 266 335 205 282 69 c 0
 274 50 266 31 264 27 c 0
 250 4 228 -10 204 -10 c 0xf9
 177 -10 154 6 154 33 c 0
 154 42 158 53 170 84 c 0
 192 140 207 177 223 210 c 0
 235 236 238 268 238 298 c 0
 237 323 232 338 222 347 c 0
 217 352 208 356 207 354 c 0
 207 353 205 350 202 345 c 0
 192 331 177 321 155 321 c 0
 131 321 112 336 112 362 c 0
EndSplineSet
EndChar

StartChar: uni1FC4
Encoding: 8132 8132 163
Width: 628
Flags: W
HStem: -10 21G<190.5 216> 346 109<480.5 518>
VStem: 107 141<-213.5 -66> 135 113<-68 -61.5> 154 110 570 49<286.5 308.5>
LayerCount: 2
Fore
SplineSet
510 669 m 0x44
 523 695 546 718 583 710 c 0
 607 705 627 686 627 662 c 0
 627 642 618 630 603 615 c 0
 598 610 561 579 521 547 c 2
 448 488 l 1
 439 494 l 1
 431 500 l 2
 431 501 504 656 510 669 c 0x44
112 362 m 0
 112 408 161 455 217 455 c 1
 271 451 292 417 295 356 c 2
 296 340 l 1
 303 350 l 2
 355 419 416 455 483 455 c 0
 572 455 619 386 619 296 c 0
 619 277 617 257 613 236 c 0
 609 214 519 -209 517 -215 c 0
 510 -240 481 -261 453 -261 c 0
 425 -261 404 -244 404 -216 c 0
 404 -208 405 -198 410 -182 c 0
 423 -129 439 -87 485 16 c 0
 529 115 546 158 559 208 c 0
 566 238 570 269 570 289 c 0
 570 328 538 346 498 346 c 0
 463 346 438 336 411 309 c 0
 368 266 335 205 282 69 c 0
 274 50 266 31 264 27 c 0
 250 4 228 -10 204 -10 c 0
 177 -10 154 6 154 33 c 0xcc
 154 42 158 53 170 84 c 0
 192 140 207 177 223 210 c 0
 235 236 238 268 238 298 c 0
 237 323 232 338 222 347 c 0
 217 352 208 356 207 354 c 0
 207 353 205 350 202 345 c 0
 192 331 177 321 155 321 c 0
 131 321 112 336 112 362 c 0
157 -243 m 0
 131 -243 107 -227 107 -200 c 0x64
 107 -190 110 -174 120 -127 c 0
 127 -93 134 -64 135 -62 c 0
 135 -61 138 -58 140 -57 c 0
 143 -55 144 -55 190 -55 c 0
 240 -55 241 -55 245 -60 c 0
 246 -62 247 -65 248 -66 c 0x54
 248 -70 223 -189 220 -198 c 0
 212 -223 187 -243 157 -243 c 0
EndSplineSet
EndChar

StartChar: uni1F95
Encoding: 8085 8085 164
Width: 628
Flags: W
HStem: -10 21G<190.5 216> 346 109<480.5 518> 576 118<413 437.5>
VStem: 107 141<-213.5 -66> 135 113<-68 -61.5> 154 110 324 27<576.5 590> 570 49<286.5 308.5>
LayerCount: 2
Fore
SplineSet
550 669 m 0x63
 563 695 586 718 623 710 c 0
 647 705 667 686 667 662 c 0
 667 642 658 630 643 615 c 0
 638 610 601 579 561 547 c 2
 488 488 l 1
 479 494 l 1
 471 500 l 2
 471 501 544 656 550 669 c 0x63
370 629 m 1
 362 621 351 599 351 582 c 0
 351 571 356 561 364 553 c 0
 379 538 406 529 440 527 c 0
 450 527 453 526 456 525 c 0
 465 520 465 506 456 501 c 0
 452 499 444 498 427 500 c 0
 380 505 345 524 331 551 c 0
 325 562 324 570 324 583 c 0
 324 597 327 609 333 623 c 0
 351 661 389 694 437 694 c 0
 470 694 490 677 490 645 c 0
 490 603 455 576 420 576 c 0
 392 576 372 594 370 621 c 2
 370 629 l 1
112 362 m 0
 112 408 161 455 217 455 c 1
 271 451 292 417 295 356 c 2
 296 340 l 1
 303 350 l 2
 355 419 416 455 483 455 c 0
 572 455 619 386 619 296 c 0
 619 277 617 257 613 236 c 0
 609 214 519 -209 517 -215 c 0
 510 -240 481 -261 453 -261 c 0
 425 -261 404 -244 404 -216 c 0
 404 -208 405 -198 410 -182 c 0
 423 -129 439 -87 485 16 c 0
 529 115 546 158 559 208 c 0
 566 238 570 269 570 289 c 0
 570 328 538 346 498 346 c 0
 463 346 438 336 411 309 c 0
 368 266 335 205 282 69 c 0
 274 50 266 31 264 27 c 0
 250 4 228 -10 204 -10 c 0
 177 -10 154 6 154 33 c 0xe7
 154 42 158 53 170 84 c 0
 192 140 207 177 223 210 c 0
 235 236 238 268 238 298 c 0
 237 323 232 338 222 347 c 0
 217 352 208 356 207 354 c 0
 207 353 205 350 202 345 c 0
 192 331 177 321 155 321 c 0
 131 321 112 336 112 362 c 0
157 -243 m 0
 131 -243 107 -227 107 -200 c 0x73
 107 -190 110 -174 120 -127 c 0
 127 -93 134 -64 135 -62 c 0
 135 -61 138 -58 140 -57 c 0
 143 -55 144 -55 190 -55 c 0
 240 -55 241 -55 245 -60 c 0
 246 -62 247 -65 248 -66 c 0x6b
 248 -70 223 -189 220 -198 c 0
 212 -223 187 -243 157 -243 c 0
EndSplineSet
EndChar

StartChar: uni1F94
Encoding: 8084 8084 165
Width: 628
Flags: W
HStem: -10 21G<190.5 216> 346 109<480.5 518> 499 28<333.5 337 331 340> 576 118<389 405>
VStem: 107 141<-213.5 -66> 135 113<-68 -61.5> 154 110 340 149<619 626 626 638 575.5 645.5> 570 49<286.5 308.5>
LayerCount: 2
Fore
SplineSet
550 669 m 0x7180
 563 695 586 718 623 710 c 0
 647 705 667 686 667 662 c 0
 667 642 658 630 643 615 c 0
 638 610 601 579 561 547 c 2
 488 488 l 1
 479 494 l 1
 471 500 l 2
 471 501 544 656 550 669 c 0x7180
389 576 m 0
 364 576 340 591 340 619 c 2
 340 626 l 2
 340 665 370 694 408 694 c 0
 457 694 489 663 489 613 c 0
 489 538 414 503 340 499 c 0
 327 499 325 499 322 501 c 0
 313 506 312 518 320 524 c 0
 322 526 325 527 337 527 c 0
 403 531 449 558 460 598 c 0
 463 610 461 627 458 634 c 1
 452 599 421 576 389 576 c 0
112 362 m 0
 112 408 161 455 217 455 c 1
 271 451 292 417 295 356 c 2
 296 340 l 1
 303 350 l 2
 355 419 416 455 483 455 c 0
 572 455 619 386 619 296 c 0
 619 277 617 257 613 236 c 0
 609 214 519 -209 517 -215 c 0
 510 -240 481 -261 453 -261 c 0
 425 -261 404 -244 404 -216 c 0
 404 -208 405 -198 410 -182 c 0
 423 -129 439 -87 485 16 c 0
 529 115 546 158 559 208 c 0
 566 238 570 269 570 289 c 0
 570 328 538 346 498 346 c 0
 463 346 438 336 411 309 c 0
 368 266 335 205 282 69 c 0
 274 50 266 31 264 27 c 0
 250 4 228 -10 204 -10 c 0
 177 -10 154 6 154 33 c 0xf380
 154 42 158 53 170 84 c 0
 192 140 207 177 223 210 c 0
 235 236 238 268 238 298 c 0
 237 323 232 338 222 347 c 0
 217 352 208 356 207 354 c 0
 207 353 205 350 202 345 c 0
 192 331 177 321 155 321 c 0
 131 321 112 336 112 362 c 0
157 -243 m 0
 131 -243 107 -227 107 -200 c 0x7980
 107 -190 110 -174 120 -127 c 0
 127 -93 134 -64 135 -62 c 0
 135 -61 138 -58 140 -57 c 0
 143 -55 144 -55 190 -55 c 0
 240 -55 241 -55 245 -60 c 0
 246 -62 247 -65 248 -66 c 0x7580
 248 -70 223 -189 220 -198 c 0
 212 -223 187 -243 157 -243 c 0
EndSplineSet
EndChar

StartChar: uni1F93
Encoding: 8083 8083 166
Width: 628
Flags: W
HStem: -10 21G<190.5 216> 346 109<480.5 518> 576 118<396 420.5>
VStem: 107 141<-213.5 -66> 135 113<-68 -61.5> 154 110 307 27<576.5 590> 483 129 483 132 570 49<286.5 308.5>
LayerCount: 2
Fore
SplineSet
483 641 m 0x6280
 483 679 520 704 552 711 c 0
 584 715 601 702 606 676 c 0
 608 670 609 641 612 584 c 0x63
 614 538 615 500 615 500 c 2
 614 499 594 489 593 489 c 0
 592 489 497 607 492 614 c 0
 486 623 483 632 483 641 c 0x6280
353 629 m 1
 345 621 334 599 334 582 c 0
 334 571 339 561 347 553 c 0
 362 538 389 529 423 527 c 0
 433 527 436 526 439 525 c 0
 448 520 448 506 439 501 c 0
 435 499 427 498 410 500 c 0
 363 505 328 524 314 551 c 0
 308 562 307 570 307 583 c 0
 307 597 310 609 316 623 c 0
 334 661 372 694 420 694 c 0
 453 694 473 677 473 645 c 0
 473 603 438 576 403 576 c 0
 375 576 355 594 353 621 c 2
 353 629 l 1
112 362 m 0
 112 408 161 455 217 455 c 1
 271 451 292 417 295 356 c 2
 296 340 l 1
 303 350 l 2
 355 419 416 455 483 455 c 0xe7
 572 455 619 386 619 296 c 0
 619 277 617 257 613 236 c 0
 609 214 519 -209 517 -215 c 0
 510 -240 481 -261 453 -261 c 0
 425 -261 404 -244 404 -216 c 0
 404 -208 405 -198 410 -182 c 0
 423 -129 439 -87 485 16 c 0
 529 115 546 158 559 208 c 0
 566 238 570 269 570 289 c 0
 570 328 538 346 498 346 c 0
 463 346 438 336 411 309 c 0
 368 266 335 205 282 69 c 0
 274 50 266 31 264 27 c 0
 250 4 228 -10 204 -10 c 0
 177 -10 154 6 154 33 c 0xe640
 154 42 158 53 170 84 c 0
 192 140 207 177 223 210 c 0
 235 236 238 268 238 298 c 0
 237 323 232 338 222 347 c 0
 217 352 208 356 207 354 c 0
 207 353 205 350 202 345 c 0
 192 331 177 321 155 321 c 0
 131 321 112 336 112 362 c 0
157 -243 m 0
 131 -243 107 -227 107 -200 c 0x72
 107 -190 110 -174 120 -127 c 0
 127 -93 134 -64 135 -62 c 0
 135 -61 138 -58 140 -57 c 0
 143 -55 144 -55 190 -55 c 0
 240 -55 241 -55 245 -60 c 0
 246 -62 247 -65 248 -66 c 0x6a
 248 -70 223 -189 220 -198 c 0
 212 -223 187 -243 157 -243 c 0
EndSplineSet
EndChar

StartChar: uni1FC6
Encoding: 8134 8134 167
Width: 628
Flags: W
HStem: -10 21G<190.5 216> 346 109<480.5 518> 600 36<570.5 574.5> 657 37<418.5 428>
VStem: 154 110 295 75 570 49<286.5 308.5>
LayerCount: 2
Fore
SplineSet
345 677 m 0
 372 691 397 694 440 694 c 0
 492 694 516 690 540 663 c 0
 561 640 566 636 575 636 c 0
 600 636 622 658 629 679 c 0
 632 689 633 690 637 692 c 0
 640 694 645 694 667 694 c 0
 697 694 699 694 703 688 c 0
 706 684 706 680 704 672 c 0
 692 631 654 610 607 602 c 0
 596 600 591 600 558 600 c 0
 517 600 510 600 494 606 c 0
 478 611 468 619 446 643 c 0
 437 653 432 657 424 657 c 0
 398 657 376 635 370 615 c 0
 364 599 365 599 330 599 c 0
 307 599 303 599 300 601 c 0
 292 605 291 611 295 624 c 0
 302 645 320 664 345 677 c 0
112 362 m 0
 112 408 161 455 217 455 c 1
 271 451 292 417 295 356 c 2
 296 340 l 1
 303 350 l 2
 355 419 416 455 483 455 c 0
 572 455 619 386 619 296 c 0
 619 277 617 257 613 236 c 0
 609 214 519 -209 517 -215 c 0
 510 -240 481 -261 453 -261 c 0
 425 -261 404 -244 404 -216 c 0
 404 -208 405 -198 410 -182 c 0
 423 -129 439 -87 485 16 c 0
 529 115 546 158 559 208 c 0
 566 238 570 269 570 289 c 0
 570 328 538 346 498 346 c 0
 463 346 438 336 411 309 c 0
 368 266 335 205 282 69 c 0
 274 50 266 31 264 27 c 0
 250 4 228 -10 204 -10 c 0xfe
 177 -10 154 6 154 33 c 0
 154 42 158 53 170 84 c 0
 192 140 207 177 223 210 c 0
 235 236 238 268 238 298 c 0
 237 323 232 338 222 347 c 0
 217 352 208 356 207 354 c 0
 207 353 205 350 202 345 c 0
 192 331 177 321 155 321 c 0
 131 321 112 336 112 362 c 0
EndSplineSet
EndChar

StartChar: uni1F27
Encoding: 7975 7975 168
Width: 628
Flags: W
HStem: -10 21G<190.5 216> 346 109<480.5 518> 488 28 596 36<575 589.5 575 591.5> 657 36<400.5 420.5>
VStem: 154 110 293 59 423 28<527 534 527 548> 570 49<286.5 308.5> 645 58<679.5 681>
LayerCount: 2
Fore
SplineSet
320 659 m 0
 343 678 375 693 415 693 c 0
 476 693 503 684 537 654 c 0
 550 642 556 638 562 635 c 0
 567 633 572 632 578 632 c 0
 601 632 629 647 640 669 c 0
 642 673 645 678 645 681 c 0
 649 693 651 694 675 694 c 0
 696 694 699 693 703 688 c 0
 706 684 706 678 703 668 c 0
 695 645 676 625 649 611 c 0
 628 601 609 596 574 596 c 0
 522 596 493 606 463 633 c 0
 446 647 442 650 435 653 c 0
 430 655 424 657 417 657 c 0
 384 657 358 632 352 608 c 0
 348 596 346 595 322 595 c 0
 301 595 298 596 294 601 c 0
 291 605 291 609 293 617 c 0
 297 632 308 648 320 659 c 0
502 502 m 0
 502 491 495 488 482 488 c 0
 445 490 423 510 423 535 c 0
 423 561 446 586 470 591 c 0
 495 598 515 585 515 563 c 0
 515 541 499 525 476 525 c 0
 465 525 461 526 454 532 c 0
 452 534 451 535 451 533 c 0
 451 521 470 517 484 516 c 0
 498 515 502 511 502 502 c 0
112 362 m 0
 112 408 161 455 217 455 c 1
 271 451 292 417 295 356 c 2
 296 340 l 1
 303 350 l 2
 355 419 416 455 483 455 c 0
 572 455 619 386 619 296 c 0
 619 277 617 257 613 236 c 0
 609 214 519 -209 517 -215 c 0
 510 -240 481 -261 453 -261 c 0
 425 -261 404 -244 404 -216 c 0
 404 -208 405 -198 410 -182 c 0
 423 -129 439 -87 485 16 c 0
 529 115 546 158 559 208 c 0
 566 238 570 269 570 289 c 0
 570 328 538 346 498 346 c 0
 463 346 438 336 411 309 c 0
 368 266 335 205 282 69 c 0
 274 50 266 31 264 27 c 0
 250 4 228 -10 204 -10 c 0xffc0
 177 -10 154 6 154 33 c 0
 154 42 158 53 170 84 c 0
 192 140 207 177 223 210 c 0
 235 236 238 268 238 298 c 0
 237 323 232 338 222 347 c 0
 217 352 208 356 207 354 c 0
 207 353 205 350 202 345 c 0
 192 331 177 321 155 321 c 0
 131 321 112 336 112 362 c 0
EndSplineSet
EndChar

StartChar: uni1F26
Encoding: 7974 7974 169
Width: 628
Flags: W
HStem: -10 21G<190.5 216> 346 109<480.5 518> 488 28<448.5 452.5 448 470> 524 67 596 36<575 589.5 575 591.5> 657 36<400.5 420.5>
VStem: 154 110 293 59 445 85<545.5 559 529 566> 570 49<286.5 308.5> 645 58<679.5 681>
LayerCount: 2
Fore
SplineSet
320 659 m 0
 343 678 375 693 415 693 c 0
 476 693 503 684 537 654 c 0
 550 642 556 638 562 635 c 0
 567 633 572 632 578 632 c 0
 601 632 629 647 640 669 c 0
 642 673 645 678 645 681 c 0
 649 693 651 694 675 694 c 0
 696 694 699 693 703 688 c 0
 706 684 706 678 703 668 c 0
 695 645 676 625 649 611 c 0
 628 601 609 596 574 596 c 0
 522 596 493 606 463 633 c 0
 446 647 442 650 435 653 c 0
 430 655 424 657 417 657 c 0
 384 657 358 632 352 608 c 0
 348 596 346 595 322 595 c 0
 301 595 298 596 294 601 c 0
 291 605 291 609 293 617 c 0
 297 632 308 648 320 659 c 0
476 524 m 2
 458 524 445 536 445 555 c 0
 445 577 466 599 496 591 c 0
 517 586 530 569 530 549 c 0
 530 509 490 488 450 488 c 0
 447 488 444 488 442 489 c 0
 432 494 431 510 441 514 c 0
 443 515 447 516 449 516 c 0
 456 516 467 518 475 521 c 0
 486 524 486 525 479 524 c 2
 476 524 l 2
112 362 m 0
 112 408 161 455 217 455 c 1
 271 451 292 417 295 356 c 2
 296 340 l 1
 303 350 l 2
 355 419 416 455 483 455 c 0
 572 455 619 386 619 296 c 0
 619 277 617 257 613 236 c 0
 609 214 519 -209 517 -215 c 0
 510 -240 481 -261 453 -261 c 0
 425 -261 404 -244 404 -216 c 0
 404 -208 405 -198 410 -182 c 0
 423 -129 439 -87 485 16 c 0
 529 115 546 158 559 208 c 0
 566 238 570 269 570 289 c 0
 570 328 538 346 498 346 c 0
 463 346 438 336 411 309 c 0
 368 266 335 205 282 69 c 0
 274 50 266 31 264 27 c 0
 250 4 228 -10 204 -10 c 0xffe0
 177 -10 154 6 154 33 c 0
 154 42 158 53 170 84 c 0
 192 140 207 177 223 210 c 0
 235 236 238 268 238 298 c 0
 237 323 232 338 222 347 c 0
 217 352 208 356 207 354 c 0
 207 353 205 350 202 345 c 0
 192 331 177 321 155 321 c 0
 131 321 112 336 112 362 c 0
EndSplineSet
EndChar

StartChar: uni1F22
Encoding: 7970 7970 170
Width: 628
Flags: W
HStem: -10 21G<190.5 216> 346 109<480.5 518> 499 28<318.5 322 316 325> 576 118<374 390>
VStem: 154 110 325 149<619 626 626 638 575.5 645.5> 483 129 483 132 570 49<286.5 308.5>
LayerCount: 2
Fore
SplineSet
483 641 m 0x7d
 483 679 520 704 552 711 c 0
 584 715 601 702 606 676 c 0
 608 670 609 641 612 584 c 0x7e
 614 538 615 500 615 500 c 2
 614 499 594 489 593 489 c 0
 592 489 497 607 492 614 c 0
 486 623 483 632 483 641 c 0x7d
374 576 m 0
 349 576 325 591 325 619 c 2
 325 626 l 2
 325 665 355 694 393 694 c 0
 442 694 474 663 474 613 c 0
 474 538 399 503 325 499 c 0
 312 499 310 499 307 501 c 0
 298 506 297 518 305 524 c 0
 307 526 310 527 322 527 c 0
 388 531 434 558 445 598 c 0
 448 610 446 627 443 634 c 1
 437 599 406 576 374 576 c 0
112 362 m 0
 112 408 161 455 217 455 c 1
 271 451 292 417 295 356 c 2
 296 340 l 1
 303 350 l 2
 355 419 416 455 483 455 c 0xfe
 572 455 619 386 619 296 c 0
 619 277 617 257 613 236 c 0
 609 214 519 -209 517 -215 c 0
 510 -240 481 -261 453 -261 c 0
 425 -261 404 -244 404 -216 c 0
 404 -208 405 -198 410 -182 c 0
 423 -129 439 -87 485 16 c 0
 529 115 546 158 559 208 c 0
 566 238 570 269 570 289 c 0
 570 328 538 346 498 346 c 0
 463 346 438 336 411 309 c 0
 368 266 335 205 282 69 c 0
 274 50 266 31 264 27 c 0
 250 4 228 -10 204 -10 c 0xfc80
 177 -10 154 6 154 33 c 0
 154 42 158 53 170 84 c 0
 192 140 207 177 223 210 c 0
 235 236 238 268 238 298 c 0
 237 323 232 338 222 347 c 0
 217 352 208 356 207 354 c 0
 207 353 205 350 202 345 c 0
 192 331 177 321 155 321 c 0
 131 321 112 336 112 362 c 0
EndSplineSet
EndChar

StartChar: uni1FC7
Encoding: 8135 8135 171
Width: 628
Flags: W
HStem: -10 21G<190.5 216> 346 109<480.5 518> 600 36<570.5 574.5> 657 37<418.5 428>
VStem: 107 141<-213.5 -66> 135 113<-68 -61.5> 154 110 295 75 570 49<286.5 308.5>
LayerCount: 2
Fore
SplineSet
345 677 m 0x7180
 372 691 397 694 440 694 c 0
 492 694 516 690 540 663 c 0
 561 640 566 636 575 636 c 0
 600 636 622 658 629 679 c 0
 632 689 633 690 637 692 c 0
 640 694 645 694 667 694 c 0
 697 694 699 694 703 688 c 0
 706 684 706 680 704 672 c 0
 692 631 654 610 607 602 c 0
 596 600 591 600 558 600 c 0
 517 600 510 600 494 606 c 0
 478 611 468 619 446 643 c 0
 437 653 432 657 424 657 c 0
 398 657 376 635 370 615 c 0
 364 599 365 599 330 599 c 0
 307 599 303 599 300 601 c 0
 292 605 291 611 295 624 c 0
 302 645 320 664 345 677 c 0x7180
112 362 m 0
 112 408 161 455 217 455 c 1
 271 451 292 417 295 356 c 2
 296 340 l 1
 303 350 l 2
 355 419 416 455 483 455 c 0
 572 455 619 386 619 296 c 0
 619 277 617 257 613 236 c 0
 609 214 519 -209 517 -215 c 0
 510 -240 481 -261 453 -261 c 0
 425 -261 404 -244 404 -216 c 0
 404 -208 405 -198 410 -182 c 0
 423 -129 439 -87 485 16 c 0
 529 115 546 158 559 208 c 0
 566 238 570 269 570 289 c 0
 570 328 538 346 498 346 c 0
 463 346 438 336 411 309 c 0
 368 266 335 205 282 69 c 0
 274 50 266 31 264 27 c 0
 250 4 228 -10 204 -10 c 0
 177 -10 154 6 154 33 c 0xf380
 154 42 158 53 170 84 c 0
 192 140 207 177 223 210 c 0
 235 236 238 268 238 298 c 0
 237 323 232 338 222 347 c 0
 217 352 208 356 207 354 c 0
 207 353 205 350 202 345 c 0
 192 331 177 321 155 321 c 0
 131 321 112 336 112 362 c 0
157 -243 m 0
 131 -243 107 -227 107 -200 c 0x7980
 107 -190 110 -174 120 -127 c 0
 127 -93 134 -64 135 -62 c 0
 135 -61 138 -58 140 -57 c 0
 143 -55 144 -55 190 -55 c 0
 240 -55 241 -55 245 -60 c 0
 246 -62 247 -65 248 -66 c 0x7580
 248 -70 223 -189 220 -198 c 0
 212 -223 187 -243 157 -243 c 0
EndSplineSet
EndChar

